<?xml version="1.0" standalone="no"?>
<!DOCTYPE svg PUBLIC "-//W3C//DTD SVG 20010904//EN"
 "http://www.w3.org/TR/2001/REC-SVG-20010904/DTD/svg10.dtd">
<svg version="1.0" xmlns="http://www.w3.org/2000/svg"
 width="242.000000pt" height="242.000000pt" viewBox="0 0 242.000000 242.000000"
 preserveAspectRatio="xMidYMid meet">
<metadata>
Created by potrace 1.14, written by Peter Selinger 2001-2017
</metadata>
<g transform="translate(0.000000,242.000000) scale(0.100000,-0.100000)"
fill="#000000" stroke="none">
<path d="M1527 2376 c-36 -24 -89 -63 -116 -86 -52 -43 -151 -160 -151 -178 0
-6 -4 -12 -8 -14 -14 -5 -59 -127 -70 -185 -19 -109 2 -273 48 -363 26 -51 26
-56 -14 -180 l-33 -105 -80 -2 c-126 -2 -199 -50 -252 -162 -34 -74 -37 -192
-5 -261 23 -49 81 -113 125 -135 31 -16 35 8 -31 -200 -17 -55 -33 -107 -35
-115 -2 -8 -8 -28 -13 -45 -5 -16 -10 -53 -11 -81 -7 -146 82 -250 221 -258
90 -6 154 32 190 112 39 86 20 166 -49 219 -71 55 -191 30 -222 -46 -37 -90
12 -171 103 -171 47 0 96 41 80 66 -21 35 -41 40 -62 14 -15 -18 -24 -22 -46
-16 -55 14 -48 93 11 114 63 21 122 -9 143 -73 41 -124 -119 -229 -240 -159
-54 30 -83 95 -76 169 5 64 10 90 25 139 5 17 29 91 51 164 l42 133 31 -7
c243 -54 468 123 469 367 1 109 -37 196 -156 356 -42 56 -76 108 -76 115 0 7
61 204 136 438 128 400 152 480 142 480 -2 0 -34 -20 -71 -44z m-52 -183 c-3
-16 -38 -127 -76 -248 -39 -121 -80 -249 -91 -285 -12 -36 -24 -69 -28 -73
-14 -17 -35 91 -34 178 1 105 24 184 84 285 31 53 133 170 148 170 2 0 1 -12
-3 -27z m-135 -811 c19 -26 41 -53 47 -60 29 -30 82 -141 91 -187 26 -150 -43
-294 -174 -360 -51 -26 -70 -30 -136 -30 -42 1 -80 3 -83 7 -6 5 122 418 133
430 21 21 75 -60 74 -111 -1 -54 -23 -93 -66 -116 -38 -21 -42 -34 -25 -84 13
-35 23 -38 60 -13 90 60 123 172 80 268 -10 22 -39 58 -63 79 l-45 39 31 93
c17 51 33 93 36 93 3 0 21 -22 40 -48z m-197 -161 l25 -10 -19 -53 c-10 -29
-41 -126 -70 -214 -58 -184 -60 -185 -128 -107 -66 74 -77 173 -30 266 37 72
98 112 191 126 4 1 18 -3 31 -8z"/>
</g>
</svg>
