<svg width="80" height="90" viewBox="0 0 80 90" fill="none" xmlns="http://www.w3.org/2000/svg">
<path d="M23.0252 38.0486L23.0896 37.4873C23.0913 37.4726 23.0884 37.4578 23.0813 37.4449C23.0742 37.432 23.0633 37.4216 23.05 37.4152L21.5103 36.6707C21.4713 36.6518 21.4496 36.664 21.4453 36.7074L21.3968 37.1989C21.3945 37.2206 21.4043 37.233 21.4264 37.2362C21.4378 37.2381 21.4482 37.2346 21.4577 37.2255C21.4671 37.2161 21.4727 37.2009 21.4742 37.18C21.4853 37.0567 21.4977 36.9334 21.5114 36.8102C21.5121 36.8044 21.5141 36.7988 21.5173 36.794C21.5206 36.7891 21.5249 36.7852 21.53 36.7824C21.5351 36.7796 21.5408 36.7781 21.5467 36.778C21.5525 36.7779 21.5582 36.7792 21.5634 36.7818L22.9714 37.4843C22.9899 37.4934 22.9974 37.5081 22.9939 37.5286L22.9206 37.9582C22.9167 37.9806 22.9044 37.9869 22.884 37.9771L21.515 37.3029C21.4886 37.2899 21.4734 37.298 21.4695 37.3271L21.4293 37.6373C21.4258 37.6649 21.437 37.684 21.463 37.6946L22.8302 38.2524C22.8546 38.2622 22.8688 38.2542 22.8727 38.2282L22.891 38.1189C22.8942 38.0984 22.9058 38.0856 22.9259 38.0805C22.9413 38.0765 22.9596 38.0765 22.9809 38.0805" stroke="black" stroke-width="2"/>
<path d="M21.7612 34.9129L34.5451 40.6511C34.5668 40.6609 34.5784 40.6538 34.58 40.6298C34.6194 40.0429 34.8297 39.5273 35.211 39.083C35.2512 39.0361 35.2423 39.0018 35.1844 38.9802C31.1978 37.4999 27.2428 36.0323 23.3192 34.5773C23.2235 34.5418 23.1233 34.5257 23.0185 34.5288C22.603 34.5414 22.1858 34.5397 21.7671 34.5235C21.7407 34.5223 21.7275 34.5349 21.7275 34.5613V34.8609C21.7275 34.8857 21.7388 34.903 21.7612 34.9129Z" stroke="black" stroke-width="2"/>
<path d="M34.5053 42.4953L20.873 35.9004C20.8694 35.8984 20.8665 35.899 20.8641 35.9022C20.859 35.9096 20.858 35.9144 20.8612 35.9163C21.3319 36.2023 21.8144 36.4668 22.3087 36.7098C26.4296 38.7388 30.5538 40.7667 34.6814 42.7937C34.6845 42.7952 34.688 42.7959 34.6915 42.7957C34.695 42.7956 34.6983 42.7946 34.7013 42.7928C34.7042 42.791 34.7067 42.7885 34.7084 42.7856C34.71 42.7827 34.7109 42.7793 34.7109 42.7759V41.6551C34.7109 41.6342 34.7015 41.6195 34.6826 41.6108L21.429 35.5063C21.428 35.5059 21.4269 35.5058 21.4259 35.5059C21.4249 35.506 21.4239 35.5064 21.423 35.507C21.4221 35.5075 21.4214 35.5083 21.4209 35.5092C21.4204 35.5101 21.4201 35.5112 21.4201 35.5122C21.4205 35.5189 21.4235 35.5238 21.429 35.527C22.5781 36.1846 23.7911 36.7423 24.9923 37.3107C28.16 38.8103 31.3312 40.3025 34.5059 41.7875C34.5244 41.7961 34.5337 41.8107 34.5337 41.8312V42.4776C34.5337 42.4809 34.5329 42.4841 34.5314 42.487C34.5298 42.4899 34.5275 42.4923 34.5246 42.4941C34.5218 42.4959 34.5185 42.4969 34.5152 42.4971C34.5118 42.4973 34.5084 42.4967 34.5053 42.4953Z" stroke="black" stroke-width="2"/>
<path d="M21.9148 37.1708C21.9148 37.1374 21.9015 37.1054 21.8779 37.0818C21.8543 37.0582 21.8223 37.0449 21.7889 37.0449C21.7556 37.0449 21.7235 37.0582 21.6999 37.0818C21.6763 37.1054 21.6631 37.1374 21.6631 37.1708C21.6631 37.2041 21.6763 37.2362 21.6999 37.2598C21.7235 37.2834 21.7556 37.2966 21.7889 37.2966C21.8223 37.2966 21.8543 37.2834 21.8779 37.2598C21.9015 37.2362 21.9148 37.2041 21.9148 37.1708Z" stroke="black" stroke-width="2"/>
<path d="M22.403 37.3934C22.403 37.3616 22.3903 37.3311 22.3678 37.3086C22.3453 37.2861 22.3148 37.2734 22.283 37.2734C22.2512 37.2734 22.2207 37.2861 22.1982 37.3086C22.1757 37.3311 22.1631 37.3616 22.1631 37.3934C22.1631 37.4252 22.1757 37.4557 22.1982 37.4782C22.2207 37.5007 22.2512 37.5133 22.283 37.5133C22.3148 37.5133 22.3453 37.5007 22.3678 37.4782C22.3903 37.4557 22.403 37.4252 22.403 37.3934Z" stroke="black" stroke-width="2"/>
<path d="M22.8299 37.5795C22.8299 37.5475 22.8172 37.5169 22.7946 37.4943C22.772 37.4717 22.7414 37.459 22.7094 37.459C22.6774 37.459 22.6468 37.4717 22.6242 37.4943C22.6016 37.5169 22.5889 37.5475 22.5889 37.5795C22.5889 37.5953 22.592 37.611 22.598 37.6256C22.6041 37.6403 22.613 37.6535 22.6242 37.6647C22.6354 37.6759 22.6486 37.6848 22.6633 37.6909C22.6779 37.6969 22.6936 37.7 22.7094 37.7C22.7252 37.7 22.7409 37.6969 22.7555 37.6909C22.7701 37.6848 22.7834 37.6759 22.7946 37.6647C22.8058 37.6535 22.8147 37.6403 22.8208 37.6256C22.8268 37.611 22.8299 37.5953 22.8299 37.5795Z" stroke="black" stroke-width="2"/>
<path d="M46.1785 14.8091C46.097 14.6508 46.0757 14.6585 46.1147 14.8322C46.2246 15.3183 46.3424 15.8039 46.468 16.2892C47.1876 19.061 47.9193 21.8298 48.663 24.5957C48.7283 24.8399 48.7896 25.0804 48.8467 25.3171C48.855 25.351 48.8424 25.3735 48.8089 25.3845C47.7218 25.7359 46.6325 26.0927 45.541 26.4551C45.3909 26.5047 45.2373 26.5351 45.0801 26.5461C43.2304 26.6753 41.3799 26.8021 39.5286 26.9266C39.5082 26.9282 39.5003 26.9189 39.505 26.8988C39.684 26.0882 40.0545 25.3065 40.4362 24.438C40.4452 24.4175 40.4407 24.4006 40.4226 24.3872C40.3371 24.3214 40.2304 24.2623 40.1023 24.2099C38.9148 23.7225 37.687 23.3573 36.4404 23.0572C36.4211 23.0525 36.4183 23.0432 36.4321 23.0294C36.9938 22.4622 37.5468 21.8899 38.0911 21.3125C41.2029 18.0109 44.2801 14.6774 47.3229 11.312C47.475 11.1438 47.7153 10.862 48.0438 10.4665C48.056 10.4515 48.0715 10.4415 48.0904 10.4364C49.0913 10.1605 50.5619 9.96135 51.3406 10.8376C51.3544 10.8537 51.3582 10.8515 51.3518 10.8311C51.0198 9.75987 48.7309 10.0198 47.9126 10.1924C47.8937 10.1963 47.8777 10.2056 47.8647 10.2201L36.3175 22.952C36.2812 22.9922 36.2363 23.0072 36.1827 22.9969L35.3302 22.835C35.3259 22.8342 35.3214 22.8351 35.3177 22.8375C35.3139 22.8399 35.3112 22.8437 35.3101 22.848C35.3073 22.8575 35.2991 22.8636 35.2853 22.8664C35.2769 22.868 35.2683 22.867 35.2606 22.8634C35.2529 22.8598 35.2465 22.8539 35.2424 22.8465C35.2383 22.8391 35.2366 22.8306 35.2376 22.8221C35.2386 22.8137 35.2423 22.8058 35.2481 22.7996L47.7885 9.02074C47.8019 9.00617 47.8185 8.99927 47.8382 9.00006L57.2513 9.50936C57.2864 9.51133 57.2919 9.52531 57.2679 9.55131C56.0815 10.8291 54.8919 12.1181 53.6992 13.4183C53.0854 14.0877 53.382 14.6313 54.1536 14.9226C55.4038 15.3949 56.6572 15.8589 57.9137 16.3146C58.2016 16.419 58.419 16.5249 58.5659 16.6325C58.8543 16.8428 59.068 17.0975 59.207 17.3964C59.7387 18.5403 58.8761 19.3834 58.1784 20.1846C57.5308 20.9278 56.7627 21.5193 55.9101 22.0563C53.9958 23.2622 51.9468 24.2211 49.8299 25.0525C49.8102 25.0599 49.7964 25.054 49.7885 25.0347C49.7664 24.9808 49.7448 24.9219 49.7235 24.8581C48.6848 21.7499 47.6107 18.6539 46.5011 15.5701C46.3936 15.2712 46.286 15.0175 46.1785 14.8091Z" fill="#CDA558"/>
<path d="M50.7047 31.0692C50.6907 31.0698 50.6769 31.0658 50.6654 31.0578C50.654 31.0498 50.6456 31.0382 50.6415 31.0249C50.0751 29.1535 49.539 27.2685 49.0333 25.37C49.0055 25.266 49.0061 25.1283 48.9653 24.9783C48.1815 22.0989 47.3959 19.2198 46.6085 16.3409C46.6083 16.3402 46.6084 16.3394 46.6086 16.3387C46.6088 16.3381 46.6092 16.3375 46.6098 16.337C46.6103 16.3365 46.611 16.3362 46.6117 16.336C46.6124 16.3359 46.6131 16.3359 46.6138 16.3361C46.6185 16.3377 46.6232 16.3393 46.628 16.3409C46.628 16.3409 46.6292 16.3446 46.6315 16.3521L51.6631 30.9221C51.6871 30.9918 51.6623 31.0282 51.5886 31.0314L50.7047 31.0692Z" fill="#CDA558"/>
<path d="M26.8761 27.8512C27.0598 27.8228 27.3062 27.8334 27.4362 27.8222C27.8955 27.784 28.3555 27.7515 28.8164 27.7247C29.0994 27.7088 29.6465 27.6467 30.0666 27.6556C30.0863 27.656 30.0997 27.6471 30.1068 27.629C30.4313 26.8006 30.7222 25.9609 30.9794 25.1097C31.0161 24.9888 31.0373 24.8527 31.0433 24.7014C31.0673 24.0641 31.2091 23.4532 31.4687 22.8686C31.4722 22.8605 31.4778 22.8534 31.4848 22.8481C31.4919 22.8427 31.5001 22.8392 31.5088 22.8379C31.6136 22.8206 31.7343 22.8088 31.871 22.8025C33.0893 22.7475 34.2976 22.8031 35.4822 23.0607C37.0432 23.3998 38.7099 23.814 40.1681 24.4757C40.1742 24.4784 40.1797 24.4824 40.1843 24.4873C40.1888 24.4922 40.1923 24.4979 40.1946 24.5042C40.1968 24.5105 40.1978 24.5172 40.1974 24.5239C40.197 24.5306 40.1953 24.5371 40.1923 24.5431C39.5265 25.9002 38.974 27.6526 39.2021 29.1575C39.2322 29.3578 39.3232 29.7206 39.4656 29.9403C39.4896 29.9782 39.4831 30.0136 39.4461 30.0467C39.4317 30.0595 39.4204 30.0757 39.413 30.094C39.2854 30.4006 39.3232 30.8408 39.3669 31.164C39.3697 31.1833 39.3778 31.2 39.3912 31.2142L40.0765 31.9309C40.1021 31.9577 40.0972 31.9657 40.0618 31.9551L38.0943 31.3471C38.0742 31.3408 38.0569 31.3302 38.0423 31.3152C38.0226 31.2947 38.0039 31.2817 37.9862 31.2762C34.2824 30.1442 30.5783 29.0135 26.8737 27.8842C26.8265 27.8697 26.8273 27.8586 26.8761 27.8512Z" fill="#CDA558"/>
<path d="M39.6381 30.096C39.6465 30.0928 39.6542 30.0879 39.6605 30.0815C39.6669 30.0751 39.6718 30.0674 39.6748 30.059C39.6779 30.0506 39.679 30.0417 39.6782 30.0329C39.6773 30.024 39.6745 30.0155 39.67 30.0079C39.1902 29.1914 39.2428 28.054 39.4466 27.1447C39.4553 27.1069 39.4789 27.0868 39.5175 27.0845C42.0266 26.9344 44.5481 26.7883 47.082 26.6461C47.7526 26.6083 48.435 26.6508 49.1198 26.6673C49.1423 26.6681 49.164 26.6758 49.1817 26.6895C49.1994 26.7032 49.2123 26.7221 49.2184 26.7436L50.523 31.1866C50.5281 31.204 50.5214 31.2138 50.5029 31.2162C50.2217 31.2481 49.9418 31.2723 49.6633 31.2889C46.5504 31.4736 43.4401 31.6938 40.3323 31.9494C40.3091 31.9514 40.2894 31.9439 40.2732 31.927L39.537 31.1471C39.5228 31.1325 39.5144 31.1152 39.5116 31.0951C39.4815 30.9042 39.4082 30.1805 39.6381 30.096Z" fill="#CDA558"/>
<path d="M23.0249 38.0467L23.0893 37.4855C23.091 37.4708 23.0881 37.456 23.081 37.4431C23.0739 37.4302 23.063 37.4198 23.0497 37.4134L21.51 36.6689C21.471 36.65 21.4493 36.6622 21.445 36.7055L21.3965 37.1971C21.3942 37.2188 21.404 37.2312 21.4261 37.2343C21.4375 37.2363 21.4479 37.2328 21.4574 37.2237C21.4668 37.2143 21.4723 37.1991 21.4739 37.1782C21.485 37.0549 21.4974 36.9316 21.5111 36.8084C21.5118 36.8026 21.5138 36.797 21.517 36.7922C21.5203 36.7873 21.5246 36.7834 21.5297 36.7806C21.5348 36.7778 21.5405 36.7763 21.5464 36.7762C21.5522 36.7761 21.5579 36.7774 21.5631 36.78L22.9711 37.4825C22.9896 37.4916 22.9971 37.5063 22.9936 37.5268L22.9203 37.9563C22.9163 37.9788 22.9041 37.9851 22.8837 37.9753L21.5147 37.3011C21.4883 37.2881 21.4731 37.2962 21.4692 37.3253L21.429 37.6355C21.4255 37.6631 21.4367 37.6822 21.4627 37.6928L22.8299 38.2506C22.8543 38.2604 22.8685 38.2524 22.8724 38.2264L22.8907 38.1171C22.8939 38.0966 22.9055 38.0838 22.9256 38.0786C22.941 38.0747 22.9593 38.0747 22.9806 38.0786C22.9861 38.1755 22.9652 38.2636 22.9179 38.3428C22.9127 38.3517 22.9043 38.3584 22.8944 38.3618C22.8844 38.3652 22.8735 38.3649 22.8636 38.3611L21.4042 37.7738C21.3834 37.7655 21.366 37.7505 21.3547 37.7311C21.3434 37.7118 21.3388 37.6892 21.3416 37.6668L21.39 37.2834C21.3916 37.2713 21.3894 37.259 21.3836 37.2482C21.3779 37.2374 21.369 37.2286 21.3581 37.2231L20.3289 36.7162C20.3201 36.7119 20.3127 36.7053 20.3074 36.6971C20.3021 36.6889 20.2991 36.6793 20.2988 36.6695C20.2881 36.422 20.3431 36.0775 20.2438 35.8524C20.1587 35.6604 20.0146 35.4548 20.0146 35.2409C20.014 34.7954 19.9555 34.2252 20.0772 33.8146C20.1906 33.4329 20.3478 33.0152 20.8293 33.0388C21.8905 33.0896 22.9569 32.7629 23.702 31.9741C23.8355 31.8329 23.9011 31.7272 23.9436 31.5281C24.1085 30.76 24.1297 29.9062 23.8898 29.15C23.8865 29.1392 23.8798 29.1298 23.8707 29.1231C23.8617 29.1164 23.8508 29.1127 23.8396 29.1127H23.4928C23.4483 29.1127 23.426 29.0905 23.426 29.046V28.1573C23.426 28.1426 23.4316 28.1284 23.4417 28.1176C23.4517 28.1067 23.4656 28.1 23.4804 28.0989L26.59 27.8785C26.6132 27.8769 26.6331 27.884 26.6496 27.8997C26.6985 27.9454 26.7465 27.9758 26.7938 27.9907C30.535 29.1858 34.2818 30.3625 38.0344 31.521C38.0533 31.5269 38.0724 31.5277 38.0917 31.5233C38.126 31.5159 38.1514 31.5145 38.168 31.5192C38.6359 31.6594 39.1243 31.8097 39.6332 31.97C39.675 31.9834 39.6754 31.9978 39.6344 32.0131C39.6068 32.0234 39.5781 32.0265 39.5482 32.0226C39.5237 32.0194 39.5115 32.0301 39.5115 32.0545V33.9729C39.5115 33.9966 39.5227 34.0113 39.5452 34.0173C40.0037 34.1431 40.152 34.5833 40.1786 35.0028C40.201 35.3525 40.214 35.7027 40.2176 36.0533C40.2347 37.7868 39.0483 39.0683 37.3526 39.2349C37.1435 39.2556 36.9562 39.2916 36.7553 39.3141C36.7316 39.3168 36.7198 39.33 36.7198 39.3537V39.4027C36.7198 39.4267 36.7316 39.4378 36.7553 39.4358C37.6528 39.3667 38.2761 39.3247 38.9573 38.907C39.8867 38.3368 40.4291 37.4187 40.5041 36.3215C40.549 35.6621 40.5291 35.091 40.4444 34.6081C40.3838 34.2626 40.1902 33.9867 39.8637 33.7803C39.8444 33.7681 39.8347 33.7506 39.8347 33.7277L39.8371 32.3747C39.8372 32.3611 39.8423 32.348 39.8515 32.3381C39.8607 32.3281 39.8733 32.322 39.8867 32.321C43.3454 32.0488 46.8048 31.7374 50.2647 31.3869C50.4431 31.3685 50.621 31.4199 50.8 31.391C51.1596 31.3327 51.5135 31.2649 51.8617 31.1877C51.8673 31.1865 51.8725 31.1841 51.877 31.1807C51.8815 31.1772 51.8853 31.1729 51.888 31.1679C51.8907 31.163 51.8924 31.1575 51.8929 31.1518C51.8933 31.1462 51.8926 31.1405 51.8907 31.1352L50.3468 26.7813C50.3358 26.7502 50.3468 26.7352 50.3799 26.7364C52.7803 26.8286 55.1736 27.0092 57.5598 27.2782C58.4218 27.3751 59.5225 27.4885 60.3485 27.8909C60.3674 27.8999 60.3772 27.9149 60.378 27.9358L60.6841 35.6864C60.6853 35.7088 60.6766 35.7267 60.6581 35.7401C59.6531 36.4598 58.4011 36.9047 57.1527 36.6991C57.055 36.6829 56.9638 36.6859 56.8791 36.7079C56.1429 36.8999 54.4526 37.4246 54.2186 38.2411C54.0658 38.7745 53.9082 39.306 53.7459 39.8358C53.74 39.8551 53.7288 39.8707 53.7122 39.8825C53.2577 40.2055 52.7604 40.426 52.2204 40.5442C52.0165 40.5885 51.7991 40.5885 51.577 40.5968C51.5565 40.5976 51.5454 40.6082 51.5439 40.6287L51.4742 41.6768C51.4726 41.6977 51.4614 41.7097 51.4405 41.7129C50.2052 41.9 48.9714 42.0849 47.7389 42.2677C47.5321 42.2984 47.3424 42.2671 47.19 42.2883C43.6044 42.7949 40.0214 43.3186 36.441 43.8594C36.4 43.8657 36.3797 43.8895 36.3801 43.9309C36.3801 43.936 36.3789 43.9421 36.3766 43.9492C36.3751 43.9531 36.3726 43.9566 36.3693 43.9593C36.366 43.962 36.362 43.9638 36.3576 43.9645L36.0398 44.0094C36.0205 44.0122 36.0108 44.0232 36.0108 44.0425V45.0623C36.0108 45.0808 36.002 45.0928 35.9842 45.0984C35.4312 45.2693 34.8648 45.3343 34.285 45.2933C34.2661 45.2922 34.2572 45.2821 34.2584 45.2632L34.3535 43.6697C34.354 43.6605 34.3518 43.6513 34.347 43.6434C34.3423 43.6355 34.3353 43.6292 34.3269 43.6254L34.2123 43.5722C34.193 43.5632 34.1834 43.5695 34.1834 43.5911C34.1846 43.8519 34.1664 44.2139 34.129 44.6771C34.0825 45.2526 34.042 46.2718 34.0073 47.7347C33.9707 49.2714 33.898 50.8868 33.8773 52.1405C33.8734 52.3603 33.861 52.5334 33.8401 52.6599C33.8362 52.6835 33.8448 52.7008 33.8661 52.7119L34.7246 53.1662C34.7275 53.1677 34.7299 53.1702 34.7314 53.1732C34.7328 53.1762 34.7332 53.1796 34.7325 53.1829C34.7319 53.1862 34.7302 53.1892 34.7277 53.1914C34.7252 53.1936 34.722 53.1949 34.7187 53.1952C34.3957 53.2133 34.0691 53.2387 33.7391 53.2714C33.6032 53.2856 33.4631 53.2838 33.3231 53.337C33.3114 53.3413 33.3017 53.3496 33.2956 53.3604C33.2894 53.3711 33.2873 53.3838 33.2896 53.396C33.2918 53.4083 33.2983 53.4194 33.3079 53.4275C33.3174 53.4356 33.3295 53.4402 33.342 53.4404C33.612 53.4421 33.8584 53.3848 34.1237 53.3795C34.373 53.3748 34.6005 53.308 34.854 53.324C34.8823 53.3259 34.8961 53.3411 34.8953 53.3695L34.8611 54.9092C34.8607 54.9328 34.8514 54.9523 34.8333 54.9677C34.7021 55.0793 34.5863 55.0397 34.4445 55.0492C34.1794 55.0669 33.9145 55.0856 33.6498 55.1053C33.5057 55.116 33.2439 55.1863 33.0903 55.149C32.9603 55.1175 32.7801 55.0374 32.5497 54.9086C32.5273 54.896 32.5251 54.8804 32.5432 54.8619L32.5769 54.8282C32.5807 54.8244 32.5832 54.8194 32.584 54.814L32.6933 53.9709C32.6964 53.9453 32.6864 53.9272 32.6632 53.9166L32.1976 53.7021C32.1779 53.693 32.16 53.6956 32.1438 53.7098C32.015 53.8197 32.0723 53.978 31.989 54.121C31.9787 54.1386 31.9628 54.1524 31.9439 54.1601C31.925 54.1679 31.9041 54.1692 31.8844 54.1639C31.8647 54.1586 31.8474 54.1469 31.8351 54.1307C31.8228 54.1145 31.8163 54.0947 31.8165 54.0743C31.8183 53.8669 31.8578 53.5686 31.6546 53.425C31.5463 53.3486 31.4462 53.2757 31.3545 53.2064C31.3418 53.1967 31.3264 53.1911 31.3106 53.1903C31.2947 53.1896 31.2791 53.1938 31.2658 53.2022C31.2284 53.2259 31.2154 53.2607 31.2268 53.3068C31.2314 53.3253 31.23 53.3447 31.2227 53.3624C31.1861 53.4502 31.1668 53.541 31.1648 53.6347C31.164 53.6572 31.1526 53.6694 31.1305 53.6714L30.9314 53.6903C30.9242 53.6909 30.9169 53.6898 30.9101 53.6873C30.9033 53.6847 30.8972 53.6806 30.8922 53.6753C30.8872 53.67 30.8835 53.6637 30.8813 53.6568C30.8791 53.6499 30.8784 53.6425 30.8794 53.6353L30.9521 53.1065C30.9538 53.0938 30.9513 53.0809 30.9451 53.0697C30.9388 53.0585 30.929 53.0496 30.9172 53.0445L30.4635 52.8466C30.4521 52.8417 30.4394 52.8411 30.4277 52.8449C30.4159 52.8487 30.406 52.8566 30.3997 52.8672C30.3457 52.9574 30.3262 53.0549 30.3412 53.1597C30.3417 53.1637 30.3414 53.1678 30.3401 53.1716C30.3389 53.1754 30.3368 53.1789 30.334 53.1818C30.3312 53.1847 30.3278 53.1869 30.324 53.1883C30.3203 53.1897 30.3162 53.1902 30.3122 53.1898C30.304 53.1891 30.2969 53.1857 30.291 53.1798C30.2862 53.1755 30.2837 53.169 30.2833 53.1603C30.2695 52.8074 30.2801 52.455 30.3152 52.1033C30.3175 52.0785 30.3299 52.0714 30.3524 52.082L31.5388 52.6439C31.552 52.6501 31.5669 52.6517 31.5811 52.6485C31.5954 52.6453 31.6081 52.6375 31.6174 52.6262C31.6544 52.5797 31.6408 52.5415 31.5766 52.5116C31.1894 52.3296 30.8032 52.1454 30.418 51.9591C30.3955 51.9481 30.3959 51.9385 30.4192 51.9302L30.9899 51.724C30.9986 51.7209 31.008 51.7206 31.0169 51.7233C31.0257 51.726 31.0334 51.7314 31.0389 51.7388L31.0927 51.8114C31.1013 51.8233 31.1135 51.832 31.1274 51.8365C31.1413 51.8409 31.1563 51.8408 31.1702 51.8361C31.1841 51.8315 31.1962 51.8225 31.2048 51.8105C31.2134 51.7986 31.218 51.7842 31.218 51.7695L31.137 42.1477C31.1367 42.1193 31.1285 42.0914 31.1133 42.0674C31.0982 42.0433 31.0768 42.0239 31.0514 42.0112L28.1521 40.5779C28.1477 40.5757 28.1429 40.5746 28.138 40.5748C28.1331 40.5749 28.1283 40.5762 28.1241 40.5786C28.1199 40.581 28.1163 40.5844 28.1138 40.5885C28.1113 40.5926 28.1098 40.5973 28.1096 40.6021L27.5554 49.5444C27.5551 49.5514 27.5521 49.558 27.547 49.5629C27.542 49.5677 27.5352 49.5704 27.5282 49.5704H26.8115C26.7895 49.5708 26.7692 49.5649 26.7507 49.5527L26.1262 49.1432C26.1159 49.1367 26.1075 49.1277 26.1015 49.1171C26.0955 49.1065 26.0922 49.0946 26.0919 49.0824L25.7315 39.5687C25.7307 39.5459 25.7394 39.5274 25.7575 39.5132C25.7866 39.49 25.7939 39.463 25.7793 39.4323C25.7703 39.4126 25.75 39.3948 25.7185 39.3791C24.8385 38.9383 23.9407 38.4942 23.0249 38.0467ZM21.7611 34.9118L34.545 40.65C34.5666 40.6598 34.5782 40.6527 34.5798 40.6287C34.6192 40.0418 34.8296 39.5262 35.2108 39.0819C35.251 39.035 35.2421 39.0007 35.1842 38.9791C31.1977 37.4988 27.2426 36.0312 23.3191 34.5762C23.2234 34.5407 23.1231 34.5246 23.0184 34.5277C22.6028 34.5403 22.1857 34.5386 21.767 34.5224C21.7406 34.5212 21.7274 34.5338 21.7274 34.5602V34.8598C21.7274 34.8846 21.7386 34.9019 21.7611 34.9118ZM34.5054 42.4945L20.873 35.8997C20.8695 35.8977 20.8665 35.8983 20.8642 35.9014C20.8591 35.9089 20.8581 35.9136 20.8612 35.9156C21.3319 36.2016 21.8144 36.4661 22.3088 36.7091C26.4296 38.738 30.5539 40.766 34.6814 42.7929C34.6846 42.7944 34.6881 42.7951 34.6915 42.795C34.695 42.7948 34.6984 42.7938 34.7013 42.7921C34.7043 42.7903 34.7067 42.7878 34.7084 42.7849C34.7101 42.7819 34.711 42.7786 34.711 42.7752V41.6544C34.711 41.6335 34.7015 41.6187 34.6826 41.6101L21.429 35.5056C21.428 35.5052 21.427 35.505 21.426 35.5052C21.4249 35.5053 21.4239 35.5056 21.4231 35.5062C21.4222 35.5068 21.4215 35.5076 21.421 35.5085C21.4205 35.5094 21.4202 35.5104 21.4202 35.5115C21.4206 35.5182 21.4235 35.5231 21.429 35.5262C22.5782 36.1838 23.7912 36.7416 24.9923 37.31C28.16 38.8095 31.3312 40.3018 34.506 41.7867C34.5245 41.7954 34.5337 41.81 34.5337 41.8305V42.4768C34.5338 42.4801 34.533 42.4834 34.5314 42.4863C34.5298 42.4891 34.5275 42.4916 34.5247 42.4934C34.5218 42.4951 34.5186 42.4962 34.5152 42.4964C34.5118 42.4966 34.5085 42.496 34.5054 42.4945ZM21.9141 37.1699C21.9141 37.1366 21.9008 37.1046 21.8772 37.081C21.8536 37.0574 21.8216 37.0441 21.7882 37.0441C21.7549 37.0441 21.7229 37.0574 21.6993 37.081C21.6757 37.1046 21.6624 37.1366 21.6624 37.1699C21.6624 37.2033 21.6757 37.2353 21.6993 37.2589C21.7229 37.2825 21.7549 37.2958 21.7882 37.2958C21.8216 37.2958 21.8536 37.2825 21.8772 37.2589C21.9008 37.2353 21.9141 37.2033 21.9141 37.1699ZM22.4039 37.3927C22.4039 37.3609 22.3913 37.3304 22.3688 37.3079C22.3463 37.2854 22.3158 37.2727 22.284 37.2727C22.2521 37.2727 22.2216 37.2854 22.1991 37.3079C22.1767 37.3304 22.164 37.3609 22.164 37.3927C22.164 37.4245 22.1767 37.455 22.1991 37.4775C22.2216 37.5 22.2521 37.5126 22.284 37.5126C22.3158 37.5126 22.3463 37.5 22.3688 37.4775C22.3913 37.455 22.4039 37.4245 22.4039 37.3927ZM22.8293 37.5788C22.8293 37.5468 22.8166 37.5162 22.794 37.4936C22.7714 37.471 22.7407 37.4583 22.7088 37.4583C22.6768 37.4583 22.6461 37.471 22.6235 37.4936C22.6009 37.5162 22.5882 37.5468 22.5882 37.5788C22.5882 37.5946 22.5914 37.6103 22.5974 37.6249C22.6035 37.6396 22.6123 37.6528 22.6235 37.664C22.6347 37.6752 22.648 37.6841 22.6626 37.6902C22.6773 37.6962 22.6929 37.6993 22.7088 37.6993C22.7246 37.6993 22.7403 37.6962 22.7549 37.6902C22.7695 37.6841 22.7828 37.6752 22.794 37.664C22.8052 37.6528 22.8141 37.6396 22.8201 37.6249C22.8262 37.6103 22.8293 37.5946 22.8293 37.5788ZM32.2395 51.8546L32.6874 52.0661C32.6949 52.0697 32.7033 52.0714 32.7116 52.071C32.72 52.0706 32.7281 52.0682 32.7353 52.0638C32.7425 52.0595 32.7484 52.0534 32.7527 52.0462C32.7569 52.0389 32.7592 52.0307 32.7595 52.0224C32.8032 50.654 32.8243 49.2821 32.8227 47.9066C32.8221 47.4203 32.8569 46.8006 32.8439 46.2469C32.8197 45.2094 32.8215 44.5353 32.8203 43.678C32.8197 43.4186 32.9172 43.1941 32.8091 42.9028C32.8024 42.8851 32.7906 42.8721 32.7736 42.8638L32.5338 42.7474C32.5082 42.7348 32.4942 42.7429 32.4918 42.7717C32.4599 43.1742 32.4345 43.5647 32.4156 43.9433C32.3796 44.6582 32.4109 45.5563 32.376 46.3645C32.3276 47.483 32.301 48.6174 32.2909 49.7364C32.2844 50.4371 32.2253 51.1373 32.2289 51.8374C32.2289 51.8409 32.2299 51.8444 32.2317 51.8474C32.2336 51.8504 32.2363 51.8529 32.2395 51.8546Z" fill="#CDA558"/>
<path d="M34.5451 40.6511L21.7612 34.9129C21.7388 34.903 21.7275 34.8857 21.7275 34.8609V34.5613C21.7275 34.5349 21.7407 34.5223 21.7671 34.5235C22.1858 34.5397 22.603 34.5414 23.0185 34.5288C23.1233 34.5257 23.2235 34.5418 23.3192 34.5773C27.2428 36.0323 31.1978 37.4999 35.1844 38.9802C35.2423 39.0018 35.2512 39.0361 35.211 39.083C34.8297 39.5273 34.6194 40.0429 34.58 40.6298C34.5784 40.6538 34.5668 40.6609 34.5451 40.6511Z" fill="black"/>
<path d="M34.5053 42.4953C34.5084 42.4967 34.5118 42.4973 34.5152 42.4971C34.5185 42.4969 34.5218 42.4959 34.5246 42.4941C34.5275 42.4923 34.5298 42.4899 34.5314 42.487C34.5329 42.4841 34.5337 42.4809 34.5337 42.4776V41.8312C34.5337 41.8107 34.5244 41.7961 34.5059 41.7875C31.3312 40.3025 28.16 38.8103 24.9923 37.3107C23.7911 36.7423 22.5781 36.1846 21.429 35.527C21.4235 35.5238 21.4205 35.5189 21.4201 35.5122C21.4201 35.5112 21.4204 35.5101 21.4209 35.5092C21.4214 35.5083 21.4221 35.5075 21.423 35.507C21.4239 35.5064 21.4249 35.506 21.4259 35.5059C21.4269 35.5058 21.428 35.5059 21.429 35.5063L34.6826 41.6108C34.7015 41.6195 34.7109 41.6342 34.7109 41.6551V42.7759C34.7109 42.7793 34.71 42.7827 34.7084 42.7856C34.7067 42.7885 34.7042 42.791 34.7013 42.7928C34.6983 42.7946 34.695 42.7956 34.6915 42.7957C34.688 42.7959 34.6845 42.7952 34.6814 42.7937C30.5538 40.7667 26.4296 38.7388 22.3087 36.7098C21.8144 36.4668 21.3319 36.2023 20.8612 35.9163C20.858 35.9144 20.859 35.9096 20.8641 35.9022C20.8665 35.899 20.8694 35.8984 20.873 35.9004L34.5053 42.4953Z" fill="black"/>
<path d="M23.0252 38.0486C23.0555 38.0533 23.0407 38.0639 22.9809 38.0805C22.9596 38.0765 22.9413 38.0765 22.9259 38.0805C22.9058 38.0856 22.8942 38.0984 22.891 38.1189L22.8727 38.2282C22.8688 38.2542 22.8546 38.2622 22.8302 38.2524L21.463 37.6946C21.437 37.684 21.4258 37.6649 21.4293 37.6373L21.4695 37.3271C21.4734 37.298 21.4886 37.2899 21.515 37.3029L22.884 37.9771C22.9044 37.9869 22.9167 37.9806 22.9206 37.9582L22.9939 37.5286C22.9974 37.5081 22.9899 37.4934 22.9714 37.4843L21.5634 36.7818C21.5582 36.7792 21.5525 36.7779 21.5467 36.778C21.5408 36.7781 21.5351 36.7796 21.53 36.7824C21.5249 36.7852 21.5206 36.7891 21.5173 36.794C21.5141 36.7988 21.5121 36.8044 21.5114 36.8102C21.4977 36.9334 21.4853 37.0567 21.4742 37.18C21.4727 37.2009 21.4671 37.2161 21.4577 37.2255C21.4482 37.2346 21.4378 37.2381 21.4264 37.2362C21.4043 37.233 21.3945 37.2206 21.3968 37.1989L21.4453 36.7074C21.4496 36.664 21.4713 36.6518 21.5103 36.6707L23.05 37.4152C23.0633 37.4216 23.0742 37.432 23.0813 37.4449C23.0884 37.4578 23.0913 37.4726 23.0896 37.4873L23.0252 38.0486Z" fill="black"/>
<path d="M55.3008 47.2456C55.2559 47.2358 55.2314 47.2078 55.2275 47.1617L54.4836 38.0865C54.4821 38.066 54.4884 38.0483 54.5025 38.0333C55.0656 37.4454 56.0824 37.0951 56.883 36.8859C57.0715 36.8363 57.2316 36.8806 57.4195 36.9025C57.4577 36.9068 57.4677 36.9257 57.4496 36.9592C57.3687 37.1098 57.3167 37.2375 57.3043 37.4177C57.0786 40.7799 56.8501 44.142 56.6189 47.5038C56.6173 47.5239 56.6067 47.5318 56.587 47.5274L55.3008 47.2456Z" fill="#CDA558"/>
<path d="M21.788 37.2966C21.8575 37.2966 21.9138 37.2403 21.9138 37.1708C21.9138 37.1013 21.8575 37.0449 21.788 37.0449C21.7185 37.0449 21.6621 37.1013 21.6621 37.1708C21.6621 37.2403 21.7185 37.2966 21.788 37.2966Z" fill="black"/>
<path d="M22.284 37.5133C22.3502 37.5133 22.4039 37.4596 22.4039 37.3934C22.4039 37.3271 22.3502 37.2734 22.284 37.2734C22.2178 37.2734 22.1641 37.3271 22.1641 37.3934C22.1641 37.4596 22.2178 37.5133 22.284 37.5133Z" fill="black"/>
<path d="M22.7094 37.702C22.776 37.702 22.8299 37.648 22.8299 37.5815C22.8299 37.5149 22.776 37.4609 22.7094 37.4609C22.6428 37.4609 22.5889 37.5149 22.5889 37.5815C22.5889 37.648 22.6428 37.702 22.7094 37.702Z" fill="black"/>
<path d="M36.6291 44.0831C36.6281 44.0826 36.6272 44.0818 36.6267 44.0808C36.6261 44.0799 36.6259 44.0787 36.626 44.0776C36.6261 44.0765 36.6266 44.0755 36.6274 44.0746C36.6281 44.0738 36.6291 44.0732 36.6303 44.073L47.3545 42.4583C47.3959 42.452 47.4163 42.4697 47.4159 42.5114L47.4106 43.1283C47.4106 43.1347 47.4092 43.141 47.4066 43.1468C47.404 43.1526 47.4003 43.1579 47.3957 43.1622C47.391 43.1665 47.3855 43.1698 47.3796 43.1719C47.3736 43.174 47.3673 43.1748 47.361 43.1744C46.6165 43.1224 45.9481 43.3079 45.3557 43.7309C44.7345 44.1748 44.2386 44.7359 43.868 45.4142C43.8227 45.4965 43.7979 45.5873 43.7935 45.6866C43.593 50.3105 43.3886 54.9343 43.1802 59.5582C43.1799 59.5668 43.1771 59.575 43.1722 59.582C43.1672 59.5889 43.1604 59.5942 43.1525 59.5972C42.8496 59.7142 42.5475 59.8316 42.2461 59.9493C42.2249 59.9576 42.2056 59.97 42.1882 59.9866C42.1798 59.9946 42.1691 59.999 42.1581 59.999H41.5111C41.4899 59.999 41.4702 59.9935 41.4521 59.9824L40.9776 59.6971C40.9603 59.6864 40.9498 59.6713 40.9463 59.6516C40.9333 59.5811 40.9244 59.4802 40.9197 59.3491C40.8366 57.0767 40.6529 52.483 40.3685 45.5678C40.3531 45.1873 40.0801 44.7312 39.9366 44.3732C39.9271 44.3491 39.9096 44.3393 39.884 44.3436L37.9998 44.6538C37.9805 44.657 37.9618 44.6548 37.9437 44.6473L36.6291 44.0831Z" fill="#CDA558"/>
<path d="M30.5702 53.1679L30.5141 53.1567C30.5094 53.1557 30.5049 53.1538 30.501 53.151C30.4971 53.1483 30.4937 53.1447 30.4913 53.1406C30.4888 53.1365 30.4871 53.1319 30.4865 53.1272C30.4858 53.1224 30.4862 53.1176 30.4875 53.113L30.5005 53.0686C30.508 53.0423 30.5241 53.0348 30.549 53.0462L30.7693 53.1484C30.7851 53.1559 30.7918 53.1683 30.7894 53.1856L30.738 53.6051C30.7367 53.6169 30.7313 53.6279 30.7228 53.6362C30.7143 53.6445 30.7032 53.6496 30.6914 53.6506C29.98 53.7152 29.2667 53.7422 28.5513 53.7316C28.4698 53.7304 28.3759 53.6908 28.2991 53.6654C28.2802 53.6595 28.2695 53.6465 28.2672 53.6264C28.224 53.2453 28.7487 53.4214 28.936 53.4497C29.3476 53.5116 29.7754 53.4893 30.2193 53.383C30.3841 53.3434 30.4385 53.2488 30.572 53.2099C30.5765 53.2083 30.5804 53.2054 30.583 53.2015C30.5857 53.1976 30.5871 53.1929 30.5869 53.1882C30.5867 53.1835 30.5849 53.1789 30.5819 53.1753C30.5789 53.1716 30.5748 53.169 30.5702 53.1679Z" fill="#CDA558"/>
<path d="M31.4972 53.7984C31.5124 53.7986 31.527 53.7927 31.5379 53.782C31.5488 53.7714 31.5549 53.7569 31.5551 53.7417C31.5553 53.7265 31.5494 53.7119 31.5387 53.701C31.5281 53.6901 31.5136 53.6839 31.4984 53.6838L31.3513 53.6749C31.3472 53.6747 31.3432 53.6737 31.3396 53.6718C31.336 53.67 31.3328 53.6674 31.3302 53.6643C31.3276 53.6611 31.3256 53.6574 31.3245 53.6535C31.3233 53.6495 31.323 53.6454 31.3235 53.6413L31.3501 53.4286C31.3507 53.4245 31.3523 53.4207 31.3548 53.4175C31.3572 53.4143 31.3605 53.4117 31.3642 53.4101C31.3678 53.4085 31.3719 53.4079 31.3758 53.4083C31.3798 53.4088 31.3835 53.4102 31.3867 53.4126L31.616 53.5828C31.6313 53.5942 31.639 53.6093 31.639 53.6283V54.0147C31.639 54.032 31.6303 54.041 31.613 54.0418C31.3739 54.0493 31.1354 54.0625 30.8975 54.0814C30.7648 54.0925 30.5725 54.1236 30.3208 54.1748C30.129 54.2142 29.9352 54.2427 29.7395 54.2604C29.5498 54.277 29.3755 54.225 29.1876 54.196C29.1802 54.1949 29.1733 54.1915 29.1677 54.1864C29.1622 54.1813 29.1582 54.1747 29.1564 54.1674C29.1546 54.1601 29.155 54.1525 29.1575 54.1454C29.16 54.1383 29.1645 54.1321 29.1705 54.1275C29.3958 53.955 29.6571 53.864 29.9545 53.8545C30.478 53.8376 30.9922 53.8189 31.4972 53.7984Z" fill="#CDA558"/>
<path d="M32.3168 54.09C32.2805 54.0695 32.2453 54.0709 32.211 54.0941C32.2061 54.0974 32.2004 54.0992 32.1944 54.0992C32.1885 54.0992 32.1827 54.0975 32.1778 54.0942C32.1729 54.0909 32.1691 54.0862 32.167 54.0807C32.1648 54.0752 32.1643 54.0692 32.1655 54.0634L32.1903 53.9452C32.1919 53.9375 32.1952 53.9302 32.1999 53.9239C32.2046 53.9176 32.2106 53.9125 32.2176 53.9087C32.2245 53.905 32.2321 53.9029 32.24 53.9024C32.2479 53.902 32.2557 53.9033 32.263 53.9062L32.4816 53.996C32.5033 54.0051 32.5155 54.021 32.5182 54.0439C32.5446 54.2578 32.5218 54.4659 32.4497 54.6684C32.4483 54.6726 32.446 54.6764 32.4429 54.6796C32.4398 54.6828 32.4361 54.6853 32.432 54.6869C32.4278 54.6885 32.4233 54.6892 32.4189 54.689C32.4144 54.6888 32.41 54.6876 32.406 54.6855L32.2459 54.6004C32.2412 54.5979 32.2376 54.5936 32.2358 54.5886C32.234 54.5835 32.2341 54.5779 32.2362 54.573C32.2382 54.568 32.242 54.5639 32.2469 54.5616C32.2517 54.5593 32.2572 54.5588 32.2624 54.5603C32.3235 54.5784 32.3782 54.5731 32.4267 54.5443C32.4367 54.5382 32.4446 54.5291 32.4492 54.5182C32.4537 54.5073 32.4546 54.4953 32.4519 54.4839C32.4491 54.4725 32.4427 54.4623 32.4337 54.4549C32.4247 54.4475 32.4135 54.4432 32.4018 54.4427C31.8713 54.4179 31.6314 54.6761 31.1948 54.8746C31.0134 54.9567 30.6772 54.9555 30.5443 54.7889C30.5387 54.782 30.5352 54.7737 30.5344 54.7648C30.5335 54.756 30.5353 54.7471 30.5395 54.7393C30.7481 54.3375 31.3301 54.3446 31.7123 54.3239C31.9221 54.3127 32.1076 54.2572 32.302 54.2052C32.3141 54.202 32.3249 54.1953 32.3332 54.1859C32.3414 54.1766 32.3467 54.1649 32.3483 54.1526C32.3498 54.1402 32.3477 54.1276 32.3421 54.1164C32.3365 54.1053 32.3277 54.0961 32.3168 54.09Z" fill="#CDA558"/>
<path d="M15.7042 68.06C17.2242 68.06 18.5376 68.3467 19.6442 68.92C20.7642 69.48 21.6176 70.2867 22.2042 71.34C22.8042 72.3933 23.1042 73.6333 23.1042 75.06C23.1042 76.4867 22.8042 77.7267 22.2042 78.78C21.6176 79.82 20.7642 80.62 19.6442 81.18C18.5376 81.7267 17.2242 82 15.7042 82H11.3642V68.06H15.7042ZM15.7042 80.5C17.5042 80.5 18.8776 80.0267 19.8242 79.08C20.7709 78.12 21.2442 76.78 21.2442 75.06C21.2442 73.3267 20.7642 71.9733 19.8042 71C18.8576 70.0267 17.4909 69.54 15.7042 69.54H13.1842V80.5H15.7042ZM36.0648 72.1C35.6782 71.2867 35.1182 70.66 34.3848 70.22C33.6515 69.7667 32.7982 69.54 31.8248 69.54C30.8515 69.54 29.9715 69.7667 29.1848 70.22C28.4115 70.66 27.7982 71.3 27.3448 72.14C26.9048 72.9667 26.6848 73.9267 26.6848 75.02C26.6848 76.1133 26.9048 77.0733 27.3448 77.9C27.7982 78.7267 28.4115 79.3667 29.1848 79.82C29.9715 80.26 30.8515 80.48 31.8248 80.48C33.1848 80.48 34.3048 80.0733 35.1848 79.26C36.0648 78.4467 36.5782 77.3467 36.7248 75.96H31.1648V74.48H38.6648V75.88C38.5582 77.0267 38.1982 78.08 37.5848 79.04C36.9715 79.9867 36.1648 80.74 35.1648 81.3C34.1648 81.8467 33.0515 82.12 31.8248 82.12C30.5315 82.12 29.3515 81.82 28.2848 81.22C27.2182 80.6067 26.3715 79.76 25.7448 78.68C25.1315 77.6 24.8248 76.38 24.8248 75.02C24.8248 73.66 25.1315 72.44 25.7448 71.36C26.3715 70.2667 27.2182 69.42 28.2848 68.82C29.3515 68.2067 30.5315 67.9 31.8248 67.9C33.3048 67.9 34.6115 68.2667 35.7448 69C36.8915 69.7333 37.7248 70.7667 38.2448 72.1H36.0648ZM48.0513 74.82C48.5579 74.9 49.0179 75.1067 49.4313 75.44C49.8579 75.7733 50.1913 76.1867 50.4313 76.68C50.6846 77.1733 50.8113 77.7 50.8113 78.26C50.8113 78.9667 50.6313 79.6067 50.2713 80.18C49.9113 80.74 49.3846 81.1867 48.6913 81.52C48.0113 81.84 47.2046 82 46.2713 82H41.0713V68.06H46.0713C47.0179 68.06 47.8246 68.22 48.4913 68.54C49.1579 68.8467 49.6579 69.2667 49.9913 69.8C50.3246 70.3333 50.4913 70.9333 50.4913 71.6C50.4913 72.4267 50.2646 73.1133 49.8112 73.66C49.3713 74.1933 48.7846 74.58 48.0513 74.82ZM42.8913 74.08H45.9513C46.8046 74.08 47.4646 73.88 47.9313 73.48C48.3979 73.08 48.6313 72.5267 48.6313 71.82C48.6313 71.1133 48.3979 70.56 47.9313 70.16C47.4646 69.76 46.7913 69.56 45.9113 69.56H42.8913V74.08ZM46.1113 80.5C47.0179 80.5 47.7246 80.2867 48.2313 79.86C48.7379 79.4333 48.9913 78.84 48.9913 78.08C48.9913 77.3067 48.7246 76.7 48.1913 76.26C47.6579 75.8067 46.9446 75.58 46.0513 75.58H42.8913V80.5H46.1113ZM52.5569 69.2V67.54H56.3169V82H54.4769V69.2H52.5569ZM67.3031 82L61.5631 75.64V82H59.7431V68.06H61.5631V74.52L67.3231 68.06H69.6231L63.3031 75.04L69.6831 82H67.3031Z" fill="#CDA558"/>
<rect x="0.5" y="89.5" width="89" height="79" rx="13.5" transform="rotate(-90 0.5 89.5)" stroke="#CDA558"/>
</svg>
