<svg width="80" height="90" viewBox="0 0 80 90" fill="none" xmlns="http://www.w3.org/2000/svg">
<path d="M22.6069 34.6645L35.0253 39.4296C35.0528 39.4401 35.0675 39.4325 35.0695 39.407C35.1096 38.9228 35.3138 38.4973 35.682 38.1306C35.721 38.0917 35.7124 38.0632 35.6562 38.0452C31.7831 36.8157 27.9402 35.5967 24.1276 34.3882C24.0346 34.3588 23.9372 34.3453 23.8354 34.348C23.4293 34.3584 23.0216 34.3568 22.6121 34.3431C22.5914 34.3424 22.5811 34.3509 22.5811 34.3686V34.6301C22.5811 34.6462 22.5897 34.6576 22.6069 34.6645Z" stroke="#808080" stroke-width="2"/>
<path d="M35.0235 40.9607C35.0235 40.9624 35.023 40.9642 35.022 40.9657C35.021 40.9672 35.0196 40.9685 35.0179 40.9694C35.0162 40.9704 35.0142 40.9709 35.0122 40.971C35.0102 40.9711 35.0081 40.9708 35.0063 40.97C30.9931 39.3094 26.9951 37.6552 23.0122 36.0077C22.5058 35.7979 22.0891 35.6296 21.7618 35.5027C21.7606 35.5023 21.7593 35.5023 21.7581 35.5027C21.757 35.5031 21.756 35.5039 21.7554 35.5049C21.7549 35.5058 21.7547 35.5069 21.7551 35.508C21.7554 35.509 21.7562 35.5099 21.7572 35.5105C21.9819 35.6214 22.2044 35.731 22.4249 35.8393C22.6465 35.9483 22.8803 36.0544 23.1264 36.1578C27.135 37.8424 31.1493 39.5269 35.1693 41.2115C35.1722 41.2126 35.1755 41.2132 35.1787 41.213C35.1819 41.2129 35.185 41.2121 35.1877 41.2107C35.1904 41.2092 35.1926 41.2072 35.1941 41.2049C35.1956 41.2026 35.1964 41.1999 35.1963 41.1972V40.2673C35.1963 40.2499 35.1871 40.2377 35.1688 40.2305L22.2366 35.1386C22.2356 35.1383 22.2345 35.1384 22.2335 35.1388C22.2326 35.1392 22.2318 35.1398 22.2313 35.1406C22.2309 35.1414 22.2307 35.1423 22.2309 35.1432C22.2312 35.1441 22.2317 35.1449 22.2326 35.1454C22.7753 35.4209 23.3304 35.6741 23.898 35.9051C27.59 37.4061 31.2888 38.896 34.9942 40.3748C35.0141 40.3826 35.0241 40.396 35.0241 40.415L35.0235 40.9607Z" stroke="#808080" stroke-width="2"/>
<path d="M46.3379 17.9678C46.2591 17.837 46.2386 17.8434 46.2765 17.987C46.3833 18.3914 46.4977 18.7951 46.6198 19.1981C47.319 21.5004 48.0299 23.8001 48.7525 26.0975C48.816 26.3003 48.8759 26.5018 48.9322 26.702C48.935 26.7123 48.9332 26.723 48.9272 26.7321C48.9213 26.7412 48.9116 26.748 48.9 26.7511C47.8403 27.0436 46.78 27.3405 45.7191 27.6418C45.5733 27.683 45.424 27.7082 45.2713 27.7174C43.4737 27.8247 41.6757 27.93 39.8773 28.0334C39.8574 28.0347 39.8497 28.027 39.8543 28.0104C40.0283 27.3371 40.3882 26.6878 40.7591 25.9664C40.7679 25.9494 40.7635 25.9353 40.7459 25.9242C40.6628 25.8696 40.5591 25.8205 40.4347 25.777C39.2808 25.3721 38.0879 25.0689 36.8766 24.8196C36.8579 24.8156 36.8554 24.808 36.8691 24.7965C37.4168 24.3231 37.9563 23.8456 38.4875 23.364C41.5086 20.6237 44.4963 17.8571 47.4505 15.0641C47.599 14.9238 47.8326 14.6895 48.1514 14.3614C48.1633 14.349 48.1784 14.3406 48.1968 14.3364C48.8206 14.1901 49.4561 14.1322 50.1033 14.1626C50.6046 14.1865 51.0216 14.3553 51.3542 14.6691C51.3553 14.67 51.3567 14.6706 51.3582 14.6708C51.3598 14.671 51.3613 14.6707 51.3626 14.67C51.364 14.6693 51.365 14.6683 51.3655 14.667C51.3661 14.6658 51.3661 14.6645 51.3657 14.6632C50.9196 13.7637 48.8788 13.9796 48.0228 14.1347C48.0045 14.1379 47.9892 14.1455 47.9769 14.1572L36.7538 24.7352C36.7208 24.7666 36.6801 24.7783 36.6315 24.7705L35.8364 24.6414C35.8176 24.6385 35.8 24.6408 35.7836 24.6483L35.7606 24.6591C35.7526 24.6627 35.7434 24.6637 35.7345 24.6621C35.7257 24.6605 35.7178 24.6563 35.7122 24.6502C35.7066 24.6442 35.7038 24.6367 35.7041 24.6291C35.7045 24.6214 35.708 24.6142 35.7141 24.6085C39.7789 20.7916 43.8432 16.9744 47.9069 13.1571C47.9168 13.1476 47.9293 13.1432 47.9442 13.1439L57.1087 13.5674C57.1122 13.5676 57.1156 13.5687 57.1185 13.5705C57.1213 13.5723 57.1235 13.5747 57.1249 13.5775C57.1262 13.5803 57.1265 13.5834 57.1259 13.5864C57.1253 13.5893 57.1237 13.5921 57.1213 13.5944C55.9648 14.6589 54.8063 15.732 53.6459 16.8136C53.0494 17.3696 53.3376 17.8211 54.0874 18.063C55.3021 18.4553 56.5199 18.8407 57.7408 19.2192C58.0205 19.3059 58.2318 19.3939 58.3745 19.4833C58.6547 19.658 58.8623 19.8695 58.9974 20.1178C59.5141 21.0679 58.6759 21.7681 57.9979 22.4336C57.3688 23.0509 56.6225 23.5422 55.7941 23.9883C53.9341 24.9899 51.9432 25.7863 49.8863 26.4768C49.8671 26.483 49.8537 26.4779 49.8461 26.4616C49.8247 26.4171 49.8036 26.3683 49.7829 26.3153C48.7737 23.7337 47.7301 21.1622 46.6519 18.6009C46.5475 18.3526 46.4428 18.1416 46.3379 17.9678Z" fill="#CDA558"/>
<path d="M50.736 31.4742C50.7225 31.4748 50.709 31.4714 50.6979 31.4646C50.6868 31.4579 50.6786 31.4481 50.6746 31.4369C50.1243 29.8829 49.6034 28.3174 49.112 26.7405C49.085 26.6541 49.0856 26.5398 49.046 26.4151C48.2851 24.0262 47.5228 21.6376 46.7589 19.2493C46.7562 19.2418 46.7587 19.2382 46.7663 19.2385C46.7678 19.2385 46.7696 19.2387 46.7715 19.239C46.7723 19.2392 46.7731 19.2394 46.7737 19.2398C46.7743 19.2401 46.7747 19.2405 46.7749 19.241L51.6672 31.352C51.6712 31.3621 51.6724 31.3728 51.6708 31.3834C51.6691 31.3939 51.6646 31.404 51.6575 31.4128C51.6505 31.4216 51.6412 31.4289 51.6303 31.4341C51.6195 31.4393 51.6073 31.4423 51.5949 31.4428L50.736 31.4742Z" fill="#CDA558"/>
<path d="M27.5679 28.8039C27.6732 28.7898 27.7693 28.7823 27.8561 28.7813C28.3923 28.7744 28.9325 28.7224 29.4687 28.6959C29.7437 28.6827 30.2753 28.6311 30.6834 28.6385C30.7026 28.6388 30.7156 28.6315 30.7225 28.6164C31.0378 27.9284 31.3205 27.2309 31.5704 26.5239C31.606 26.4235 31.6266 26.3104 31.6324 26.1848C31.6557 25.6558 31.7935 25.1485 32.0457 24.663C32.0492 24.6561 32.0547 24.65 32.0616 24.6454C32.0685 24.6408 32.0767 24.6377 32.0853 24.6365C32.1867 24.6224 32.3039 24.6128 32.4367 24.6076C33.6204 24.5619 34.7944 24.608 35.9454 24.822C37.4633 25.1042 39.0827 25.4482 40.5007 25.9978C40.5064 26.0001 40.5114 26.0032 40.5157 26.0071C40.5199 26.0111 40.5231 26.0157 40.5252 26.0207C40.5273 26.0256 40.5282 26.0309 40.5278 26.0362C40.5275 26.0415 40.5258 26.0466 40.5231 26.0513C39.8083 27.2963 39.1218 29.1288 39.7636 30.466C39.786 30.5121 39.8721 30.5661 39.798 30.6231C39.7835 30.6345 39.7724 30.6481 39.7647 30.6638C39.6413 30.9175 39.6775 31.2806 39.7194 31.5481C39.7224 31.5671 39.7316 31.5834 39.7469 31.5972L40.4094 32.19C40.4343 32.2119 40.4295 32.2185 40.3951 32.2096L38.4834 31.7046C38.4639 31.6994 38.447 31.6906 38.4329 31.6781C38.4137 31.6611 38.3956 31.6503 38.3783 31.6458C34.7747 30.7042 31.1706 29.7638 27.5662 28.8245C27.5637 28.8237 27.5615 28.8222 27.5601 28.8202C27.5586 28.8183 27.5579 28.816 27.5581 28.8136C27.5583 28.8113 27.5594 28.8091 27.5612 28.8074C27.5629 28.8056 27.5653 28.8044 27.5679 28.8039Z" fill="#CDA558"/>
<path d="M39.9816 30.6664C39.99 30.6638 39.9976 30.6596 40.0038 30.6542C40.0101 30.6488 40.0149 30.6423 40.0179 30.6352C40.021 30.628 40.0221 30.6204 40.0213 30.6128C40.0205 30.6052 40.0177 30.5979 40.0132 30.5913C39.5471 29.9136 39.5993 28.9675 39.7974 28.2122C39.8054 28.1825 39.8272 28.1666 39.8628 28.1646C42.3026 28.04 44.7537 27.9186 47.2161 27.8005C47.8677 27.7691 48.5296 27.8044 49.1938 27.8177C49.2447 27.8187 49.2774 27.8402 49.292 27.8824L50.559 31.5718C50.5639 31.5862 50.5574 31.5944 50.5394 31.5964C50.2662 31.6229 49.9943 31.643 49.7237 31.6567C46.6975 31.8105 43.6737 31.9935 40.6522 32.2059C40.633 32.2072 40.617 32.2018 40.6039 32.1897L39.8846 31.5394C39.8708 31.527 39.8626 31.5126 39.8599 31.4963C39.8312 31.3392 39.76 30.7356 39.9816 30.6664Z" fill="#CDA558"/>
<path d="M24.6444 29.8518L24.2811 29.8493C24.268 29.8493 24.2554 29.8448 24.2461 29.8368C24.2369 29.8288 24.2317 29.8179 24.2317 29.8066V29.0568C24.2317 29.0267 24.2493 29.0105 24.2845 29.0082L27.307 28.8251C27.3173 28.8245 27.3277 28.8257 27.3373 28.8287C27.347 28.8316 27.3559 28.8363 27.3633 28.8423C27.4111 28.8806 27.458 28.9059 27.5039 28.9184C31.1389 29.911 34.7795 30.8884 38.4257 31.8505C38.444 31.8555 38.4626 31.8561 38.4814 31.8525C38.5146 31.8463 38.5393 31.8451 38.5554 31.8491C39.0101 31.9655 39.4846 32.0904 39.9791 32.2235C40.0197 32.2346 40.0201 32.2466 39.9803 32.2593C39.9558 32.2672 39.9301 32.2701 39.9033 32.2682C39.8979 32.2678 39.8925 32.2683 39.8873 32.2698C39.8822 32.2712 39.8775 32.2736 39.8735 32.2767C39.8695 32.2798 39.8663 32.2835 39.8641 32.2877C39.8619 32.2919 39.8608 32.2965 39.8609 32.301V33.8871C39.8609 33.9067 39.8718 33.919 39.8936 33.9239C40.3391 34.0285 40.4831 34.3941 40.509 34.7425C40.5308 35.033 40.5434 35.3238 40.5469 35.615C40.5635 37.0548 39.4108 38.1193 37.7632 38.2577C37.5588 38.2748 37.3751 38.3048 37.1788 38.3239C37.171 38.3246 37.1637 38.3277 37.1585 38.3326C37.1532 38.3375 37.1502 38.3438 37.1501 38.3504L37.1478 38.3965C37.147 38.4168 37.1585 38.4261 37.1822 38.4245C38.0548 38.3671 38.6605 38.3322 39.3224 37.9853C40.2254 37.5117 40.7524 36.7491 40.8253 35.8378C40.8689 35.2901 40.8496 34.8158 40.7673 34.4147C40.7084 34.1277 40.5203 33.8986 40.203 33.7271C40.1842 33.717 40.1749 33.7024 40.1749 33.6835L40.1772 32.5592C40.1773 32.548 40.1823 32.5372 40.1912 32.5291C40.2001 32.5209 40.2123 32.5159 40.2254 32.515C43.586 32.2889 46.9472 32.0303 50.309 31.7391C50.4824 31.7239 50.6552 31.7666 50.8291 31.7426C51.1766 31.6945 51.5172 31.6389 51.851 31.5757C51.8862 31.5692 51.8977 31.5514 51.8854 31.5222L50.3871 27.9094C50.3775 27.8865 50.3869 27.8755 50.4152 27.8765C52.7498 27.9528 55.0771 28.1028 57.3971 28.3265C58.2324 28.407 59.2996 28.5007 60.1004 28.833C60.1106 28.8371 60.1193 28.8436 60.1255 28.8516C60.1317 28.8597 60.1351 28.869 60.1354 28.8786L60.4328 35.3103C60.4339 35.3289 60.4255 35.3438 60.4075 35.3549C59.431 35.9526 58.2146 36.3222 57.0016 36.1514C56.9066 36.138 56.818 36.1404 56.7358 36.1588C56.0205 36.3182 54.378 36.754 54.1507 37.4322C54.0022 37.8752 53.8491 38.3167 53.6914 38.7567C53.6859 38.7723 53.6744 38.7859 53.6587 38.7955C53.1547 39.1017 52.502 39.351 51.8802 39.3775C51.7819 39.3818 51.6831 39.3855 51.584 39.3888C51.5759 39.389 51.5681 39.3919 51.5621 39.3967C51.5562 39.4016 51.5526 39.4082 51.5519 39.4153L51.4841 40.2859C51.4834 40.2933 51.4798 40.3003 51.4739 40.3057C51.4679 40.3112 51.46 40.3147 51.4514 40.3158C50.2512 40.4712 49.0524 40.6248 47.8548 40.7766C47.6539 40.8021 47.4696 40.7761 47.3215 40.7938C43.8223 41.2162 40.3259 41.6531 36.832 42.1046C36.8083 42.1075 36.8003 42.1186 36.8079 42.1379L36.8137 42.1517C36.8151 42.1553 36.8155 42.1591 36.815 42.1629C36.8144 42.1667 36.8129 42.1703 36.8106 42.1735C36.8082 42.1768 36.8051 42.1795 36.8013 42.1816C36.7976 42.1837 36.7934 42.185 36.789 42.1855L35.8154 42.3092C35.7947 42.3118 35.7752 42.3092 35.7568 42.3014L28.8185 39.3716C28.8148 39.3701 28.8106 39.3693 28.8065 39.3694C28.8023 39.3695 28.7983 39.3705 28.7947 39.3723C28.7911 39.374 28.7881 39.3765 28.7859 39.3795C28.7838 39.3824 28.7826 39.3858 28.7824 39.3893L28.245 46.8083C28.2431 46.8309 28.2292 46.8422 28.2031 46.8422L27.516 46.8427C27.498 46.8427 27.4815 46.8384 27.4666 46.8299L26.8552 46.4874C26.8453 46.4819 26.8371 46.4745 26.8313 46.4657C26.8255 46.4569 26.8222 46.447 26.8219 46.4368L26.4723 38.5364C26.4718 38.5278 26.4722 38.5199 26.4737 38.513C26.4752 38.5061 26.4776 38.5003 26.4809 38.4962C26.4855 38.4906 26.4918 38.488 26.4999 38.4883C26.5127 38.4886 26.5238 38.4848 26.5312 38.4774C26.5386 38.47 26.542 38.4595 26.5407 38.4476C26.5394 38.4358 26.5336 38.4232 26.5242 38.4121C26.5148 38.4009 26.5024 38.3918 26.4889 38.3862L21.2304 36.1681C21.2182 36.1629 21.2079 36.155 21.2007 36.1452C21.1935 36.1354 21.1896 36.1241 21.1897 36.1126C21.1885 35.9674 21.1883 35.8193 21.1891 35.6685C21.1902 35.3809 20.9176 35.2106 20.917 34.9402C20.9164 34.5702 20.8596 34.0967 20.9778 33.7556C21.0881 33.4386 21.2408 33.0916 21.7086 33.1113C22.7397 33.1535 23.7759 32.8821 24.4998 32.2269C24.6295 32.1097 24.6932 32.0218 24.7346 31.8564C24.893 31.2229 24.9171 30.4981 24.68 29.8738C24.6743 29.8594 24.6624 29.8521 24.6444 29.8518ZM22.6071 34.6645L35.0254 39.4295C35.053 39.44 35.0677 39.4325 35.0696 39.407C35.1098 38.9228 35.314 38.4973 35.6822 38.1306C35.7212 38.0916 35.7126 38.0632 35.6563 38.0452C31.7832 36.8157 27.9404 35.5967 24.1278 34.3882C24.0348 34.3587 23.9374 34.3453 23.8356 34.3479C23.4295 34.3584 23.0217 34.3568 22.6122 34.343C22.5916 34.3424 22.5812 34.3509 22.5812 34.3685V34.6301C22.5812 34.6461 22.5898 34.6576 22.6071 34.6645ZM35.0237 40.9607C35.0237 40.9624 35.0232 40.9641 35.0222 40.9656C35.0212 40.9672 35.0198 40.9684 35.0181 40.9694C35.0164 40.9703 35.0144 40.9708 35.0124 40.971C35.0104 40.9711 35.0083 40.9707 35.0065 40.97C30.9933 39.3093 26.9953 37.6552 23.0124 36.0076C22.506 35.7979 22.0892 35.6296 21.762 35.5026C21.7608 35.5023 21.7595 35.5023 21.7583 35.5027C21.7571 35.5031 21.7562 35.5038 21.7556 35.5048C21.755 35.5058 21.7549 35.5069 21.7553 35.5079C21.7556 35.509 21.7564 35.5099 21.7574 35.5105C21.9821 35.6214 22.2046 35.731 22.4251 35.8393C22.6467 35.9482 22.8805 36.0544 23.1266 36.1578C27.1352 37.8423 31.1495 39.5269 35.1695 41.2114C35.1724 41.2126 35.1756 41.2131 35.1789 41.213C35.1821 41.2129 35.1852 41.212 35.1879 41.2106C35.1906 41.2092 35.1928 41.2072 35.1943 41.2049C35.1958 41.2025 35.1966 41.1999 35.1965 41.1972V40.2672C35.1965 40.2499 35.1873 40.2376 35.1689 40.2304L22.2368 35.1385C22.2358 35.1383 22.2347 35.1384 22.2337 35.1387C22.2328 35.1391 22.232 35.1397 22.2315 35.1406C22.231 35.1414 22.2309 35.1423 22.2311 35.1432C22.2314 35.144 22.2319 35.1448 22.2328 35.1454C22.7754 35.4208 23.3306 35.6741 23.8981 35.905C27.5902 37.4061 31.289 38.8959 34.9944 40.3747C35.0143 40.3826 35.0243 40.396 35.0243 40.415L35.0237 40.9607Z" fill="#CDA558"/>
<path d="M35.0253 39.4296L22.6069 34.6645C22.5897 34.6576 22.5811 34.6462 22.5811 34.6301V34.3686C22.5811 34.3509 22.5914 34.3424 22.6121 34.3431C23.0216 34.3568 23.4293 34.3584 23.8354 34.348C23.9372 34.3453 24.0346 34.3588 24.1276 34.3882C27.9402 35.5967 31.7831 36.8157 35.6562 38.0452C35.7124 38.0632 35.721 38.0917 35.682 38.1306C35.3138 38.4973 35.1096 38.9228 35.0695 39.407C35.0675 39.4325 35.0528 39.4401 35.0253 39.4296Z" fill="black"/>
<path d="M35.0235 40.9607L35.0241 40.415C35.0241 40.396 35.0141 40.3826 34.9942 40.3748C31.2888 38.896 27.59 37.4061 23.898 35.9051C23.3304 35.6741 22.7753 35.4209 22.2326 35.1454C22.2317 35.1449 22.2312 35.1441 22.2309 35.1432C22.2307 35.1423 22.2309 35.1414 22.2313 35.1406C22.2318 35.1398 22.2326 35.1392 22.2335 35.1388C22.2345 35.1384 22.2356 35.1383 22.2366 35.1386L35.1688 40.2305C35.1871 40.2377 35.1963 40.2499 35.1963 40.2673V41.1972C35.1964 41.1999 35.1956 41.2026 35.1941 41.2049C35.1926 41.2072 35.1904 41.2092 35.1877 41.2107C35.185 41.2121 35.1819 41.2129 35.1787 41.213C35.1755 41.2132 35.1722 41.2126 35.1693 41.2115C31.1493 39.5269 27.135 37.8424 23.1264 36.1578C22.8803 36.0544 22.6465 35.9483 22.4249 35.8393C22.2044 35.731 21.9819 35.6214 21.7572 35.5105C21.7562 35.5099 21.7554 35.509 21.7551 35.508C21.7547 35.5069 21.7549 35.5058 21.7554 35.5049C21.756 35.5039 21.757 35.5031 21.7581 35.5027C21.7593 35.5023 21.7606 35.5023 21.7618 35.5027C22.0891 35.6296 22.5058 35.7979 23.0122 36.0077C26.9951 37.6552 30.9931 39.3094 35.0063 40.97C35.0081 40.9708 35.0102 40.9711 35.0122 40.971C35.0142 40.9709 35.0162 40.9704 35.0179 40.9694C35.0196 40.9685 35.021 40.9672 35.022 40.9657C35.023 40.9642 35.0235 40.9624 35.0235 40.9607Z" fill="black"/>
<path d="M55.2024 44.9105C55.1835 44.9069 55.1664 44.8982 55.1537 44.8857C55.1409 44.8731 55.1333 44.8574 55.1318 44.8408L54.4084 37.303C54.4069 37.286 54.413 37.2713 54.4268 37.2588C54.9739 36.7705 55.963 36.479 56.7409 36.3053C56.9229 36.2646 57.0796 36.3014 57.2616 36.3195C57.2983 36.3231 57.3081 36.3388 57.2909 36.3667C57.2116 36.4918 57.1611 36.5973 57.1491 36.7465C56.9302 39.5395 56.7082 42.3323 56.4831 45.1249C56.4816 45.1416 56.4713 45.1481 56.4521 45.1445L55.2024 44.9105Z" fill="#CDA558"/>
<path d="M37.1367 42.2802C37.4976 42.217 37.8547 42.1647 38.208 42.1231C41.2815 41.7624 44.3689 41.332 47.4838 40.938C47.4911 40.937 47.4986 40.9375 47.5056 40.9392C47.5127 40.941 47.5192 40.944 47.5247 40.9481C47.5303 40.9523 47.5347 40.9573 47.5376 40.9631C47.5406 40.9688 47.542 40.9749 47.5418 40.9812L47.5326 41.5023C47.5323 41.5223 47.5204 41.5314 47.497 41.5298C46.7699 41.4847 46.1172 41.6386 45.5389 41.9916C44.9353 42.3603 44.4535 42.8264 44.0934 43.3897C44.0493 43.4581 44.0252 43.5335 44.021 43.616C43.8262 47.4565 43.6276 51.297 43.4251 55.1376C43.4248 55.1447 43.4221 55.1515 43.4173 55.1573C43.4125 55.163 43.4058 55.1674 43.3982 55.17C43.1038 55.2671 42.8103 55.3646 42.5175 55.4624C42.493 55.4706 42.4701 55.4817 42.4486 55.4958C42.4402 55.501 42.431 55.5037 42.4211 55.5037H41.8091C41.7862 55.5037 41.7636 55.4982 41.7437 55.488L41.2896 55.2553C41.2697 55.2452 41.2576 55.2301 41.2534 55.2102C41.2415 55.1523 41.2333 55.0702 41.2287 54.9638C41.148 53.0765 40.9694 49.2609 40.6931 43.5173C40.6782 43.2013 40.413 42.8224 40.2735 42.525C40.2643 42.5051 40.2473 42.4969 40.2224 42.5005L38.3859 42.7591C38.3675 42.7617 38.3501 42.7599 38.3337 42.7537C37.9341 42.6042 37.534 42.4562 37.1333 42.3096C37.0977 42.2965 37.0988 42.2867 37.1367 42.2802Z" fill="#CDA558"/>
<path d="M29.4945 66.1C29.1079 65.2867 28.5479 64.66 27.8145 64.22C27.0812 63.7667 26.2279 63.54 25.2545 63.54C24.2812 63.54 23.4012 63.7667 22.6145 64.22C21.8412 64.66 21.2279 65.3 20.7745 66.14C20.3345 66.9667 20.1145 67.9267 20.1145 69.02C20.1145 70.1133 20.3345 71.0733 20.7745 71.9C21.2279 72.7267 21.8412 73.3667 22.6145 73.82C23.4012 74.26 24.2812 74.48 25.2545 74.48C26.6145 74.48 27.7345 74.0733 28.6145 73.26C29.4945 72.4467 30.0079 71.3467 30.1545 69.96H24.5945V68.48H32.0945V69.88C31.9879 71.0267 31.6279 72.08 31.0145 73.04C30.4012 73.9867 29.5945 74.74 28.5945 75.3C27.5945 75.8467 26.4812 76.12 25.2545 76.12C23.9612 76.12 22.7812 75.82 21.7145 75.22C20.6479 74.6067 19.8012 73.76 19.1745 72.68C18.5612 71.6 18.2545 70.38 18.2545 69.02C18.2545 67.66 18.5612 66.44 19.1745 65.36C19.8012 64.2667 20.6479 63.42 21.7145 62.82C22.7812 62.2067 23.9612 61.9 25.2545 61.9C26.7345 61.9 28.0412 62.2667 29.1745 63C30.3212 63.7333 31.1545 64.7667 31.6745 66.1H29.4945ZM41.4809 68.82C41.9876 68.9 42.4476 69.1067 42.8609 69.44C43.2876 69.7733 43.6209 70.1867 43.8609 70.68C44.1143 71.1733 44.2409 71.7 44.2409 72.26C44.2409 72.9667 44.0609 73.6067 43.7009 74.18C43.3409 74.74 42.8143 75.1867 42.1209 75.52C41.4409 75.84 40.6343 76 39.7009 76H34.5009V62.06H39.5009C40.4476 62.06 41.2543 62.22 41.9209 62.54C42.5876 62.8467 43.0876 63.2667 43.4209 63.8C43.7543 64.3333 43.9209 64.9333 43.9209 65.6C43.9209 66.4267 43.6943 67.1133 43.2409 67.66C42.8009 68.1933 42.2143 68.58 41.4809 68.82ZM36.3209 68.08H39.3809C40.2343 68.08 40.8943 67.88 41.3609 67.48C41.8276 67.08 42.0609 66.5267 42.0609 65.82C42.0609 65.1133 41.8276 64.56 41.3609 64.16C40.8943 63.76 40.2209 63.56 39.3409 63.56H36.3209V68.08ZM39.5409 74.5C40.4476 74.5 41.1543 74.2867 41.6609 73.86C42.1676 73.4333 42.4209 72.84 42.4209 72.08C42.4209 71.3067 42.1543 70.7 41.6209 70.26C41.0876 69.8067 40.3743 69.58 39.4809 69.58H36.3209V74.5H39.5409ZM45.9866 63.2V61.54H49.7466V76H47.9066V63.2H45.9866ZM60.7328 76L54.9928 69.64V76H53.1728V62.06H54.9928V68.52L60.7528 62.06H63.0528L56.7328 69.04L63.1128 76H60.7328Z" fill="#CDA558"/>
<rect x="0.5" y="89.5" width="89" height="79" rx="13.5" transform="rotate(-90 0.5 89.5)" stroke="#CDA558"/>
<rect x="0.5" y="89.5" width="89" height="79" rx="13.5" transform="rotate(-90 0.5 89.5)" stroke="black" stroke-opacity="0.2"/>
</svg>
