<svg width="520" height="554" viewBox="0 0 520 554" fill="none" xmlns="http://www.w3.org/2000/svg">
<path d="M360.793 309.848V453.649L520 551V408.204M360.793 309.848L325.273 290.751V165.975M360.793 309.848L406.544 338.112M520 408.204V1.99997H514.015H508.03M520 408.204L514.015 404.507L508.03 400.809M325.273 165.975L406.544 213.574V338.112M325.273 165.975L61.0013 1.99997H406.544M406.544 338.112V1.99997M406.544 338.112L469.192 376.815L476.434 381.289M406.544 1.99997H469.192H476.434M508.03 400.809V1.99997M508.03 400.809L503.838 398.22L499.646 395.63L495.454 393.04M508.03 1.99997H503.838H499.646H495.454M495.454 1.99997H491.262H486.549M495.454 1.99997C495.454 154.711 495.454 240.329 495.454 393.04M495.454 393.04L491.262 390.45L486.549 387.539M486.549 387.539C486.549 236.976 486.549 152.562 486.549 1.99997M486.549 387.539L480.489 383.794L476.434 381.289M486.549 1.99997H480.489H476.434M476.434 381.289C476.434 233.168 476.434 150.122 476.434 1.99997" stroke="url(#paint0_linear_43_94)" stroke-opacity="0.5" stroke-width="2"/>
<path d="M305.792 309.848V453.649L464.999 551V408.204M305.792 309.848L270.272 290.751V165.975M305.792 309.848L351.543 338.112M464.999 408.204V1.99997H459.014H453.029M464.999 408.204L459.014 404.507L453.029 400.809M270.272 165.975L351.543 213.574V338.112M270.272 165.975L6.00031 1.99997H351.543M351.543 338.112V1.99997M351.543 338.112L414.191 376.815L421.433 381.289M351.543 1.99997H414.191H421.433M453.029 400.809V1.99997M453.029 400.809L448.837 398.22L444.645 395.63L440.453 393.04M453.029 1.99997H448.837H444.645H440.453M440.453 1.99997H436.261H431.548M440.453 1.99997C440.453 154.711 440.453 240.329 440.453 393.04M440.453 393.04L436.261 390.45L431.548 387.539M431.548 387.539C431.548 236.976 431.548 152.562 431.548 1.99997M431.548 387.539L425.488 383.794L421.433 381.289M431.548 1.99997H425.488H421.433M421.433 381.289C421.433 233.168 421.433 150.122 421.433 1.99997" stroke="url(#paint1_linear_43_94)" stroke-opacity="0.5" stroke-width="3"/>
<defs>
<linearGradient id="paint0_linear_43_94" x1="306.87" y1="562.456" x2="277.258" y2="2.70059" gradientUnits="userSpaceOnUse">
<stop stop-color="#462700"/>
<stop offset="0.183446" stop-color="#DDA055" stop-opacity="0.923383"/>
<stop offset="0.240348" stop-color="#774C17" stop-opacity="0.893892"/>
<stop offset="0.577641" stop-color="#976220" stop-opacity="0.71908"/>
<stop offset="1" stop-color="#FAAA46" stop-opacity="0"/>
</linearGradient>
<linearGradient id="paint1_linear_43_94" x1="251.869" y1="562.456" x2="222.257" y2="2.70059" gradientUnits="userSpaceOnUse">
<stop stop-color="#462700"/>
<stop offset="0.183446" stop-color="#DDA055" stop-opacity="0.923383"/>
<stop offset="0.240348" stop-color="#774C17" stop-opacity="0.893892"/>
<stop offset="0.577641" stop-color="#976220" stop-opacity="0.71908"/>
<stop offset="1" stop-color="#FAAA46" stop-opacity="0"/>
</linearGradient>
</defs>
</svg>
