<svg width="521" height="554" viewBox="0 0 521 554" fill="none" xmlns="http://www.w3.org/2000/svg">
<path d="M160.207 309.848V453.649L1 551V408.204M160.207 309.848L195.727 290.751V165.975M160.207 309.848L114.456 338.112M1 408.204V1.99997H6.98479H12.9696M1 408.204L6.98479 404.507L12.9696 400.809M195.727 165.975L114.456 213.574V338.112M195.727 165.975L459.999 1.99997H114.456M114.456 338.112V1.99997M114.456 338.112L51.8083 376.815L44.5664 381.289M114.456 1.99997H51.8083H44.5664M12.9696 400.809V1.99997M12.9696 400.809L17.1616 398.22L21.3536 395.63L25.5457 393.04M12.9696 1.99997H17.1616H21.3536H25.5457M25.5457 1.99997H29.7377H34.4507M25.5457 1.99997C25.5457 154.711 25.5457 240.329 25.5457 393.04M25.5457 393.04L29.7377 390.45L34.4507 387.539M34.4507 387.539C34.4507 236.976 34.4507 152.562 34.4507 1.99997M34.4507 387.539L40.5112 383.794L44.5664 381.289M34.4507 1.99997H40.5112H44.5664M44.5664 381.289C44.5664 233.168 44.5664 150.122 44.5664 1.99997" stroke="url(#paint0_linear_43_97)" stroke-opacity="0.5" stroke-width="2"/>
<path d="M215.208 309.848V453.649L56.001 551V408.204M215.208 309.848L250.728 290.751V165.975M215.208 309.848L169.457 338.112M56.001 408.204V1.99997H61.9858H67.9705M56.001 408.204L61.9858 404.507L67.9705 400.809M250.728 165.975L169.457 213.574V338.112M250.728 165.975L515 1.99997H169.457M169.457 338.112V1.99997M169.457 338.112L106.809 376.815L99.5673 381.289M169.457 1.99997H106.809H99.5673M67.9705 400.809V1.99997M67.9705 400.809L72.1626 398.22L76.3546 395.63L80.5467 393.04M67.9705 1.99997H72.1626H76.3546H80.5467M80.5467 1.99997H84.7387H89.4517M80.5467 1.99997C80.5467 154.711 80.5467 240.329 80.5467 393.04M80.5467 393.04L84.7387 390.45L89.4517 387.539M89.4517 387.539C89.4517 236.976 89.4517 152.562 89.4517 1.99997M89.4517 387.539L95.5122 383.794L99.5673 381.289M89.4517 1.99997H95.5122H99.5673M99.5673 381.289C99.5673 233.168 99.5673 150.122 99.5673 1.99997" stroke="url(#paint1_linear_43_97)" stroke-opacity="0.5" stroke-width="3"/>
<defs>
<linearGradient id="paint0_linear_43_97" x1="214.13" y1="562.456" x2="243.742" y2="2.70059" gradientUnits="userSpaceOnUse">
<stop stop-color="#462700"/>
<stop offset="0.183446" stop-color="#DDA055" stop-opacity="0.923383"/>
<stop offset="0.240348" stop-color="#774C17" stop-opacity="0.893892"/>
<stop offset="0.577641" stop-color="#976220" stop-opacity="0.71908"/>
<stop offset="1" stop-color="#FAAA46" stop-opacity="0"/>
</linearGradient>
<linearGradient id="paint1_linear_43_97" x1="269.131" y1="562.456" x2="298.743" y2="2.70059" gradientUnits="userSpaceOnUse">
<stop stop-color="#462700"/>
<stop offset="0.183446" stop-color="#DDA055" stop-opacity="0.923383"/>
<stop offset="0.240348" stop-color="#774C17" stop-opacity="0.893892"/>
<stop offset="0.577641" stop-color="#976220" stop-opacity="0.71908"/>
<stop offset="1" stop-color="#FAAA46" stop-opacity="0"/>
</linearGradient>
</defs>
</svg>
