<svg width="80" height="90" viewBox="0 0 80 90" fill="none" xmlns="http://www.w3.org/2000/svg">
<path d="M51.9495 54.3486C51.9826 54.2283 51.9958 54.1063 51.9892 53.9826C51.9675 53.5924 51.9755 53.2016 51.9774 52.825C51.9778 52.7584 52.0039 52.7043 52.0556 52.6625L54.5631 50.6593C54.5788 50.6467 54.5915 50.6307 54.6002 50.6125C54.6089 50.5942 54.6134 50.5742 54.6134 50.5538L54.614 37.2469C54.614 37.1667 54.5778 37.1441 54.5054 37.1793L51.0028 38.8865C50.9784 38.8985 50.9662 38.8909 50.9662 38.8636L50.9687 33.7337C50.9687 33.711 50.9788 33.6949 50.9991 33.6853L55.1233 31.7275C55.1398 31.7192 55.1483 31.7057 55.1487 31.6871L55.2356 20.7599C55.2356 20.7444 55.2409 20.7293 55.2506 20.7171C55.2603 20.705 55.2738 20.6964 55.2889 20.6929C56.1508 20.4932 57.0045 20.2942 57.8498 20.0961C58.0297 20.054 58.1644 19.982 58.1135 19.776C58.1085 19.7545 58.0951 19.7462 58.0732 19.7512L55.6196 20.3356C55.6118 20.3374 55.6037 20.3374 55.5959 20.3356C55.5881 20.3337 55.5808 20.3301 55.5746 20.325C55.5684 20.3199 55.5635 20.3135 55.5602 20.3062C55.5569 20.2989 55.5554 20.2909 55.5557 20.2829L55.5749 19.8542C55.5754 19.8417 55.5801 19.8297 55.5882 19.8202C55.5963 19.8107 55.6074 19.8043 55.6196 19.8021L58.245 19.2996C58.2649 19.2956 58.2828 19.2847 58.2956 19.2688C58.3083 19.2529 58.3151 19.2331 58.3146 19.2128C58.3142 19.1925 58.3066 19.1731 58.2931 19.158C58.2797 19.1429 58.2613 19.133 58.2413 19.1302C58.0713 19.1066 57.9243 19.0545 57.7456 19.088C57.0202 19.2245 56.2958 19.3674 55.5725 19.5167C55.4602 19.5397 55.3758 19.5341 55.266 19.5223C45.4736 18.4644 35.6819 17.4004 25.8908 16.3305C25.799 16.3201 25.731 16.3477 25.6867 16.413C25.6799 16.4229 25.6757 16.4344 25.6747 16.4464C25.6736 16.4584 25.6757 16.4704 25.6807 16.4814C25.6857 16.4923 25.6935 16.5018 25.7032 16.5088C25.713 16.5159 25.7244 16.5203 25.7364 16.5216L55.1401 19.8052C55.1608 19.8076 55.18 19.8174 55.1941 19.8328C55.2081 19.8482 55.216 19.8682 55.2164 19.8889L55.2226 20.4007C55.2234 20.4562 55.1963 20.4808 55.1413 20.4746L25.232 17.0681C25.2059 17.0652 25.1898 17.0766 25.1836 17.1022C25.1489 17.2428 25.1975 17.3462 25.3294 17.4124C25.3765 17.436 25.4404 17.4068 25.4981 17.4137C35.2566 18.5361 45.0137 19.6561 54.7697 20.7736C54.7779 20.7745 54.7855 20.7784 54.791 20.7844C54.7965 20.7905 54.7995 20.7983 54.7995 20.8065L54.8001 31.1325C54.8 31.1346 54.7995 31.1367 54.7986 31.1386C54.7977 31.1405 54.7963 31.1422 54.7946 31.1435C54.793 31.1448 54.791 31.1457 54.789 31.1462C54.7869 31.1466 54.7848 31.1466 54.7827 31.1462L54.1493 31.0041C54.1307 31 54.1208 30.9884 54.1195 30.9694L53.7796 26.6106C53.7775 26.5854 53.7639 26.5707 53.7386 26.5666C53.2502 26.4868 52.7613 26.4103 52.2721 26.3371C43.7515 25.0636 35.2167 23.7865 26.6675 22.5057C26.6475 22.5027 26.627 22.507 26.6098 22.5178C26.5926 22.5286 26.5799 22.5452 26.5739 22.5646C26.2149 23.7114 25.8608 24.8682 25.5118 26.0349C25.4406 26.2727 25.4398 26.5027 25.5093 26.7248C25.512 26.7339 25.5176 26.7418 25.5252 26.7475C25.5328 26.7531 25.542 26.7562 25.5515 26.7562C25.561 26.7562 25.5702 26.7531 25.5778 26.7475C25.5854 26.7418 25.5909 26.7339 25.5937 26.7248L26.7928 22.9238C26.797 22.9103 26.8059 22.8987 26.8178 22.8912C26.8298 22.8837 26.844 22.8807 26.858 22.8828L53.3906 26.8228C53.41 26.8253 53.4173 26.836 53.4123 26.8551L52.1313 31.7088C52.1288 31.7187 52.1226 31.7272 52.114 31.7328C52.1053 31.7383 52.0949 31.7404 52.0847 31.7386C43.2498 30.1869 34.4135 28.6378 25.5757 27.0914C25.469 27.0728 25.3834 27.0586 25.2736 27.0883C24.3746 27.3328 23.4491 27.4978 22.5402 27.7037C22.0017 27.8253 21.5712 27.8142 21.0544 27.7261C21.0267 27.7215 21.0143 27.7333 21.0172 27.7614L21.0277 27.8576C21.0294 27.8712 21.0371 27.8795 21.0507 27.8824L21.5668 27.9804C21.5867 27.984 21.6047 27.9946 21.6177 28.0102C21.6308 28.0258 21.638 28.0456 21.6382 28.066L21.6518 30.7522C21.6523 30.775 21.6413 30.7847 21.619 30.7814L21.0036 30.689C20.9734 30.6844 20.9587 30.6974 20.9595 30.728L20.9638 30.8633C20.9642 30.8733 20.968 30.883 20.9745 30.8906C20.981 30.8983 20.99 30.9035 20.9998 30.9055L50.5357 36.7177C50.5836 36.7272 50.6074 36.7566 50.607 36.8058L50.6008 37.4808C50.6008 37.4873 50.5993 37.4938 50.5964 37.4997C50.5935 37.5057 50.5894 37.5109 50.5842 37.515C50.579 37.5192 50.573 37.5222 50.5666 37.5237C50.5601 37.5253 50.5534 37.5255 50.5468 37.5242L25.3331 32.4452C25.3184 32.4423 25.3028 32.4424 25.288 32.4458C25.2732 32.4491 25.2598 32.4554 25.2494 32.464C25.239 32.4726 25.2319 32.4832 25.2291 32.4944C25.2262 32.5057 25.2277 32.5172 25.2332 32.5277C25.2523 32.5637 25.2442 32.6098 25.209 32.6661" stroke="#CDA558" stroke-width="2"/>
<path d="M24.9893 43.8991L24.1767 44.2905C24.1572 44.3 24.1458 44.294 24.1425 44.2725C24.1111 44.0426 24.1152 43.8128 24.1549 43.5833C24.1595 43.5572 24.1491 43.5399 24.1239 43.5312L24.0116 43.4921C23.9843 43.4826 23.969 43.4923 23.9657 43.5213C23.9401 43.7603 23.9295 44.0002 23.9341 44.2409C23.9384 44.4835 23.7045 44.5318 23.5191 44.5951C23.488 44.6059 23.4727 44.5949 23.4732 44.5622L23.5116 32.9241C23.5116 32.9034 23.5217 32.8908 23.542 32.8863L24.0811 32.764C24.1092 32.7578 24.1231 32.7403 24.1227 32.7113L24.1208 32.6015C24.1204 32.5792 24.109 32.5688 24.0867 32.5705C23.6096 32.6046 23.1394 32.7169 22.6692 32.7988C22.604 32.8099 22.5358 32.8447 22.4762 32.8714C22.4564 32.88 22.4471 32.8951 22.4483 32.9166C22.4545 33.0258 22.5252 33.0686 22.6319 33.0519C22.8222 33.0213 23.0135 32.9888 23.2058 32.9545C23.2097 32.9538 23.2137 32.9539 23.2176 32.955C23.2214 32.956 23.225 32.9579 23.2281 32.9605C23.2312 32.9631 23.2336 32.9663 23.2354 32.97C23.2371 32.9737 23.238 32.9777 23.238 32.9818V44.731C23.238 44.74 23.2357 44.7489 23.2314 44.7568C23.227 44.7647 23.2208 44.7714 23.2133 44.7763C23.2058 44.7811 23.1972 44.784 23.1883 44.7847C23.1794 44.7853 23.1705 44.7837 23.1623 44.78L22.5364 44.4965C22.5265 44.4921 22.5156 44.4903 22.5048 44.4911C22.4939 44.492 22.4835 44.4956 22.4745 44.5015C22.4655 44.5075 22.4581 44.5156 22.4531 44.5251C22.4481 44.5346 22.4456 44.5453 22.4458 44.556L22.4502 44.7552C22.4502 44.7734 22.4584 44.7868 22.475 44.7955L22.975 45.0554C22.9876 45.062 22.9981 45.0719 23.0054 45.0841C23.0127 45.0962 23.0166 45.1101 23.0166 45.1243L23.0159 46.3328" stroke="#CDA558" stroke-width="2"/>
<path d="M22.016 32.9483L22.0284 32.1573C22.0288 32.1379 22.0385 32.13 22.0576 32.1337L24.0812 32.5171C24.0896 32.5187 24.0982 32.5185 24.1065 32.5166C24.1148 32.5147 24.1227 32.511 24.1295 32.5059C24.1364 32.5008 24.1422 32.4943 24.1464 32.4868C24.1507 32.4794 24.1534 32.4711 24.1544 32.4625L24.1718 32.2944C24.1738 32.2741 24.1668 32.2578 24.1507 32.2454C24.1023 32.2094 24.0551 32.1869 24.0092 32.1778C23.2983 32.0305 22.3131 31.8353 21.0538 31.5922C21.0302 31.5876 21.0186 31.5973 21.0191 31.6213L21.0228 31.8378C21.0232 31.8577 21.0333 31.8701 21.0532 31.875L21.7052 32.0407C21.7292 32.0469 21.742 32.0622 21.7436 32.0866C21.7623 32.3658 21.7509 32.6344 21.7095 32.8925" stroke="#CDA558" stroke-width="2"/>
<path d="M51.6605 54.4089L51.653 52.8624C51.6528 52.8445 51.6471 52.8272 51.6367 52.8128C51.6262 52.7983 51.6116 52.7875 51.5947 52.7817L50.6133 52.4436" stroke="#CDA558" stroke-width="2"/>
<path d="M50.613 52.2686L50.7706 52.1402C50.7843 52.1295 50.7911 52.1152 50.7911 52.0974L50.533 39.3674C50.5326 39.3451 50.5216 39.331 50.5001 39.3252L49.4443 39.0411C49.4061 39.0309 49.3724 39.0085 49.3483 38.9773C49.3242 38.9461 49.3111 38.908 49.3109 38.8686L49.3047 37.6651C49.3043 37.6399 49.2918 37.6248 49.2674 37.6198C41.3002 36.0284 33.3339 34.435 25.3683 32.8399C25.31 32.8281 25.2752 32.7971 25.2163 32.7778" stroke="#CDA558" stroke-width="2"/>
<path d="M24.9888 44.1677L23.3913 44.9798C23.3592 44.996 23.3322 45.0208 23.3134 45.0515C23.2946 45.0821 23.2846 45.1174 23.2846 45.1535V46.2267C23.2846 46.2367 23.2818 46.2464 23.2767 46.2548C23.2715 46.2632 23.2642 46.27 23.2554 46.2745C23.2195 46.2923 23.1979 46.3179 23.1909 46.3514" stroke="#CDA558" stroke-width="2"/>
<path d="M53.5687 27.3471C53.547 27.4426 53.4998 27.5363 53.4787 27.6225C53.1524 28.9406 52.8251 30.2558 52.4967 31.5681C52.4957 31.5723 52.4959 31.5768 52.4973 31.5809C52.4987 31.585 52.5012 31.5886 52.5045 31.5914C52.5078 31.5941 52.5118 31.5958 52.5161 31.5963C52.5203 31.5968 52.5245 31.596 52.5283 31.5941L53.7958 30.9651C53.8044 30.9607 53.8116 30.9538 53.8164 30.9455C53.8213 30.9371 53.8236 30.9275 53.823 30.9179L53.5836 27.3483C53.5811 27.314 53.5761 27.3136 53.5687 27.3471Z" stroke="#CDA558" stroke-width="2"/>
<path d="M22.0189 29.7496L23.7137 30.0623C23.7235 30.0641 23.7336 30.0637 23.7432 30.0612C23.7528 30.0587 23.7618 30.0541 23.7695 30.0477C23.7771 30.0413 23.7834 30.0333 23.7877 30.0243C23.792 30.0152 23.7943 30.0053 23.7944 29.9953L23.7975 29.6113C23.7975 29.591 23.8066 29.5763 23.8248 29.5673C23.9001 29.5292 23.9784 29.4982 24.0599 29.4742C24.3904 29.377 24.7342 29.278 25.0916 29.177C25.1379 29.1642 25.1611 29.1336 25.1611 29.0852V27.4288C25.1611 27.4231 25.1598 27.4174 25.1574 27.4122C25.1549 27.407 25.1513 27.4024 25.1469 27.3988C25.1424 27.3951 25.1372 27.3925 25.1316 27.3912C25.126 27.3899 25.1202 27.3898 25.1145 27.391L21.9655 28.0672C21.9395 28.073 21.9271 28.0891 21.9283 28.1156L21.9848 29.7106C21.9856 29.7325 21.997 29.7455 22.0189 29.7496Z" stroke="#CDA558" stroke-width="2"/>
<path d="M27.2393 29.6535V29.7347C27.2393 29.7591 27.2515 29.7715 27.2759 29.7719C27.4108 29.7748 27.5377 29.7446 27.6568 29.6814C27.6714 29.6735 27.6878 29.6696 27.7043 29.67C27.7209 29.6704 27.737 29.675 27.7512 29.6835C27.7654 29.692 27.7772 29.7041 27.7853 29.7185C27.7934 29.7329 27.7977 29.7492 27.7977 29.7657V29.8588C27.7977 29.8635 27.7986 29.8681 27.8004 29.8725C27.8022 29.8768 27.8049 29.8807 27.8082 29.884C27.8116 29.8873 27.8156 29.8899 27.8199 29.8916C27.8243 29.8934 27.8289 29.8942 27.8336 29.8942C28.1351 29.8867 28.3678 29.7713 28.6414 29.6603C28.8113 29.5908 28.9317 29.5771 29.0831 29.6677C29.091 29.6724 29.0973 29.6793 29.1013 29.6876C29.1052 29.6958 29.1067 29.7051 29.1054 29.7141C29.1042 29.7232 29.1003 29.7317 29.0942 29.7386C29.0881 29.7454 29.0801 29.7504 29.0713 29.7527C28.9453 29.7862 28.6228 29.8358 28.7586 30.053C28.7757 30.0805 28.8016 30.1013 28.8321 30.1121C28.8627 30.1229 28.896 30.1231 28.9267 30.1125L29.2518 30.0015C29.2575 29.9995 29.2636 29.9987 29.2696 29.9993C29.2756 29.9998 29.2814 30.0016 29.2867 30.0045C29.2919 30.0074 29.2965 30.0114 29.3002 30.0163C29.3038 30.0211 29.3063 30.0266 29.3076 30.0325L29.3418 30.1801C29.362 30.267 29.4137 30.2943 29.4969 30.262L30.2518 29.9698C30.2613 29.9661 30.2715 29.9652 30.2814 29.9672C30.2913 29.9691 30.3005 29.9739 30.3078 29.9809C30.3152 29.9879 30.3204 29.9969 30.3229 30.0068C30.3254 30.0167 30.3251 30.0271 30.322 30.0368C30.3075 30.0803 30.2789 30.1131 30.2363 30.1355C30.2186 30.1446 30.209 30.1593 30.2078 30.1795L30.1991 30.352C30.1979 30.3797 30.2111 30.3938 30.2388 30.3942C30.4113 30.3958 30.5701 30.3495 30.7153 30.2552C30.7278 30.2469 30.7426 30.2427 30.7576 30.2431C30.7727 30.2435 30.7872 30.2486 30.7994 30.2575C30.8115 30.2665 30.8207 30.279 30.8256 30.2933C30.8305 30.3076 30.831 30.3231 30.8269 30.3377C30.763 30.5691 31.2233 30.3787 31.3114 30.3681C31.3338 30.3652 31.3474 30.3747 31.3524 30.3967L31.3927 30.5679C31.3956 30.58 31.4027 30.5907 31.4128 30.598C31.4229 30.6054 31.4354 30.609 31.4479 30.6082C31.719 30.5902 32.1167 30.3824 32.381 30.2819C32.3857 30.2801 32.3907 30.2793 32.3957 30.2795C32.4008 30.2797 32.4057 30.2809 32.4103 30.2831C32.4149 30.2852 32.419 30.2882 32.4223 30.292C32.4257 30.2957 32.4283 30.3001 32.43 30.3048C32.4746 30.4333 32.1365 30.4488 32.1403 30.7211C32.1405 30.7305 32.144 30.7394 32.1503 30.7464C32.1566 30.7533 32.1651 30.7578 32.1744 30.759C32.3754 30.785 32.4684 30.6752 32.6291 30.687C32.6386 30.6877 32.6475 30.6919 32.6542 30.6987C32.6609 30.7055 32.665 30.7146 32.6657 30.7242L32.6694 30.7943C32.6705 30.8133 32.6761 30.8317 32.6856 30.8481C32.6952 30.8646 32.7084 30.8785 32.7243 30.8888C32.7403 30.8991 32.7584 30.9054 32.7772 30.9073C32.796 30.9092 32.815 30.9067 32.8326 30.8998L33.7973 30.5257C33.8051 30.5227 33.8135 30.5218 33.8218 30.523C33.83 30.5243 33.8378 30.5277 33.8443 30.5329C33.8508 30.5381 33.8559 30.5449 33.859 30.5527C33.862 30.5605 33.863 30.5689 33.8618 30.5772L33.8568 30.6144C33.8539 30.6363 33.8415 30.6489 33.8196 30.6523C33.6273 30.6816 33.5429 30.7885 33.5665 30.973C33.5698 30.9974 33.5839 31.0104 33.6087 31.0121C33.7447 31.0195 33.8703 30.9879 33.9852 30.9171C34.0034 30.9056 34.0231 30.8975 34.0442 30.893C34.1463 30.8702 34.1939 30.9021 34.1869 30.9885C34.1853 31.0081 34.1891 31.0277 34.1979 31.0452C34.2067 31.0628 34.2202 31.0776 34.2368 31.088C34.2535 31.0984 34.2726 31.1041 34.2923 31.1044C34.3119 31.1046 34.3312 31.0995 34.3482 31.0896C34.4573 31.0251 34.5762 30.9926 34.7049 30.9922C34.7268 30.9922 34.739 31.0032 34.7415 31.0251L34.7564 31.1535C34.7581 31.1688 34.7633 31.1834 34.7716 31.1963C34.7798 31.2093 34.7909 31.2201 34.8041 31.2281C34.8172 31.2361 34.8319 31.2409 34.8472 31.2423C34.8625 31.2437 34.8779 31.2415 34.8922 31.236C35.2371 31.1037 35.5817 30.9697 35.9258 30.834C35.9383 30.829 35.9519 30.8273 35.9653 30.829C35.9787 30.8307 35.9914 30.8359 36.0023 30.8439C36.0131 30.8519 36.0218 30.8625 36.0274 30.8748C36.033 30.8871 36.0354 30.9006 36.0343 30.914L36.0312 30.9513C36.0296 30.9715 36.0188 30.9825 35.999 30.9841C35.8344 30.9966 35.6937 31.0598 35.5771 31.174C35.5598 31.1909 35.5479 31.2125 35.5428 31.2362C35.5378 31.2598 35.5397 31.2845 35.5485 31.307C35.5573 31.3295 35.5725 31.349 35.5923 31.3629C35.612 31.3769 35.6354 31.3848 35.6596 31.3855C35.7663 31.3893 35.8627 31.3607 35.9487 31.2999C35.9661 31.2879 35.9818 31.2898 35.9959 31.3055L36.1336 31.4656C36.1438 31.4775 36.1574 31.486 36.1727 31.4899C36.188 31.4939 36.2042 31.4932 36.2192 31.4879C36.4866 31.3936 37.2639 31.0325 37.5046 31.1033C37.5197 31.1076 37.5329 31.1169 37.5421 31.1296C37.5512 31.1424 37.5558 31.1579 37.555 31.1736C37.5542 31.1893 37.5481 31.2043 37.5377 31.216C37.5273 31.2278 37.5132 31.2357 37.4978 31.2385C37.3369 31.2679 37.1886 31.3276 37.053 31.4178C37.0348 31.4298 37.0257 31.4467 37.0257 31.4687V31.5977C37.0256 31.6126 37.0292 31.6272 37.0361 31.6404C37.0429 31.6536 37.0529 31.6649 37.0651 31.6734C37.0773 31.6818 37.0914 31.6872 37.1061 31.6891C37.1209 31.6909 37.1358 31.6891 37.1497 31.6839L37.5524 31.5344C37.5648 31.5299 37.5781 31.5286 37.5911 31.5308C37.6042 31.533 37.6164 31.5385 37.6266 31.5468C37.6369 31.5551 37.6448 31.566 37.6496 31.5782C37.6544 31.5905 37.656 31.6039 37.6541 31.6169C37.652 31.6306 37.6512 31.6457 37.6516 31.6622C37.6524 31.6814 37.6583 31.7001 37.6686 31.7162C37.679 31.7324 37.6935 31.7456 37.7106 31.7543C37.7276 31.7631 37.7468 31.7672 37.7659 31.7661C37.7851 31.7651 37.8037 31.759 37.8197 31.7484C37.9178 31.6843 38.0259 31.65 38.1442 31.6455C38.1498 31.6453 38.1554 31.6462 38.1607 31.6482C38.1659 31.6502 38.1708 31.6531 38.1748 31.6569C38.1789 31.6607 38.1822 31.6653 38.1845 31.6704C38.1868 31.6754 38.1881 31.6809 38.1882 31.6864L38.1901 31.7726C38.1907 31.7935 38.1964 31.8139 38.2066 31.8321C38.2169 31.8502 38.2314 31.8656 38.2489 31.8769C38.2664 31.8882 38.2865 31.8951 38.3072 31.8969C38.328 31.8987 38.3489 31.8955 38.3682 31.8874C38.5791 31.7987 39.4259 31.4134 39.5897 31.4618C39.6049 31.4663 39.6182 31.4757 39.6274 31.4887C39.6366 31.5017 39.641 31.5174 39.6401 31.5333C39.6392 31.5492 39.6329 31.5642 39.6222 31.5761C39.6116 31.5879 39.5973 31.5957 39.5816 31.5983C39.3976 31.6297 39.2327 31.705 39.0872 31.8241C39.0749 31.8341 39.0648 31.8465 39.0576 31.8605C39.0503 31.8746 39.0461 31.8899 39.045 31.9056C39.044 31.9214 39.0462 31.9371 39.0515 31.9519C39.0568 31.9667 39.0652 31.9802 39.076 31.9916C39.1808 32.1027 39.3955 31.9904 39.5072 31.9389C39.519 31.9336 39.5319 31.931 39.5449 31.9313C39.5578 31.9317 39.5705 31.9349 39.5821 31.9408C39.5936 31.9467 39.6036 31.9551 39.6113 31.9654C39.6191 31.9757 39.6244 31.9877 39.6269 32.0003L39.6474 32.1014C39.6504 32.1173 39.657 32.1323 39.6665 32.1454C39.676 32.1585 39.6883 32.1693 39.7024 32.1772C39.7166 32.185 39.7324 32.1897 39.7486 32.1909C39.7648 32.192 39.781 32.1897 39.7962 32.1839L40.7274 31.8303C40.7413 31.8251 40.7566 31.8248 40.7707 31.8294C40.7848 31.834 40.7969 31.8433 40.805 31.8558C40.8757 31.9674 40.6027 32.0183 40.5351 32.0444C40.5132 32.053 40.5035 32.0688 40.5059 32.0915L40.5239 32.2813C40.525 32.2935 40.5309 32.3047 40.5401 32.3126C40.5494 32.3205 40.5614 32.3244 40.5736 32.3235C40.7311 32.3136 40.8794 32.27 41.0184 32.1926C41.0357 32.1831 41.0527 32.1839 41.0692 32.1951C41.1152 32.2261 41.1329 32.272 41.1226 32.3328C41.1218 32.3375 41.122 32.3422 41.1232 32.3467C41.1243 32.3513 41.1264 32.3556 41.1294 32.3593C41.1323 32.363 41.1359 32.3661 41.1401 32.3684C41.1443 32.3707 41.1489 32.3721 41.1536 32.3725C41.2049 32.3767 41.2562 32.3781 41.3075 32.3769C41.4408 32.3732 41.5041 32.2813 41.6654 32.2987C41.6844 32.3008 41.694 32.3113 41.694 32.3304V32.4668C41.694 32.4867 41.7037 32.497 41.7231 32.4979C42.202 32.5239 42.9322 31.9333 43.3243 32.1523C43.33 32.1555 43.3347 32.1603 43.3378 32.1662C43.3409 32.172 43.3422 32.1786 43.3416 32.1851C43.341 32.1917 43.3385 32.1979 43.3345 32.2031C43.3304 32.2083 43.3249 32.2122 43.3187 32.2143C43.1866 32.2584 42.3919 32.4513 42.6679 32.7193C42.7405 32.7894 43.0464 32.6436 43.1301 32.6275C43.1361 32.6264 43.1422 32.6264 43.1482 32.6277C43.1541 32.629 43.1597 32.6315 43.1646 32.6351C43.1696 32.6386 43.1737 32.6431 43.1769 32.6483C43.18 32.6535 43.182 32.6593 43.1828 32.6654C43.1919 32.7361 43.2252 32.7911 43.2827 32.8304C43.2989 32.8411 43.316 32.8432 43.3342 32.8366C43.6961 32.7071 44.0563 32.5735 44.4149 32.4358C44.5669 32.3781 44.7158 32.3682 44.8653 32.3961C44.8771 32.3985 44.8878 32.4047 44.8959 32.4136C44.9039 32.4226 44.9088 32.434 44.9098 32.446C44.9109 32.458 44.908 32.47 44.9017 32.4803C44.8953 32.4905 44.8858 32.4984 44.8746 32.5028L44.1264 32.7882C44.1 32.7985 44.0886 32.8178 44.0923 32.8459L44.1208 33.058C44.1218 33.0646 44.1242 33.0709 44.1278 33.0764C44.1314 33.082 44.1362 33.0867 44.1418 33.0902C44.1474 33.0937 44.1537 33.096 44.1602 33.0969C44.1668 33.0978 44.1735 33.0972 44.1798 33.0953L44.6432 32.9526C44.6697 32.9443 44.6864 32.9534 44.6934 32.9799L44.7232 33.0909C44.729 33.112 44.7427 33.1234 44.7642 33.125C44.9354 33.1379 45.0913 33.0971 45.2319 33.0028C45.2464 32.9931 45.263 32.987 45.2804 32.9849C45.2978 32.9828 45.3154 32.9849 45.3318 32.9909C45.3482 32.997 45.3631 33.0068 45.375 33.0197C45.387 33.0325 45.3958 33.048 45.4007 33.0649L45.4286 33.1641C45.4455 33.2229 45.4828 33.2419 45.5403 33.2212C45.9596 33.0705 46.5353 32.7696 46.9479 32.7541C46.9638 32.7535 46.9795 32.7585 46.9922 32.7682C47.0049 32.7778 47.0139 32.7915 47.0177 32.807C47.0215 32.8225 47.0198 32.8389 47.013 32.8533C47.0061 32.8677 46.9945 32.8793 46.9801 32.8862C46.7946 32.9737 46.3678 33.0729 46.2766 33.246C46.2646 33.2688 46.2598 33.2947 46.2627 33.3203C46.2656 33.3459 46.2761 33.37 46.2929 33.3896C46.3097 33.4091 46.332 33.4231 46.3568 33.4298C46.3817 33.4365 46.408 33.4356 46.4323 33.4272L46.7841 33.3056C46.8374 33.287 46.8618 33.3058 46.8573 33.362C46.8511 33.4394 46.8813 33.4971 46.9479 33.5351C46.957 33.5405 46.9672 33.5438 46.9777 33.5446C46.9882 33.5455 46.9988 33.5439 47.0087 33.5401C47.4212 33.3813 47.8425 33.2367 48.255 33.0754C48.3803 33.027 48.5087 33.0105 48.6402 33.0258C48.6478 33.0266 48.6551 33.0292 48.6615 33.0334C48.6679 33.0375 48.6732 33.0431 48.677 33.0498C48.6809 33.0564 48.6832 33.0638 48.6837 33.0715C48.6842 33.0792 48.6829 33.0869 48.6799 33.094C48.5869 33.318 47.5831 33.3378 47.7221 33.6983C47.73 33.7198 47.7453 33.7322 47.768 33.7355C47.9264 33.7607 48.0712 33.7297 48.2023 33.6424C48.2139 33.6346 48.2272 33.6295 48.2411 33.6276C48.255 33.6256 48.2692 33.6268 48.2826 33.6311C48.2959 33.6354 48.3081 33.6427 48.3183 33.6524C48.3285 33.6621 48.3363 33.674 48.3412 33.6871L48.3847 33.8019C48.3946 33.8283 48.4134 33.8395 48.4411 33.8354C48.5892 33.813 48.7213 33.7584 48.8375 33.6716C48.8465 33.6647 48.8572 33.6604 48.8684 33.6591C48.8796 33.6578 48.891 33.6595 48.9014 33.664C48.9118 33.6685 48.9209 33.6758 48.9276 33.6849C48.9344 33.6941 48.9386 33.7049 48.9399 33.7163L48.9535 33.8447C48.9564 33.8691 48.9701 33.8829 48.9945 33.8862C49.2073 33.9148 49.4362 33.7851 49.6434 33.7237C49.6527 33.721 49.6607 33.715 49.6661 33.7068C49.6714 33.6987 49.6737 33.6888 49.6725 33.679C49.6279 33.3397 49.7352 33.0915 50.0466 32.9334C50.6219 32.6405 51.1771 32.3614 51.7123 32.0959C51.8141 32.0454 51.8091 32.0107 51.6974 31.9916L25.4874 27.4567C25.4634 27.4526 25.4516 27.4625 25.452 27.4865L25.4651 29.0734C25.4651 29.0937 25.4574 29.11 25.4421 29.1224L25.3174 29.2242C25.2988 29.239 25.2855 29.2596 25.2797 29.2828C25.2738 29.3059 25.2758 29.3303 25.2851 29.3523C25.2945 29.3742 25.3108 29.3925 25.3315 29.4043C25.3522 29.4162 25.3763 29.4209 25.3999 29.4177C25.524 29.4024 25.6431 29.3815 25.7573 29.3551C25.7682 29.3524 25.7797 29.3528 25.7905 29.3562C25.8013 29.3596 25.8109 29.3658 25.8185 29.3742C25.8261 29.3826 25.8313 29.3929 25.8337 29.4041C25.836 29.4152 25.8353 29.4268 25.8317 29.4376C25.8143 29.488 25.8375 29.5304 25.9012 29.5647C25.9156 29.5725 25.9315 29.5771 25.9479 29.5782C25.9643 29.5792 25.9807 29.5768 25.9961 29.5709L26.5985 29.3402C26.6067 29.3369 26.6156 29.3363 26.6241 29.3384C26.6327 29.3404 26.6404 29.345 26.6462 29.3516C26.652 29.3582 26.6557 29.3664 26.6567 29.3751C26.6577 29.3838 26.656 29.3926 26.6518 29.4003C26.6059 29.488 26.5989 29.5813 26.6307 29.6801C26.6338 29.6903 26.6404 29.6991 26.6494 29.705C26.6583 29.7108 26.669 29.7135 26.6798 29.7124C26.8348 29.6967 26.98 29.6524 27.1153 29.5796C27.128 29.5726 27.1424 29.569 27.157 29.5693C27.1716 29.5695 27.1859 29.5736 27.1984 29.5811C27.2109 29.5885 27.2213 29.5991 27.2285 29.6118C27.2357 29.6245 27.2394 29.6389 27.2393 29.6535Z" stroke="#CDA558" stroke-width="2"/>
<path d="M21.955 30.7058C21.9553 30.7137 21.9583 30.7213 21.9634 30.7273C21.9686 30.7333 21.9757 30.7373 21.9835 30.7387L49.6086 36.1533C49.6136 36.1543 49.6189 36.1542 49.6238 36.1529C49.6288 36.1517 49.6335 36.1493 49.6375 36.1461C49.6414 36.1428 49.6446 36.1387 49.6468 36.1341C49.649 36.1294 49.6502 36.1243 49.6502 36.1192V35.3847C49.6502 35.3766 49.6474 35.3688 49.6423 35.3626C49.6372 35.3564 49.6301 35.3521 49.6222 35.3505L21.9736 30.0675C21.9685 30.0665 21.9632 30.0668 21.9582 30.0681C21.9532 30.0695 21.9486 30.072 21.9447 30.0753C21.9407 30.0787 21.9376 30.083 21.9355 30.0877C21.9334 30.0925 21.9325 30.0976 21.9326 30.1028L21.955 30.7058Z" stroke="#CDA558" stroke-width="2"/>
<path d="M50.1424 33.2239C50.38 33.2475 50.8075 33.3802 50.988 33.294C52.2382 32.698 53.4947 32.0985 54.7574 31.4955C54.7629 31.4929 54.7675 31.4885 54.7705 31.4831C54.7735 31.4777 54.7747 31.4716 54.774 31.4654C54.7733 31.4593 54.7708 31.4535 54.7667 31.4489C54.7626 31.4443 54.7572 31.4411 54.7511 31.4397L53.8733 31.2443C53.8506 31.2393 53.8287 31.2422 53.8076 31.253L50.1343 33.1805C50.1299 33.1827 50.1262 33.1863 50.124 33.1908C50.1218 33.1952 50.1211 33.2003 50.122 33.2052C50.1229 33.2101 50.1254 33.2146 50.1291 33.218C50.1328 33.2214 50.1374 33.2234 50.1424 33.2239Z" stroke="#CDA558" stroke-width="2"/>
<path d="M49.9017 36.2393L50.6238 36.3746C50.647 36.3791 50.6586 36.3696 50.6586 36.346V33.6356C50.6585 33.6179 50.6522 33.6008 50.6407 33.5873C50.6293 33.5737 50.6134 33.5647 50.5959 33.5618L49.978 33.4601C49.9056 33.4481 49.8692 33.4787 49.8688 33.5519L49.8657 36.1965C49.8657 36.2205 49.8777 36.2348 49.9017 36.2393Z" stroke="#CDA558" stroke-width="2"/>
<path d="M54.2472 50.4807C54.2495 50.4789 54.2513 50.4767 54.2526 50.4741C54.2539 50.4715 54.2546 50.4687 54.2546 50.4658L54.2602 37.6645C54.2602 37.6612 54.2594 37.6579 54.2578 37.655C54.2563 37.6521 54.2539 37.6497 54.2511 37.6479C54.2483 37.6462 54.2451 37.6452 54.2418 37.645C54.2385 37.6449 54.2352 37.6456 54.2323 37.6471L53.0418 38.2327C53.0386 38.2343 53.0359 38.2368 53.034 38.2399C53.0322 38.243 53.0312 38.2465 53.0313 38.2501V51.3784C53.0312 51.382 53.0322 51.3856 53.034 51.3887C53.0359 51.3918 53.0386 51.3943 53.0419 51.3959C53.0451 51.3975 53.0488 51.3982 53.0524 51.3978C53.056 51.3975 53.0594 51.3961 53.0623 51.3939L54.2472 50.4807Z" stroke="#CDA558" stroke-width="2"/>
<path d="M49.648 38.7345C49.6482 38.7399 49.6502 38.7452 49.6537 38.7494C49.6572 38.7537 49.6619 38.7567 49.6672 38.758L50.5333 38.9919C50.5371 38.993 50.5411 38.9931 50.545 38.9924C50.5488 38.9916 50.5525 38.99 50.5556 38.9876C50.5587 38.9852 50.5613 38.9821 50.563 38.9785C50.5647 38.975 50.5656 38.971 50.5655 38.9671V37.9311C50.5655 37.9252 50.5635 37.9195 50.5597 37.915C50.556 37.9105 50.5508 37.9074 50.5451 37.9063L49.6232 37.7319C49.6194 37.7312 49.6155 37.7313 49.6118 37.7323C49.608 37.7332 49.6046 37.7351 49.6017 37.7376C49.5987 37.7401 49.5964 37.7432 49.5949 37.7468C49.5933 37.7503 49.5926 37.7541 49.5928 37.758L49.648 38.7345Z" stroke="#CDA558" stroke-width="2"/>
<path d="M52.3002 38.6552C52.2865 42.9751 52.2706 47.2951 52.2524 51.6154C52.2518 51.7252 52.2313 51.8722 52.2276 52.0025C52.2273 52.0085 52.2286 52.0144 52.2316 52.0197C52.2345 52.0249 52.2388 52.0292 52.2441 52.032C52.2493 52.0349 52.2553 52.0362 52.2613 52.0358C52.2673 52.0354 52.273 52.0333 52.2778 52.0298L52.6637 51.7581C52.6794 51.7469 52.6887 51.7318 52.6916 51.7128C52.7119 51.5746 52.722 51.4359 52.722 51.2965C52.732 47.0011 52.747 42.7056 52.7673 38.4102C52.7677 38.3825 52.7559 38.3754 52.7319 38.3891L52.3231 38.6161C52.3078 38.6248 52.3002 38.6378 52.3002 38.6552Z" stroke="#CDA558" stroke-width="2"/>
<path d="M51.0738 52.268L51.8306 52.5248C51.839 52.5276 51.8479 52.5284 51.8567 52.527C51.8654 52.5257 51.8737 52.5223 51.8808 52.5171C51.8879 52.512 51.8936 52.5052 51.8975 52.4973C51.9014 52.4895 51.9034 52.4809 51.9032 52.4721C51.8771 50.2301 51.9199 47.9856 51.9305 45.7442C51.9417 43.4389 51.9607 41.1332 51.9876 38.8271C51.988 38.8035 51.9774 38.7969 51.9559 38.8072L51.0384 39.2458C51.0304 39.2495 51.0237 39.2553 51.019 39.2627C51.0143 39.2701 51.0117 39.2786 51.0117 39.2874L51.0353 52.214C51.0353 52.226 51.039 52.2376 51.0459 52.2473C51.0528 52.257 51.0625 52.2642 51.0738 52.268Z" stroke="#CDA558" stroke-width="2"/>
<path d="M51.9497 54.3487C51.9828 54.2284 51.996 54.1064 51.9894 53.9827C51.9677 53.5925 51.9757 53.2016 51.9776 52.8251C51.978 52.7585 52.0041 52.7043 52.0558 52.6625L54.5633 50.6594C54.579 50.6468 54.5917 50.6308 54.6004 50.6125C54.6091 50.5943 54.6136 50.5742 54.6136 50.5539L54.6142 37.247C54.6142 37.1667 54.578 37.1442 54.5056 37.1793L51.003 38.8866C50.9786 38.8986 50.9664 38.8909 50.9664 38.8636L50.9689 33.7338C50.9689 33.7111 50.979 33.6949 50.9993 33.6854L55.1235 31.7275C55.14 31.7193 55.1485 31.7058 55.1489 31.6872L55.2358 20.76C55.2358 20.7444 55.2411 20.7294 55.2508 20.7172C55.2605 20.705 55.274 20.6965 55.2891 20.693C56.151 20.4932 57.0047 20.2943 57.85 20.0962C58.0299 20.054 58.1646 19.9821 58.1137 19.7761C58.1087 19.7546 58.0953 19.7463 58.0734 19.7513L55.6198 20.3357C55.612 20.3375 55.6039 20.3375 55.5961 20.3356C55.5883 20.3338 55.581 20.3302 55.5748 20.3251C55.5686 20.32 55.5637 20.3135 55.5604 20.3062C55.5571 20.2989 55.5556 20.2909 55.5559 20.2829L55.5751 19.8543C55.5756 19.8417 55.5803 19.8297 55.5884 19.8203C55.5965 19.8108 55.6076 19.8044 55.6198 19.8021L58.2452 19.2996C58.2651 19.2957 58.283 19.2848 58.2958 19.2689C58.3085 19.253 58.3153 19.2332 58.3148 19.2129C58.3144 19.1926 58.3068 19.1732 58.2933 19.1581C58.2799 19.1429 58.2615 19.1331 58.2415 19.1303C58.0715 19.1067 57.9245 19.0546 57.7458 19.0881C57.0204 19.2246 56.296 19.3675 55.5727 19.5168C55.4604 19.5397 55.376 19.5341 55.2662 19.5224C45.4738 18.4644 35.6821 17.4005 25.891 16.3306C25.7992 16.3202 25.7312 16.3477 25.6869 16.4131C25.6801 16.423 25.6759 16.4345 25.6749 16.4465C25.6738 16.4584 25.6759 16.4705 25.6809 16.4814C25.6859 16.4924 25.6937 16.5018 25.7034 16.5089C25.7132 16.5159 25.7246 16.5203 25.7366 16.5216L55.1403 19.8053C55.161 19.8077 55.1802 19.8175 55.1943 19.8329C55.2083 19.8483 55.2162 19.8682 55.2166 19.889L55.2228 20.4008C55.2236 20.4562 55.1965 20.4808 55.1415 20.4746L25.2322 17.0682C25.2061 17.0653 25.19 17.0767 25.1838 17.1023C25.1491 17.2429 25.1977 17.3463 25.3296 17.4125C25.3767 17.4361 25.4406 17.4069 25.4983 17.4137C35.2568 18.5362 45.0139 19.6562 54.7699 20.7736C54.7781 20.7746 54.7857 20.7784 54.7912 20.7845C54.7967 20.7906 54.7997 20.7984 54.7997 20.8065L54.8003 31.1326C54.8002 31.1347 54.7997 31.1368 54.7988 31.1387C54.7979 31.1406 54.7965 31.1422 54.7948 31.1435C54.7932 31.1448 54.7912 31.1458 54.7892 31.1462C54.7871 31.1467 54.785 31.1467 54.7829 31.1462L54.1495 31.0042C54.1309 31 54.121 30.9885 54.1197 30.9694L53.7798 26.6107C53.7777 26.5855 53.7641 26.5708 53.7388 26.5667C53.2504 26.4868 52.7615 26.4103 52.2723 26.3371C43.7517 25.0637 35.2168 23.7866 26.6677 22.5057C26.6476 22.5027 26.6272 22.507 26.61 22.5179C26.5928 22.5287 26.5801 22.5453 26.5741 22.5647C26.2151 23.7115 25.861 24.8683 25.512 26.035C25.4408 26.2728 25.44 26.5028 25.5095 26.7249C25.5122 26.7339 25.5178 26.7419 25.5254 26.7475C25.533 26.7532 25.5422 26.7562 25.5517 26.7562C25.5612 26.7562 25.5704 26.7532 25.578 26.7475C25.5856 26.7419 25.5911 26.7339 25.5939 26.7249L26.793 22.9239C26.7972 22.9104 26.8061 22.8988 26.818 22.8913C26.83 22.8838 26.8442 22.8808 26.8582 22.8829L53.3908 26.8229C53.4102 26.8254 53.4175 26.8361 53.4125 26.8551L52.1315 31.7089C52.129 31.7188 52.1228 31.7273 52.1142 31.7328C52.1055 31.7384 52.0951 31.7404 52.0849 31.7387C43.25 30.1869 34.4137 28.6379 25.5759 27.0915C25.4692 27.0729 25.3836 27.0586 25.2738 27.0884C24.3748 27.3328 23.4492 27.4978 22.5404 27.7038C22.0019 27.8254 21.5714 27.8142 21.0546 27.7261C21.0269 27.7216 21.0145 27.7334 21.0174 27.7615L21.0279 27.8577C21.0296 27.8713 21.0372 27.8796 21.0509 27.8825L21.567 27.9805C21.5869 27.9841 21.6049 27.9946 21.6179 28.0102C21.631 28.0259 21.6382 28.0456 21.6384 28.0661L21.652 30.7523C21.6524 30.7751 21.6415 30.7848 21.6192 30.7815L21.0037 30.689C20.9736 30.6845 20.9589 30.6975 20.9597 30.7281L20.964 30.8634C20.9644 30.8734 20.9682 30.883 20.9747 30.8907C20.9812 30.8984 20.9902 30.9036 21 30.9055L50.5359 36.7178C50.5838 36.7273 50.6076 36.7567 50.6072 36.8059L50.601 37.4808C50.601 37.4874 50.5995 37.4939 50.5966 37.4998C50.5937 37.5057 50.5896 37.511 50.5844 37.5151C50.5792 37.5193 50.5732 37.5222 50.5668 37.5238C50.5603 37.5254 50.5536 37.5255 50.547 37.5243L25.3333 32.4453C25.3186 32.4423 25.303 32.4425 25.2882 32.4458C25.2734 32.4492 25.26 32.4555 25.2496 32.4641C25.2392 32.4727 25.2321 32.4832 25.2293 32.4945C25.2264 32.5058 25.2279 32.5173 25.2334 32.5278C25.2525 32.5638 25.2444 32.6099 25.2092 32.6661C25.1786 32.5942 25.1398 32.5384 25.0926 32.4986C25.0846 32.492 25.0753 32.4872 25.0652 32.4845C25.0551 32.4819 25.0446 32.4814 25.0343 32.4831C24.9896 32.4906 24.9514 32.48 24.9195 32.4515C24.9009 32.435 24.8792 32.4261 24.8544 32.4248L24.3265 32.4025C24.3085 32.4017 24.2905 32.4047 24.2737 32.4111C24.2569 32.4176 24.2415 32.4274 24.2287 32.44C24.2158 32.4527 24.2057 32.4678 24.1989 32.4845C24.1922 32.5012 24.1889 32.5191 24.1893 32.5371C24.203 33.1 24.2047 33.6807 24.1943 34.2791C24.1707 35.6332 24.1488 36.9874 24.1286 38.3419C24.1281 38.363 24.1213 38.3818 24.1081 38.3984C24.0529 38.4679 24.0659 38.6738 24.0405 38.7923C24.0057 38.9519 24.0037 39.162 24.0343 39.4226C24.0367 39.4441 24.0345 39.4648 24.0274 39.4846C24.0059 39.5458 24.0117 39.6033 24.0448 39.6571C24.0543 39.6728 24.0591 39.6898 24.0591 39.708C24.0599 40.8519 24.0624 41.9955 24.0665 43.1386C24.0669 43.2383 24.0723 43.328 24.0826 43.4079C24.0848 43.4247 24.0914 43.4406 24.1017 43.4541C24.112 43.4675 24.1257 43.4781 24.1413 43.4846C24.1569 43.4911 24.174 43.4934 24.1908 43.4913C24.2077 43.4892 24.2236 43.4826 24.2371 43.4724C24.4418 43.3169 24.6726 43.2346 24.9295 43.2255C24.9373 43.2251 24.9452 43.2264 24.9525 43.2292C24.9599 43.232 24.9666 43.2363 24.9723 43.2418C24.978 43.2473 24.9825 43.2539 24.9856 43.2613C24.9887 43.2686 24.9903 43.2765 24.9902 43.2844L24.9896 43.8992L24.1769 44.2906C24.1575 44.3002 24.1461 44.2942 24.1428 44.2727C24.1114 44.0427 24.1155 43.813 24.1552 43.5834C24.1598 43.5574 24.1494 43.54 24.1242 43.5313L24.0119 43.4922C23.9846 43.4827 23.9693 43.4924 23.966 43.5214C23.9404 43.7604 23.9298 44.0003 23.9344 44.241C23.9387 44.4836 23.7048 44.532 23.5193 44.5952C23.4883 44.606 23.473 44.595 23.4734 44.5624L23.5119 32.9242C23.5119 32.9035 23.522 32.8909 23.5423 32.8864L24.0814 32.7642C24.1095 32.758 24.1234 32.7404 24.123 32.7114L24.1211 32.6016C24.1207 32.5793 24.1093 32.569 24.087 32.5706C23.6099 32.6047 23.1397 32.717 22.6694 32.7989C22.6043 32.8101 22.5361 32.8448 22.4765 32.8715C22.4567 32.8802 22.4473 32.8953 22.4486 32.9168C22.4548 33.026 22.5255 33.0688 22.6322 33.052C22.8225 33.0214 23.0137 32.9889 23.2061 32.9546C23.21 32.9539 23.214 32.9541 23.2179 32.9551C23.2217 32.9561 23.2253 32.958 23.2284 32.9606C23.2315 32.9632 23.2339 32.9665 23.2357 32.9701C23.2374 32.9738 23.2383 32.9778 23.2383 32.9819V44.7311C23.2383 44.7401 23.236 44.749 23.2316 44.7569C23.2273 44.7648 23.2211 44.7715 23.2136 44.7764C23.2061 44.7813 23.1975 44.7842 23.1886 44.7848C23.1797 44.7855 23.1707 44.7838 23.1626 44.7801L22.5367 44.4966C22.5268 44.4922 22.5159 44.4904 22.5051 44.4913C22.4942 44.4921 22.4838 44.4957 22.4748 44.5017C22.4658 44.5076 22.4584 44.5157 22.4534 44.5252C22.4484 44.5348 22.4459 44.5454 22.4461 44.5562L22.4505 44.7553C22.4505 44.7735 22.4587 44.7869 22.4753 44.7956L22.9753 45.0556C22.9878 45.0621 22.9984 45.072 23.0057 45.0842C23.013 45.0963 23.0169 45.1102 23.0168 45.1244L23.0162 46.3329C22.6734 46.3503 22.4064 46.2301 22.2153 45.9725C22.2033 45.956 22.1969 45.9361 22.1973 45.916C22.2122 45.465 22.0323 44.831 22.425 44.4966C22.4399 44.4838 22.4473 44.4677 22.4473 44.4482C22.4473 41.4233 22.4473 38.3984 22.4473 35.3734C22.4473 34.7711 22.4815 34.1203 22.4926 33.4919C22.5001 33.0688 22.4647 32.959 22.0162 32.9484L22.0286 32.1574C22.029 32.138 22.0387 32.1301 22.0578 32.1339L24.0814 32.5173C24.0898 32.5188 24.0984 32.5187 24.1067 32.5167C24.115 32.5148 24.1229 32.5112 24.1297 32.506C24.1366 32.5009 24.1424 32.4944 24.1466 32.4869C24.1509 32.4795 24.1536 32.4712 24.1546 32.4627L24.172 32.2945C24.174 32.2743 24.167 32.2579 24.1509 32.2455C24.1025 32.2096 24.0553 32.187 24.0094 32.1779C23.2985 32.0307 22.3133 31.8355 21.054 31.5923C21.0304 31.5877 21.0188 31.5975 21.0193 31.6214L21.023 31.838C21.0234 31.8578 21.0335 31.8702 21.0534 31.8752L21.7054 32.0408C21.7294 32.047 21.7422 32.0623 21.7438 32.0867C21.7625 32.3659 21.7511 32.6345 21.7097 32.8926C21.242 32.9788 20.8294 32.7853 20.8685 32.2356C20.8735 32.162 20.8867 32.1045 20.9082 32.0631C20.9169 32.0454 20.9194 32.027 20.9157 32.0079C20.8685 31.7614 20.8238 31.5174 20.7817 31.2759C20.7519 31.1034 20.7965 30.9179 20.7928 30.7715C20.7688 29.9175 20.7626 29.063 20.7742 28.2082C20.7779 27.9315 20.9219 27.7063 21.2054 27.6511C21.26 27.6405 21.5156 27.6306 21.5 27.5419C21.4971 27.527 21.5031 27.5181 21.518 27.5152L23.0218 27.205C23.0379 27.2017 23.0528 27.1957 23.0665 27.187C23.1211 27.1527 23.1808 27.1399 23.2458 27.1486C23.2669 27.1515 23.2875 27.1496 23.3078 27.143C23.4679 27.0896 23.6261 27.0989 23.788 27.0549C24.1937 26.9445 24.6397 26.8725 25.0374 26.9966C25.0721 27.0073 25.136 26.9974 25.2291 26.9668C25.2473 26.9606 25.262 26.9498 25.2731 26.9345C25.4493 26.6907 25.3693 26.1541 25.3265 25.8706C25.2998 25.6919 25.3302 25.4928 25.3209 25.3352C25.3081 25.104 25.3013 24.8722 25.3004 24.6398C25.2942 22.4776 25.3008 20.3154 25.3203 18.1532C25.3215 18.0043 25.3042 17.7799 25.2682 17.4801C25.2657 17.4598 25.2554 17.4454 25.2372 17.4367C25.1486 17.3937 25.0777 17.3314 25.0244 17.2499C25.0136 17.2338 25.0062 17.216 25.002 17.1966C24.9499 16.9571 24.85 16.7958 25.0089 16.5495C25.0192 16.5338 25.0337 16.5235 25.0523 16.5185C25.1205 16.5007 25.1575 16.4555 25.1633 16.3827C25.165 16.3624 25.1759 16.3504 25.1962 16.3467C25.5767 16.2764 25.9601 16.2414 26.3464 16.2418C26.3687 16.2418 26.3879 16.2342 26.4041 16.2189C26.4243 16.1995 26.4444 16.1883 26.4642 16.1854C27.2935 16.0592 28.1268 15.9736 28.9643 15.9286C28.9689 15.9281 29.0289 15.929 29.1442 15.931C29.2652 15.9335 29.3905 15.8795 29.5022 15.8858C30.513 15.9374 31.2308 15.9922 31.6555 16.0501C32.1791 16.1213 32.5989 16.1682 32.9149 16.191C33.2443 16.2145 33.5619 16.2784 33.8895 16.3095C34.2338 16.3417 34.673 16.428 35.1072 16.4391C35.5374 16.4503 36.1733 16.5173 37.0149 16.6401C37.3276 16.6854 37.7116 16.6941 38.059 16.7568C38.1946 16.7812 38.3551 16.7985 38.5404 16.8089C38.7625 16.8213 38.9883 16.8759 39.1899 16.8901C40.3289 16.9683 41.1071 17.0427 41.5244 17.1135C41.7469 17.1515 41.935 17.1757 42.0889 17.186C42.695 17.2276 43.2961 17.3058 43.8967 17.3945C43.9599 17.4038 44.0344 17.4398 44.1125 17.4373C44.6299 17.4205 45.2484 17.5161 45.6461 17.5527C45.978 17.5831 46.3229 17.6408 46.6381 17.6693C47.1819 17.7177 47.7243 17.7789 48.2653 17.8529C48.7213 17.915 49.2511 17.933 49.6363 17.9752C50.2598 18.0434 50.8926 18.1557 51.5173 18.1886C52.2921 18.2289 53.0521 18.4032 53.8275 18.433C54.1843 18.446 54.5224 18.5136 54.8884 18.5285C55.2513 18.5434 55.5919 18.6501 55.9412 18.6725C56.5038 18.7084 56.9282 18.7668 57.4251 18.8251C57.4462 18.8275 57.4648 18.8356 57.4809 18.8493C57.5814 18.9343 57.7241 18.9231 57.8153 18.9473C58.1106 19.0254 58.507 19.0236 58.5541 19.4225C58.5845 19.6837 58.3321 19.8754 58.136 20.0137C58.0219 20.0943 58.0361 20.1862 58.0318 20.3065C58.0219 20.5848 58.0169 20.863 58.0169 21.1409C58.0169 21.1558 58.0115 21.1684 58.0008 21.1788L57.9846 21.1949C57.9826 21.1974 57.9815 21.2001 57.9815 21.2029C57.9902 21.5086 57.9962 22.2342 57.9995 23.3798C58.0165 29.184 58.0258 34.9882 58.0275 40.7924C58.0281 43.8006 58.0572 46.8087 58.0547 49.8175C58.0547 49.8328 58.0485 49.845 58.0361 49.8541L52.0626 54.3338C52.0454 54.3466 52.0243 54.353 52.003 54.3518L51.9497 54.3487Z" fill="#CDA558"/>
<path d="M51.9495 54.3486C51.8386 54.3933 51.7423 54.4134 51.6604 54.4088L51.653 52.8622C51.6528 52.8444 51.647 52.8271 51.6366 52.8127C51.6262 52.7982 51.6115 52.7874 51.5946 52.7816L50.6132 52.4435V52.2685L50.7708 52.1401C50.7844 52.1294 50.7913 52.1151 50.7913 52.0973L50.5332 39.3673C50.5328 39.345 50.5218 39.3309 50.5003 39.3251L49.4444 39.041C49.4063 39.0308 49.3726 39.0084 49.3485 38.9772C49.3244 38.9461 49.3112 38.9079 49.3111 38.8685L49.3048 37.665C49.3044 37.6398 49.292 37.6247 49.2676 37.6197C41.3004 36.0283 33.334 34.435 25.3685 32.8398C25.3102 32.828 25.2754 32.797 25.2165 32.7777L25.209 32.6661C25.2442 32.6098 25.2523 32.5637 25.2332 32.5277C25.2277 32.5172 25.2262 32.5057 25.2291 32.4944C25.2319 32.4832 25.239 32.4726 25.2494 32.464C25.2598 32.4554 25.2732 32.4491 25.288 32.4458C25.3028 32.4424 25.3184 32.4423 25.3331 32.4452L50.5468 37.5242C50.5534 37.5255 50.5601 37.5253 50.5666 37.5237C50.573 37.5222 50.579 37.5192 50.5842 37.515C50.5894 37.5109 50.5935 37.5057 50.5964 37.4997C50.5993 37.4938 50.6008 37.4873 50.6008 37.4808L50.607 36.8058C50.6074 36.7566 50.5836 36.7272 50.5357 36.7177L20.9998 30.9055C20.99 30.9035 20.981 30.8983 20.9745 30.8906C20.968 30.883 20.9642 30.8733 20.9638 30.8633L20.9595 30.728C20.9587 30.6974 20.9734 30.6844 21.0036 30.689L21.619 30.7814C21.6413 30.7847 21.6523 30.775 21.6518 30.7522L21.6382 28.066C21.638 28.0456 21.6308 28.0258 21.6177 28.0102C21.6047 27.9946 21.5867 27.984 21.5668 27.9804L21.0507 27.8824C21.0371 27.8795 21.0294 27.8712 21.0277 27.8576L21.0172 27.7614C21.0143 27.7333 21.0267 27.7215 21.0544 27.7261C21.5712 27.8142 22.0017 27.8253 22.5402 27.7037C23.4491 27.4978 24.3746 27.3328 25.2736 27.0883C25.3834 27.0586 25.469 27.0728 25.5757 27.0914C34.4135 28.6378 43.2498 30.1869 52.0847 31.7386C52.0949 31.7404 52.1053 31.7383 52.114 31.7328C52.1226 31.7272 52.1288 31.7187 52.1313 31.7088L53.4123 26.8551C53.4173 26.836 53.41 26.8253 53.3906 26.8228L26.858 22.8828C26.844 22.8807 26.8298 22.8837 26.8178 22.8912C26.8059 22.8987 26.797 22.9103 26.7928 22.9238L25.5937 26.7248C25.5909 26.7339 25.5854 26.7418 25.5778 26.7475C25.5702 26.7531 25.561 26.7562 25.5515 26.7562C25.542 26.7562 25.5328 26.7531 25.5252 26.7475C25.5176 26.7418 25.512 26.7339 25.5093 26.7248C25.4398 26.5027 25.4406 26.2727 25.5118 26.0349C25.8608 24.8682 26.2149 23.7114 26.5739 22.5646C26.5799 22.5452 26.5926 22.5286 26.6098 22.5178C26.627 22.507 26.6475 22.5027 26.6675 22.5057C35.2167 23.7865 43.7515 25.0636 52.2721 26.3371C52.7613 26.4103 53.2502 26.4868 53.7386 26.5666C53.7639 26.5707 53.7775 26.5854 53.7796 26.6106L54.1195 30.9694C54.1208 30.9884 54.1307 31 54.1493 31.0041L54.7827 31.1462C54.7848 31.1466 54.7869 31.1466 54.789 31.1462C54.791 31.1457 54.793 31.1448 54.7946 31.1435C54.7963 31.1422 54.7976 31.1405 54.7986 31.1386C54.7995 31.1367 54.8 31.1346 54.8001 31.1325L54.7995 20.8065C54.7995 20.7983 54.7965 20.7905 54.791 20.7844C54.7855 20.7784 54.7779 20.7745 54.7697 20.7736C45.0137 19.6561 35.2566 18.5361 25.4981 17.4137C25.4404 17.4068 25.3765 17.436 25.3294 17.4124C25.1975 17.3462 25.1489 17.2428 25.1836 17.1022C25.1898 17.0766 25.2059 17.0652 25.232 17.0681L55.1413 20.4746C55.1963 20.4808 55.2234 20.4562 55.2226 20.4007L55.2164 19.8889C55.216 19.8682 55.2081 19.8482 55.1941 19.8328C55.18 19.8174 55.1608 19.8076 55.14 19.8052L25.7364 16.5216C25.7244 16.5203 25.713 16.5159 25.7032 16.5088C25.6935 16.5018 25.6857 16.4923 25.6807 16.4814C25.6757 16.4704 25.6736 16.4584 25.6747 16.4464C25.6757 16.4344 25.6799 16.4229 25.6867 16.413C25.731 16.3477 25.799 16.3201 25.8908 16.3305C35.6819 17.4004 45.4736 18.4644 55.266 19.5223C55.3758 19.5341 55.4602 19.5397 55.5725 19.5167C56.2958 19.3674 57.0202 19.2245 57.7456 19.088C57.9243 19.0545 58.0713 19.1066 58.2413 19.1302C58.2613 19.133 58.2797 19.1429 58.2931 19.158C58.3066 19.1731 58.3142 19.1925 58.3146 19.2128C58.3151 19.2331 58.3083 19.2529 58.2956 19.2688C58.2828 19.2847 58.2649 19.2956 58.245 19.2996L55.6196 19.8021C55.6074 19.8043 55.5963 19.8107 55.5882 19.8202C55.5801 19.8297 55.5754 19.8417 55.5749 19.8542L55.5557 20.2829C55.5554 20.2909 55.5569 20.2989 55.5602 20.3062C55.5635 20.3135 55.5684 20.3199 55.5746 20.325C55.5808 20.3301 55.5881 20.3337 55.5959 20.3356C55.6037 20.3374 55.6118 20.3374 55.6196 20.3356L58.0732 19.7512C58.0951 19.7462 58.1085 19.7545 58.1135 19.776C58.1644 19.982 58.0297 20.054 57.8498 20.0961C57.0045 20.2942 56.1508 20.4932 55.2889 20.6929C55.2738 20.6964 55.2603 20.705 55.2506 20.7171C55.2409 20.7293 55.2356 20.7444 55.2356 20.7599L55.1487 31.6871C55.1483 31.7057 55.1398 31.7192 55.1233 31.7275L50.9991 33.6853C50.9788 33.6949 50.9687 33.711 50.9687 33.7337L50.9662 38.8636C50.9662 38.8909 50.9784 38.8985 51.0028 38.8865L54.5054 37.1793C54.5778 37.1441 54.614 37.1667 54.614 37.2469L54.6134 50.5538C54.6134 50.5742 54.6089 50.5942 54.6002 50.6125C54.5915 50.6307 54.5788 50.6467 54.5631 50.6593L52.0556 52.6625C52.0039 52.7043 51.9778 52.7584 51.9774 52.825C51.9755 53.2016 51.9675 53.5924 51.9892 53.9826C51.9958 54.1063 51.9826 54.2283 51.9495 54.3486ZM53.5687 27.347C53.5469 27.4426 53.4998 27.5362 53.4787 27.6225C53.1524 28.9405 52.825 30.2557 52.4967 31.568C52.4957 31.5723 52.4959 31.5767 52.4973 31.5808C52.4987 31.5849 52.5012 31.5886 52.5045 31.5913C52.5078 31.5941 52.5118 31.5958 52.516 31.5963C52.5202 31.5967 52.5245 31.596 52.5283 31.5941L53.7957 30.965C53.8044 30.9606 53.8116 30.9538 53.8164 30.9454C53.8212 30.937 53.8235 30.9275 53.823 30.9179L53.5835 27.3483C53.5811 27.3139 53.5761 27.3135 53.5687 27.347ZM22.0191 29.7497L23.714 30.0624C23.7237 30.0642 23.7338 30.0638 23.7434 30.0613C23.753 30.0588 23.762 30.0542 23.7697 30.0478C23.7774 30.0414 23.7836 30.0334 23.7879 30.0244C23.7922 30.0153 23.7945 30.0054 23.7946 29.9954L23.7977 29.6114C23.7977 29.5911 23.8068 29.5764 23.825 29.5673C23.9003 29.5293 23.9786 29.4983 24.0601 29.4743C24.3906 29.3771 24.7345 29.278 25.0918 29.1771C25.1381 29.1643 25.1613 29.1337 25.1613 29.0853V27.4289C25.1613 27.4232 25.1601 27.4175 25.1576 27.4123C25.1551 27.4071 25.1515 27.4025 25.1471 27.3988C25.1426 27.3952 25.1374 27.3926 25.1318 27.3913C25.1262 27.3899 25.1204 27.3899 25.1147 27.3911L21.9657 28.0673C21.9397 28.0731 21.9273 28.0892 21.9285 28.1157L21.985 29.7106C21.9858 29.7326 21.9972 29.7456 22.0191 29.7497ZM27.2395 29.6536V29.7348C27.2395 29.7592 27.2517 29.7716 27.2761 29.7721C27.4109 29.7749 27.5379 29.7448 27.657 29.6815C27.6716 29.6736 27.688 29.6697 27.7045 29.6701C27.7211 29.6705 27.7372 29.6751 27.7514 29.6836C27.7656 29.6922 27.7774 29.7042 27.7855 29.7186C27.7936 29.733 27.7979 29.7493 27.7978 29.7658V29.8589C27.7978 29.8636 27.7988 29.8682 27.8006 29.8726C27.8024 29.8769 27.8051 29.8808 27.8084 29.8841C27.8118 29.8874 27.8157 29.89 27.8201 29.8918C27.8245 29.8935 27.8291 29.8943 27.8338 29.8943C28.1353 29.8868 28.368 29.7714 28.6416 29.6604C28.8115 29.5909 28.9319 29.5773 29.0833 29.6678C29.0911 29.6725 29.0975 29.6794 29.1014 29.6877C29.1054 29.6959 29.1069 29.7052 29.1056 29.7142C29.1044 29.7233 29.1004 29.7318 29.0944 29.7387C29.0883 29.7456 29.0803 29.7505 29.0715 29.7528C28.9455 29.7863 28.6229 29.836 28.7588 30.0531C28.7758 30.0806 28.8018 30.1014 28.8323 30.1122C28.8629 30.1231 28.8962 30.1232 28.9269 30.1126L29.252 30.0016C29.2577 29.9996 29.2637 29.9988 29.2697 29.9994C29.2758 29.9999 29.2816 30.0017 29.2869 30.0046C29.2921 30.0075 29.2967 30.0115 29.3003 30.0164C29.304 30.0212 29.3065 30.0267 29.3078 30.0326L29.342 30.1803C29.3622 30.2671 29.4139 30.2944 29.497 30.2621L30.252 29.97C30.2614 29.9663 30.2717 29.9653 30.2816 29.9673C30.2915 29.9693 30.3007 29.974 30.308 29.981C30.3154 29.9881 30.3206 29.997 30.3231 30.0069C30.3256 30.0168 30.3253 30.0272 30.3221 30.037C30.3077 30.0804 30.2791 30.1133 30.2365 30.1356C30.2187 30.1447 30.2092 30.1594 30.208 30.1796L30.1993 30.3521C30.1981 30.3798 30.2113 30.3939 30.239 30.3943C30.4115 30.3959 30.5703 30.3496 30.7154 30.2553C30.728 30.247 30.7428 30.2428 30.7578 30.2432C30.7729 30.2436 30.7874 30.2487 30.7996 30.2576C30.8117 30.2666 30.8208 30.2791 30.8258 30.2934C30.8307 30.3078 30.8312 30.3232 30.8271 30.3378C30.7632 30.5692 31.2235 30.3788 31.3116 30.3682C31.334 30.3653 31.3476 30.3748 31.3526 30.3968L31.3929 30.568C31.3958 30.5801 31.4029 30.5908 31.413 30.5981C31.4231 30.6055 31.4355 30.6091 31.4481 30.6083C31.7192 30.5903 32.1169 30.3825 32.3811 30.282C32.3859 30.2802 32.3909 30.2794 32.3959 30.2796C32.401 30.2798 32.4059 30.281 32.4105 30.2832C32.415 30.2853 32.4191 30.2883 32.4225 30.2921C32.4259 30.2958 32.4285 30.3002 32.4302 30.305C32.4748 30.4334 32.1367 30.4489 32.1404 30.7212C32.1407 30.7306 32.1442 30.7395 32.1505 30.7465C32.1567 30.7534 32.1653 30.7579 32.1746 30.7591C32.3756 30.7851 32.4686 30.6753 32.6293 30.6871C32.6388 30.6878 32.6477 30.692 32.6544 30.6988C32.6611 30.7056 32.6652 30.7147 32.6659 30.7243L32.6696 30.7944C32.6707 30.8134 32.6763 30.8318 32.6858 30.8483C32.6953 30.8647 32.7086 30.8786 32.7245 30.8889C32.7404 30.8992 32.7586 30.9055 32.7774 30.9074C32.7962 30.9094 32.8152 30.9068 32.8328 30.8999L33.7974 30.5258C33.8052 30.5228 33.8137 30.5219 33.8219 30.5231C33.8302 30.5244 33.838 30.5278 33.8445 30.533C33.851 30.5382 33.8561 30.5451 33.8591 30.5528C33.8622 30.5606 33.8632 30.569 33.862 30.5773L33.857 30.6145C33.8541 30.6364 33.8417 30.649 33.8198 30.6524C33.6275 30.6817 33.5431 30.7886 33.5667 30.9731C33.57 30.9975 33.584 31.0105 33.6089 31.0122C33.7449 31.0196 33.8704 30.988 33.9854 30.9173C34.0036 30.9057 34.0233 30.8976 34.0444 30.8931C34.1465 30.8703 34.1941 30.9022 34.187 30.9886C34.1855 31.0082 34.1893 31.0278 34.1981 31.0453C34.2069 31.0629 34.2204 31.0777 34.237 31.0881C34.2536 31.0985 34.2728 31.1042 34.2925 31.1045C34.3121 31.1048 34.3314 31.0997 34.3483 31.0897C34.4575 31.0252 34.5764 30.9927 34.7051 30.9923C34.727 30.9923 34.7392 31.0033 34.7417 31.0252L34.7565 31.1536C34.7583 31.1689 34.7635 31.1835 34.7717 31.1964C34.78 31.2094 34.7911 31.2202 34.8042 31.2282C34.8174 31.2362 34.8321 31.241 34.8474 31.2424C34.8627 31.2438 34.8781 31.2416 34.8924 31.2361C35.2373 31.1038 35.5818 30.9698 35.9259 30.8341C35.9385 30.8291 35.9521 30.8274 35.9655 30.8291C35.9789 30.8309 35.9916 30.836 36.0025 30.844C36.0133 30.852 36.022 30.8626 36.0276 30.8749C36.0332 30.8872 36.0356 30.9007 36.0345 30.9142L36.0314 30.9514C36.0297 30.9716 36.019 30.9826 35.9991 30.9843C35.8345 30.9967 35.6939 31.0599 35.5773 31.1741C35.56 31.191 35.5481 31.2127 35.543 31.2363C35.5379 31.26 35.5399 31.2846 35.5487 31.3071C35.5575 31.3296 35.5727 31.3491 35.5925 31.3631C35.6122 31.377 35.6356 31.3849 35.6598 31.3856C35.7665 31.3894 35.8629 31.3608 35.9489 31.3C35.9663 31.288 35.982 31.2899 35.996 31.3056L36.1338 31.4657C36.144 31.4776 36.1576 31.4861 36.1729 31.4901C36.1882 31.494 36.2044 31.4933 36.2194 31.488C36.4868 31.3937 37.2641 31.0326 37.5048 31.1034C37.5199 31.1077 37.5331 31.117 37.5423 31.1297C37.5514 31.1425 37.556 31.158 37.5552 31.1737C37.5544 31.1894 37.5483 31.2044 37.5379 31.2162C37.5275 31.2279 37.5134 31.2359 37.498 31.2386C37.3371 31.268 37.1888 31.3277 37.0532 31.4179C37.035 31.4299 37.0259 31.4468 37.0259 31.4688V31.5978C37.0258 31.6127 37.0294 31.6273 37.0362 31.6405C37.0431 31.6537 37.0531 31.665 37.0653 31.6735C37.0775 31.6819 37.0916 31.6873 37.1063 31.6892C37.121 31.691 37.136 31.6893 37.1499 31.684L37.5526 31.5345C37.5649 31.53 37.5783 31.5287 37.5913 31.5309C37.6043 31.5331 37.6166 31.5386 37.6268 31.5469C37.6371 31.5552 37.645 31.5661 37.6498 31.5784C37.6546 31.5906 37.6562 31.604 37.6543 31.617C37.6522 31.6307 37.6514 31.6458 37.6518 31.6623C37.6526 31.6815 37.6585 31.7002 37.6688 31.7163C37.6792 31.7325 37.6936 31.7457 37.7107 31.7544C37.7278 31.7632 37.7469 31.7673 37.7661 31.7662C37.7853 31.7652 37.8039 31.7591 37.8199 31.7486C37.9179 31.6844 38.0261 31.6501 38.1444 31.6456C38.15 31.6454 38.1556 31.6463 38.1609 31.6483C38.1661 31.6503 38.1709 31.6532 38.175 31.657C38.1791 31.6608 38.1824 31.6654 38.1847 31.6705C38.187 31.6755 38.1883 31.681 38.1884 31.6865L38.1903 31.7727C38.1909 31.7936 38.1965 31.814 38.2068 31.8322C38.217 31.8503 38.2316 31.8657 38.2491 31.877C38.2666 31.8883 38.2866 31.8952 38.3074 31.897C38.3282 31.8988 38.3491 31.8956 38.3683 31.8875C38.5793 31.7988 39.4261 31.4136 39.5898 31.4619C39.6051 31.4664 39.6184 31.4759 39.6276 31.4888C39.6367 31.5018 39.6412 31.5175 39.6403 31.5334C39.6394 31.5493 39.6331 31.5643 39.6224 31.5762C39.6118 31.588 39.5975 31.5958 39.5818 31.5984C39.3977 31.6299 39.2329 31.7051 39.0873 31.8242C39.0751 31.8342 39.065 31.8466 39.0578 31.8606C39.0505 31.8747 39.0462 31.89 39.0452 31.9057C39.0441 31.9215 39.0464 31.9372 39.0517 31.952C39.057 31.9668 39.0654 31.9803 39.0762 31.9917C39.181 32.1028 39.3957 31.9905 39.5073 31.939C39.5192 31.9337 39.5321 31.9311 39.545 31.9314C39.558 31.9318 39.5707 31.935 39.5822 31.9409C39.5937 31.9468 39.6038 31.9552 39.6115 31.9655C39.6193 31.9758 39.6246 31.9878 39.6271 32.0004L39.6475 32.1015C39.6506 32.1174 39.6571 32.1324 39.6667 32.1455C39.6762 32.1586 39.6884 32.1694 39.7026 32.1773C39.7168 32.1851 39.7325 32.1898 39.7487 32.191C39.7649 32.1922 39.7812 32.1898 39.7964 32.1841L40.7276 31.8304C40.7415 31.8252 40.7568 31.8249 40.7709 31.8295C40.785 31.8341 40.7971 31.8434 40.8052 31.8559C40.8759 31.9675 40.6029 32.0184 40.5353 32.0445C40.5134 32.0532 40.5037 32.0689 40.5061 32.0916L40.5241 32.2815C40.5252 32.2936 40.531 32.3048 40.5403 32.3127C40.5496 32.3206 40.5616 32.3245 40.5738 32.3236C40.7313 32.3137 40.8796 32.2701 41.0186 32.1927C41.0359 32.1832 41.0529 32.1841 41.0694 32.1952C41.1153 32.2262 41.1331 32.2721 41.1228 32.3329C41.122 32.3376 41.1222 32.3423 41.1234 32.3468C41.1245 32.3514 41.1266 32.3557 41.1295 32.3594C41.1324 32.3631 41.1361 32.3662 41.1403 32.3685C41.1445 32.3708 41.1491 32.3722 41.1538 32.3726C41.2051 32.3768 41.2564 32.3782 41.3077 32.377C41.441 32.3733 41.5043 32.2815 41.6656 32.2988C41.6846 32.3009 41.6941 32.3114 41.6941 32.3305V32.4669C41.6941 32.4868 41.7039 32.4971 41.7233 32.498C42.2022 32.524 42.9324 31.9334 43.3245 32.1524C43.3302 32.1556 43.3349 32.1604 43.338 32.1663C43.3411 32.1721 43.3424 32.1787 43.3418 32.1852C43.3412 32.1918 43.3387 32.198 43.3347 32.2032C43.3306 32.2084 43.3251 32.2123 43.3189 32.2145C43.1868 32.2585 42.3921 32.4514 42.6681 32.7194C42.7407 32.7895 43.0466 32.6437 43.1303 32.6276C43.1363 32.6265 43.1424 32.6265 43.1483 32.6278C43.1543 32.6291 43.1599 32.6316 43.1648 32.6352C43.1698 32.6387 43.1739 32.6432 43.177 32.6484C43.1802 32.6537 43.1822 32.6594 43.183 32.6655C43.1921 32.7362 43.2254 32.7912 43.2829 32.8305C43.299 32.8412 43.3162 32.8433 43.3344 32.8367C43.6963 32.7072 44.0565 32.5736 44.4151 32.4359C44.5671 32.3782 44.716 32.3683 44.8655 32.3962C44.8773 32.3986 44.888 32.4048 44.896 32.4137C44.9041 32.4227 44.909 32.4341 44.91 32.4461C44.9111 32.4581 44.9082 32.4701 44.9019 32.4804C44.8955 32.4906 44.886 32.4985 44.8748 32.5029L44.1266 32.7883C44.1001 32.7986 44.0888 32.8179 44.0925 32.846L44.121 33.0582C44.122 33.0647 44.1244 33.071 44.128 33.0765C44.1316 33.0821 44.1363 33.0868 44.1419 33.0903C44.1475 33.0939 44.1538 33.0961 44.1604 33.097C44.167 33.0979 44.1736 33.0973 44.18 33.0954L44.6434 32.9527C44.6699 32.9444 44.6866 32.9535 44.6936 32.98L44.7234 33.091C44.7292 33.1121 44.7428 33.1235 44.7644 33.1252C44.9356 33.138 45.0915 33.0972 45.2321 33.0029C45.2466 32.9932 45.2632 32.9871 45.2806 32.985C45.2979 32.9829 45.3156 32.985 45.332 32.991C45.3484 32.9971 45.3632 33.0069 45.3752 33.0198C45.3872 33.0326 45.396 33.0481 45.4009 33.065L45.4288 33.1642C45.4457 33.223 45.483 33.242 45.5404 33.2213C45.9598 33.0706 46.5355 32.7697 46.9481 32.7542C46.964 32.7536 46.9797 32.7586 46.9924 32.7683C47.0051 32.7779 47.0141 32.7916 47.0179 32.8071C47.0217 32.8226 47.02 32.839 47.0131 32.8534C47.0063 32.8678 46.9947 32.8794 46.9803 32.8863C46.7948 32.9738 46.368 33.073 46.2768 33.2461C46.2648 33.2689 46.26 33.2948 46.2629 33.3204C46.2657 33.346 46.2763 33.3701 46.2931 33.3897C46.3099 33.4092 46.3321 33.4232 46.357 33.4299C46.3819 33.4366 46.4082 33.4357 46.4325 33.4273L46.7843 33.3057C46.8376 33.2871 46.862 33.3059 46.8575 33.3621C46.8513 33.4395 46.8815 33.4972 46.9481 33.5352C46.9571 33.5406 46.9674 33.5439 46.9779 33.5447C46.9884 33.5456 46.999 33.544 47.0089 33.5402C47.4214 33.3814 47.8426 33.2368 48.2552 33.0755C48.3805 33.0271 48.5089 33.0106 48.6404 33.0259C48.648 33.0267 48.6553 33.0293 48.6617 33.0335C48.668 33.0376 48.6734 33.0432 48.6772 33.0499C48.6811 33.0565 48.6834 33.0639 48.6839 33.0716C48.6844 33.0793 48.6831 33.087 48.6801 33.0941C48.5871 33.3181 47.5833 33.3379 47.7223 33.6984C47.7301 33.7199 47.7454 33.7323 47.7682 33.7356C47.9266 33.7608 48.0713 33.7298 48.2024 33.6425C48.2141 33.6347 48.2274 33.6296 48.2413 33.6277C48.2552 33.6257 48.2694 33.627 48.2827 33.6312C48.2961 33.6355 48.3083 33.6428 48.3185 33.6525C48.3287 33.6622 48.3365 33.6741 48.3414 33.6872L48.3848 33.802C48.3948 33.8284 48.4136 33.8396 48.4413 33.8355C48.5894 33.8131 48.7215 33.7586 48.8377 33.6717C48.8467 33.6649 48.8574 33.6605 48.8686 33.6592C48.8798 33.6579 48.8912 33.6596 48.9016 33.6641C48.912 33.6686 48.9211 33.6759 48.9278 33.6851C48.9346 33.6942 48.9388 33.705 48.9401 33.7164L48.9537 33.8448C48.9566 33.8692 48.9703 33.883 48.9947 33.8863C49.2074 33.9149 49.4364 33.7852 49.6436 33.7238C49.6529 33.7211 49.6609 33.7151 49.6663 33.7069C49.6716 33.6988 49.6739 33.6889 49.6727 33.6791C49.6281 33.3398 49.7354 33.0917 50.0468 32.9335C50.6221 32.6406 51.1773 32.3615 51.7125 32.096C51.8142 32.0455 51.8093 32.0108 51.6976 31.9917L25.4876 27.4568C25.4636 27.4527 25.4518 27.4626 25.4522 27.4866L25.4653 29.0735C25.4653 29.0938 25.4576 29.1101 25.4423 29.1225L25.3176 29.2243C25.299 29.2392 25.2857 29.2597 25.2799 29.2829C25.274 29.306 25.2759 29.3304 25.2853 29.3524C25.2947 29.3744 25.311 29.3926 25.3317 29.4045C25.3524 29.4163 25.3765 29.421 25.4001 29.4178C25.5242 29.4025 25.6433 29.3816 25.7574 29.3552C25.7684 29.3525 25.7799 29.3529 25.7907 29.3563C25.8014 29.3597 25.8111 29.3659 25.8187 29.3743C25.8263 29.3827 25.8315 29.393 25.8338 29.4042C25.8362 29.4153 25.8355 29.4269 25.8319 29.4377C25.8145 29.4881 25.8377 29.5305 25.9014 29.5648C25.9158 29.5726 25.9317 29.5772 25.9481 29.5783C25.9645 29.5793 25.9809 29.5769 25.9963 29.5711L26.5987 29.3403C26.6068 29.3371 26.6158 29.3364 26.6243 29.3385C26.6329 29.3405 26.6406 29.3451 26.6464 29.3517C26.6522 29.3583 26.6559 29.3665 26.6569 29.3752C26.6579 29.3839 26.6562 29.3927 26.652 29.4004C26.6061 29.4881 26.5991 29.5814 26.6309 29.6802C26.634 29.6904 26.6406 29.6992 26.6495 29.7051C26.6585 29.7109 26.6692 29.7136 26.6799 29.7125C26.835 29.6968 26.9802 29.6525 27.1154 29.5797C27.1282 29.5727 27.1426 29.5692 27.1572 29.5694C27.1718 29.5697 27.1861 29.5737 27.1986 29.5812C27.2111 29.5886 27.2215 29.5992 27.2287 29.6119C27.2359 29.6246 27.2396 29.639 27.2395 29.6536ZM21.9552 30.7057C21.9555 30.7136 21.9585 30.7212 21.9637 30.7272C21.9689 30.7332 21.9759 30.7372 21.9837 30.7386L49.6088 36.1532C49.6139 36.1542 49.6191 36.1541 49.6241 36.1528C49.6291 36.1516 49.6337 36.1492 49.6377 36.146C49.6417 36.1427 49.6449 36.1386 49.6471 36.1339C49.6493 36.1293 49.6504 36.1242 49.6504 36.1191V35.3845C49.6504 35.3765 49.6476 35.3687 49.6425 35.3625C49.6374 35.3563 49.6304 35.352 49.6225 35.3504L21.9738 30.0673C21.9687 30.0664 21.9635 30.0666 21.9585 30.068C21.9534 30.0694 21.9488 30.0718 21.9449 30.0752C21.941 30.0786 21.9378 30.0829 21.9358 30.0876C21.9337 30.0924 21.9327 30.0975 21.9329 30.1027L21.9552 30.7057ZM50.1423 33.2238C50.3799 33.2474 50.8074 33.3801 50.9879 33.2939C52.2382 32.6979 53.4946 32.0984 54.7573 31.4954C54.7628 31.4928 54.7674 31.4884 54.7704 31.483C54.7734 31.4776 54.7746 31.4715 54.774 31.4653C54.7733 31.4592 54.7707 31.4534 54.7666 31.4488C54.7625 31.4442 54.7571 31.441 54.7511 31.4396L53.8733 31.2442C53.8505 31.2392 53.8286 31.2421 53.8075 31.2529L50.1343 33.1804C50.1298 33.1826 50.1262 33.1862 50.1239 33.1907C50.1217 33.1951 50.121 33.2002 50.1219 33.2051C50.1228 33.21 50.1253 33.2145 50.129 33.2179C50.1327 33.2213 50.1374 33.2233 50.1423 33.2238ZM49.9016 36.2394L50.6238 36.3747C50.6469 36.3792 50.6585 36.3697 50.6585 36.3461V33.6357C50.6584 33.618 50.6521 33.6009 50.6407 33.5874C50.6292 33.5738 50.6133 33.5648 50.5958 33.5619L49.978 33.4602C49.9056 33.4482 49.8692 33.4788 49.8688 33.552L49.8657 36.1966C49.8657 36.2206 49.8777 36.2349 49.9016 36.2394ZM54.2473 50.4806C54.2496 50.4789 54.2515 50.4766 54.2528 50.474C54.254 50.4715 54.2547 50.4686 54.2548 50.4657L54.2604 37.6644C54.2604 37.6611 54.2596 37.6578 54.258 37.6549C54.2564 37.652 54.2541 37.6496 54.2513 37.6479C54.2485 37.6461 54.2453 37.6451 54.242 37.645C54.2387 37.6448 54.2354 37.6455 54.2324 37.647L53.042 38.2327C53.0388 38.2343 53.0361 38.2368 53.0342 38.2398C53.0323 38.2429 53.0314 38.2464 53.0314 38.25V51.3783C53.0314 51.3819 53.0323 51.3855 53.0342 51.3886C53.0361 51.3917 53.0388 51.3942 53.042 51.3958C53.0453 51.3974 53.0489 51.3981 53.0525 51.3978C53.0561 51.3974 53.0596 51.396 53.0624 51.3938L54.2473 50.4806ZM49.6479 38.7345C49.6482 38.74 49.6502 38.7453 49.6536 38.7495C49.6571 38.7538 49.6618 38.7568 49.6671 38.7581L50.5332 38.992C50.537 38.9931 50.541 38.9932 50.5449 38.9925C50.5487 38.9917 50.5524 38.9901 50.5555 38.9877C50.5586 38.9852 50.5612 38.9821 50.5629 38.9786C50.5646 38.975 50.5655 38.9711 50.5654 38.9672V37.9312C50.5654 37.9253 50.5634 37.9196 50.5596 37.9151C50.5559 37.9106 50.5507 37.9075 50.545 37.9063L49.6231 37.732C49.6193 37.7313 49.6154 37.7314 49.6117 37.7324C49.6079 37.7333 49.6045 37.7351 49.6016 37.7377C49.5986 37.7402 49.5963 37.7433 49.5948 37.7468C49.5932 37.7504 49.5925 37.7542 49.5927 37.7581L49.6479 38.7345ZM52.3 38.6551C52.2863 42.975 52.2704 47.295 52.2522 51.6153C52.2516 51.7251 52.2311 51.8721 52.2274 52.0024C52.2271 52.0084 52.2285 52.0143 52.2314 52.0196C52.2343 52.0248 52.2386 52.0291 52.2439 52.032C52.2492 52.0348 52.2551 52.0361 52.2611 52.0357C52.2671 52.0353 52.2728 52.0332 52.2777 52.0297L52.6635 51.758C52.6792 51.7468 52.6886 51.7317 52.6915 51.7127C52.7117 51.5746 52.7218 51.4358 52.7218 51.2964C52.7318 47.001 52.7469 42.7055 52.7671 38.4101C52.7675 38.3824 52.7558 38.3753 52.7318 38.389L52.323 38.6161C52.3076 38.6247 52.3 38.6378 52.3 38.6551ZM51.0735 52.2679L51.8304 52.5248C51.8388 52.5275 51.8477 52.5283 51.8564 52.527C51.8652 52.5256 51.8734 52.5222 51.8805 52.517C51.8877 52.5119 51.8934 52.5051 51.8973 52.4973C51.9012 52.4894 51.9031 52.4808 51.903 52.472C51.8769 50.23 51.9197 47.9855 51.9303 45.7441C51.9414 43.4388 51.9604 41.1331 51.9873 38.827C51.9877 38.8034 51.9772 38.7968 51.9557 38.8071L51.0382 39.2457C51.0302 39.2494 51.0235 39.2553 51.0188 39.2626C51.014 39.27 51.0115 39.2785 51.0115 39.2873L51.0351 52.214C51.0351 52.2259 51.0388 52.2375 51.0457 52.2472C51.0526 52.2569 51.0623 52.2641 51.0735 52.2679Z" fill="black"/>
<path d="M53.5836 27.3483L53.8231 30.9179C53.8236 30.9275 53.8213 30.9371 53.8164 30.9455C53.8116 30.9538 53.8044 30.9607 53.7958 30.9651L52.5283 31.5941C52.5245 31.596 52.5203 31.5968 52.5161 31.5963C52.5118 31.5958 52.5078 31.5941 52.5045 31.5914C52.5012 31.5886 52.4987 31.585 52.4973 31.5809C52.4959 31.5768 52.4957 31.5723 52.4967 31.5681C52.8251 30.2558 53.1524 28.9406 53.4787 27.6225C53.4998 27.5363 53.547 27.4426 53.5687 27.3471C53.5761 27.3136 53.5811 27.314 53.5836 27.3483Z" fill="#CDA558"/>
<path d="M23.7142 30.0626L22.0194 29.7499C21.9975 29.7457 21.9861 29.7327 21.9852 29.7108L21.9288 28.1158C21.9276 28.0894 21.94 28.0732 21.966 28.0674L25.115 27.3912C25.1206 27.39 25.1265 27.3901 25.1321 27.3914C25.1377 27.3928 25.1429 27.3954 25.1474 27.399C25.1518 27.4026 25.1554 27.4072 25.1579 27.4124C25.1603 27.4176 25.1616 27.4233 25.1615 27.4291V29.0855C25.1615 29.1339 25.1384 29.1645 25.0921 29.1773C24.7347 29.2782 24.3908 29.3772 24.0604 29.4744C23.9789 29.4984 23.9005 29.5294 23.8253 29.5675C23.8071 29.5766 23.798 29.5913 23.798 29.6115L23.7949 29.9956C23.7947 30.0056 23.7925 30.0155 23.7882 30.0245C23.7838 30.0336 23.7776 30.0416 23.77 30.0479C23.7623 30.0543 23.7533 30.0589 23.7437 30.0615C23.7341 30.064 23.724 30.0644 23.7142 30.0626Z" fill="#CDA558"/>
<path d="M27.2398 29.6537C27.2399 29.6391 27.2362 29.6248 27.229 29.6121C27.2218 29.5994 27.2114 29.5888 27.1989 29.5813C27.1864 29.5738 27.1721 29.5698 27.1575 29.5695C27.1429 29.5693 27.1285 29.5729 27.1157 29.5799C26.9805 29.6527 26.8353 29.6969 26.6802 29.7126C26.6695 29.7137 26.6588 29.7111 26.6498 29.7052C26.6409 29.6993 26.6343 29.6905 26.6312 29.6804C26.5994 29.5815 26.6064 29.4883 26.6523 29.4006C26.6565 29.3929 26.6582 29.384 26.6572 29.3753C26.6562 29.3666 26.6525 29.3584 26.6467 29.3518C26.6409 29.3453 26.6332 29.3407 26.6246 29.3386C26.6161 29.3366 26.6071 29.3372 26.599 29.3404L25.9966 29.5712C25.9812 29.577 25.9648 29.5795 25.9484 29.5784C25.932 29.5773 25.9161 29.5728 25.9017 29.565C25.838 29.5307 25.8148 29.4883 25.8322 29.4378C25.8358 29.427 25.8365 29.4154 25.8342 29.4043C25.8318 29.3932 25.8266 29.3828 25.819 29.3744C25.8114 29.366 25.8017 29.3598 25.791 29.3564C25.7802 29.3531 25.7687 29.3527 25.7578 29.3553C25.6436 29.3818 25.5245 29.4027 25.4004 29.418C25.3768 29.4211 25.3527 29.4164 25.332 29.4046C25.3113 29.3928 25.295 29.3745 25.2856 29.3525C25.2762 29.3306 25.2743 29.3062 25.2802 29.283C25.286 29.2599 25.2993 29.2393 25.3179 29.2244L25.4426 29.1227C25.4579 29.1103 25.4656 29.0939 25.4656 29.0737L25.4525 27.4867C25.4521 27.4628 25.4639 27.4528 25.4879 27.457L51.6979 31.9919C51.8096 32.0109 51.8145 32.0456 51.7128 32.0961C51.1776 32.3616 50.6224 32.6408 50.0471 32.9336C49.7357 33.0918 49.6284 33.3399 49.673 33.6793C49.6742 33.6891 49.6719 33.6989 49.6666 33.7071C49.6612 33.7153 49.6532 33.7212 49.6439 33.7239C49.4367 33.7854 49.2078 33.915 48.995 33.8865C48.9706 33.8832 48.9569 33.8693 48.954 33.8449L48.9404 33.7165C48.9391 33.7052 48.9349 33.6944 48.9281 33.6852C48.9214 33.676 48.9123 33.6688 48.9019 33.6642C48.8915 33.6597 48.8801 33.658 48.8689 33.6593C48.8577 33.6607 48.847 33.665 48.838 33.6718C48.7218 33.7587 48.5897 33.8133 48.4416 33.8356C48.4139 33.8397 48.3951 33.8286 48.3851 33.8021L48.3417 33.6873C48.3368 33.6742 48.329 33.6623 48.3188 33.6526C48.3086 33.6429 48.2964 33.6357 48.283 33.6314C48.2697 33.6271 48.2555 33.6259 48.2416 33.6278C48.2277 33.6298 48.2144 33.6349 48.2028 33.6427C48.0716 33.7299 47.9269 33.761 47.7685 33.7357C47.7457 33.7324 47.7304 33.72 47.7226 33.6985C47.5836 33.3381 48.5874 33.3182 48.6804 33.0943C48.6834 33.0872 48.6847 33.0794 48.6842 33.0718C48.6837 33.0641 48.6814 33.0566 48.6775 33.05C48.6737 33.0434 48.6684 33.0378 48.662 33.0336C48.6556 33.0294 48.6483 33.0269 48.6407 33.026C48.5092 33.0107 48.3808 33.0273 48.2555 33.0757C47.8429 33.237 47.4217 33.3815 47.0092 33.5403C46.9993 33.5442 46.9887 33.5457 46.9782 33.5449C46.9677 33.544 46.9575 33.5408 46.9484 33.5354C46.8818 33.4973 46.8516 33.4396 46.8578 33.3623C46.8623 33.306 46.8379 33.2872 46.7846 33.3058L46.4328 33.4274C46.4085 33.4359 46.3822 33.4368 46.3573 33.4301C46.3324 33.4234 46.3102 33.4093 46.2934 33.3898C46.2766 33.3703 46.2661 33.3461 46.2632 33.3205C46.2603 33.2949 46.2651 33.2691 46.2771 33.2463C46.3683 33.0732 46.7951 32.9739 46.9806 32.8864C46.995 32.8796 47.0066 32.8679 47.0135 32.8535C47.0203 32.8391 47.022 32.8228 47.0182 32.8073C47.0144 32.7918 47.0054 32.778 46.9927 32.7684C46.98 32.7588 46.9643 32.7538 46.9484 32.7543C46.5358 32.7698 45.9601 33.0707 45.5407 33.2214C45.4833 33.2421 45.446 33.2231 45.4291 33.1644L45.4012 33.0651C45.3963 33.0482 45.3875 33.0328 45.3755 33.0199C45.3635 33.0071 45.3487 32.9972 45.3323 32.9912C45.3159 32.9851 45.2982 32.9831 45.2809 32.9851C45.2635 32.9872 45.2469 32.9933 45.2324 33.0031C45.0918 33.0974 44.9359 33.1381 44.7647 33.1253C44.7432 33.1236 44.7295 33.1123 44.7237 33.0912L44.6939 32.9801C44.6869 32.9537 44.6702 32.9446 44.6437 32.9528L44.1803 33.0955C44.1739 33.0975 44.1673 33.098 44.1607 33.0971C44.1541 33.0963 44.1478 33.094 44.1422 33.0905C44.1366 33.0869 44.1319 33.0822 44.1283 33.0767C44.1247 33.0711 44.1223 33.0648 44.1213 33.0583L44.0928 32.8461C44.0891 32.818 44.1005 32.7988 44.1269 32.7884L44.8751 32.5031C44.8863 32.4987 44.8958 32.4907 44.9022 32.4805C44.9085 32.4703 44.9114 32.4582 44.9103 32.4462C44.9093 32.4342 44.9044 32.4229 44.8963 32.4139C44.8883 32.4049 44.8776 32.3987 44.8658 32.3964C44.7163 32.3684 44.5674 32.3784 44.4154 32.4361C44.0568 32.5738 43.6966 32.7074 43.3347 32.8368C43.3165 32.8434 43.2993 32.8414 43.2832 32.8306C43.2257 32.7913 43.1924 32.7363 43.1833 32.6656C43.1825 32.6596 43.1805 32.6538 43.1773 32.6486C43.1742 32.6434 43.1701 32.6389 43.1651 32.6353C43.1602 32.6318 43.1546 32.6293 43.1486 32.628C43.1427 32.6267 43.1366 32.6266 43.1306 32.6278C43.0469 32.6439 42.741 32.7897 42.6684 32.7196C42.3924 32.4516 43.1871 32.2586 43.3192 32.2146C43.3254 32.2124 43.3309 32.2085 43.335 32.2034C43.339 32.1982 43.3415 32.1919 43.3421 32.1854C43.3427 32.1788 43.3414 32.1722 43.3383 32.1664C43.3352 32.1606 43.3305 32.1558 43.3248 32.1526C42.9327 31.9336 42.2025 32.5242 41.7236 32.4981C41.7042 32.4973 41.6944 32.4869 41.6944 32.4671V32.3306C41.6944 32.3116 41.6849 32.301 41.6659 32.299C41.5046 32.2816 41.4413 32.3734 41.308 32.3771C41.2567 32.3784 41.2054 32.3769 41.1541 32.3728C41.1494 32.3723 41.1448 32.3709 41.1406 32.3686C41.1364 32.3663 41.1328 32.3632 41.1298 32.3595C41.1269 32.3558 41.1248 32.3515 41.1237 32.347C41.1225 32.3424 41.1223 32.3377 41.1231 32.3331C41.1334 32.2723 41.1156 32.2264 41.0697 32.1954C41.0532 32.1842 41.0362 32.1834 41.0189 32.1929C40.8799 32.2702 40.7316 32.3138 40.5741 32.3238C40.5619 32.3246 40.5499 32.3207 40.5406 32.3128C40.5314 32.3049 40.5255 32.2937 40.5244 32.2816L40.5064 32.0918C40.504 32.069 40.5137 32.0533 40.5356 32.0446C40.6032 32.0186 40.8762 31.9677 40.8055 31.856C40.7974 31.8436 40.7853 31.8343 40.7712 31.8296C40.7571 31.825 40.7418 31.8253 40.7279 31.8306L39.7967 32.1842C39.7815 32.1899 39.7653 32.1923 39.7491 32.1911C39.7328 32.19 39.7171 32.1853 39.7029 32.1774C39.6888 32.1696 39.6765 32.1587 39.667 32.1456C39.6574 32.1326 39.6509 32.1175 39.6478 32.1017L39.6274 32.0006C39.6249 31.9879 39.6196 31.976 39.6118 31.9657C39.6041 31.9554 39.5941 31.947 39.5825 31.9411C39.571 31.9351 39.5583 31.9319 39.5453 31.9316C39.5324 31.9312 39.5195 31.9338 39.5076 31.9391C39.396 31.9906 39.1813 32.1029 39.0765 31.9919C39.0657 31.9805 39.0573 31.967 39.052 31.9522C39.0467 31.9374 39.0444 31.9216 39.0455 31.9059C39.0465 31.8902 39.0508 31.8748 39.0581 31.8608C39.0653 31.8468 39.0754 31.8344 39.0877 31.8244C39.2332 31.7053 39.398 31.63 39.5821 31.5986C39.5978 31.596 39.6121 31.5881 39.6227 31.5763C39.6334 31.5645 39.6397 31.5494 39.6406 31.5335C39.6415 31.5177 39.6371 31.502 39.6279 31.489C39.6187 31.476 39.6054 31.4665 39.5902 31.4621C39.4264 31.4137 38.5796 31.7989 38.3686 31.8877C38.3494 31.8957 38.3285 31.899 38.3077 31.8972C38.2869 31.8953 38.2669 31.8885 38.2494 31.8772C38.2319 31.8659 38.2173 31.8505 38.2071 31.8323C38.1969 31.8141 38.1912 31.7937 38.1906 31.7729L38.1887 31.6867C38.1886 31.6811 38.1873 31.6757 38.185 31.6706C38.1827 31.6655 38.1794 31.661 38.1753 31.6572C38.1712 31.6534 38.1664 31.6504 38.1612 31.6484C38.1559 31.6465 38.1503 31.6455 38.1447 31.6457C38.0264 31.6503 37.9183 31.6846 37.8202 31.7487C37.8042 31.7592 37.7856 31.7654 37.7664 31.7664C37.7472 31.7674 37.7281 31.7633 37.711 31.7546C37.6939 31.7458 37.6795 31.7327 37.6691 31.7165C37.6588 31.7003 37.6529 31.6817 37.6521 31.6625C37.6517 31.6459 37.6525 31.6308 37.6546 31.6172C37.6565 31.6041 37.6549 31.5908 37.6501 31.5785C37.6453 31.5662 37.6374 31.5554 37.6271 31.5471C37.6169 31.5387 37.6046 31.5332 37.5916 31.5311C37.5786 31.5289 37.5653 31.5301 37.5529 31.5347L37.1502 31.6842C37.1363 31.6894 37.1214 31.6912 37.1066 31.6893C37.0919 31.6875 37.0778 31.6821 37.0656 31.6736C37.0534 31.6651 37.0434 31.6538 37.0365 31.6406C37.0297 31.6274 37.0261 31.6128 37.0262 31.5979V31.4689C37.0262 31.447 37.0353 31.43 37.0535 31.418C37.1891 31.3279 37.3374 31.2681 37.4983 31.2387C37.5137 31.236 37.5278 31.2281 37.5382 31.2163C37.5486 31.2045 37.5547 31.1895 37.5555 31.1738C37.5563 31.1581 37.5517 31.1426 37.5426 31.1299C37.5334 31.1171 37.5202 31.1078 37.5051 31.1035C37.2644 31.0328 36.4871 31.3938 36.2197 31.4881C36.2047 31.4935 36.1885 31.4942 36.1732 31.4902C36.1579 31.4862 36.1443 31.4777 36.1341 31.4658L35.9963 31.3057C35.9823 31.29 35.9666 31.2882 35.9492 31.3002C35.8632 31.361 35.7668 31.3895 35.6601 31.3858C35.6359 31.385 35.6125 31.3772 35.5928 31.3632C35.573 31.3492 35.5578 31.3298 35.549 31.3072C35.5402 31.2847 35.5382 31.2601 35.5433 31.2364C35.5484 31.2128 35.5603 31.1912 35.5776 31.1742C35.6942 31.0601 35.8348 30.9968 35.9994 30.9844C36.0193 30.9827 36.0301 30.9718 36.0317 30.9515L36.0348 30.9143C36.0359 30.9008 36.0335 30.8873 36.0279 30.875C36.0223 30.8628 36.0136 30.8521 36.0028 30.8441C35.9919 30.8361 35.9792 30.831 35.9658 30.8293C35.9524 30.8275 35.9388 30.8293 35.9262 30.8343C35.5821 30.9699 35.2376 31.1039 34.8927 31.2363C34.8784 31.2418 34.863 31.2439 34.8477 31.2425C34.8324 31.2412 34.8177 31.2363 34.8045 31.2283C34.7914 31.2204 34.7803 31.2095 34.772 31.1966C34.7638 31.1836 34.7586 31.169 34.7568 31.1538L34.742 31.0253C34.7395 31.0034 34.7273 30.9925 34.7054 30.9925C34.5767 30.9929 34.4578 31.0253 34.3486 31.0899C34.3317 31.0998 34.3124 31.1049 34.2928 31.1046C34.2731 31.1043 34.254 31.0986 34.2373 31.0882C34.2207 31.0778 34.2072 31.063 34.1984 31.0455C34.1896 31.0279 34.1858 31.0083 34.1873 30.9887C34.1944 30.9023 34.1468 30.8705 34.0447 30.8932C34.0236 30.8977 34.0039 30.9058 33.9857 30.9174C33.8708 30.9881 33.7452 31.0198 33.6092 31.0123C33.5843 31.0107 33.5703 30.9976 33.567 30.9732C33.5434 30.7888 33.6278 30.6819 33.8201 30.6525C33.842 30.6492 33.8544 30.6366 33.8573 30.6147L33.8623 30.5774C33.8635 30.5692 33.8625 30.5607 33.8594 30.553C33.8564 30.5452 33.8513 30.5384 33.8448 30.5331C33.8383 30.5279 33.8305 30.5245 33.8222 30.5233C33.814 30.522 33.8055 30.5229 33.7978 30.5259L32.8331 30.9C32.8155 30.9069 32.7965 30.9095 32.7777 30.9076C32.7589 30.9057 32.7407 30.8993 32.7248 30.889C32.7089 30.8787 32.6956 30.8648 32.6861 30.8484C32.6766 30.832 32.671 30.8135 32.6699 30.7946L32.6662 30.7245C32.6655 30.7148 32.6614 30.7058 32.6547 30.6989C32.648 30.6921 32.6391 30.688 32.6296 30.6872C32.4689 30.6754 32.3759 30.7853 32.1749 30.7592C32.1656 30.758 32.157 30.7535 32.1508 30.7466C32.1445 30.7397 32.141 30.7307 32.1407 30.7214C32.137 30.449 32.4751 30.4335 32.4305 30.3051C32.4288 30.3003 32.4262 30.2959 32.4228 30.2922C32.4194 30.2885 32.4153 30.2854 32.4108 30.2833C32.4062 30.2812 32.4013 30.28 32.3962 30.2798C32.3912 30.2796 32.3862 30.2804 32.3814 30.2821C32.1172 30.3826 31.7195 30.5905 31.4484 30.6084C31.4359 30.6093 31.4234 30.6057 31.4133 30.5983C31.4032 30.5909 31.3961 30.5802 31.3932 30.5681L31.3529 30.3969C31.3479 30.375 31.3343 30.3655 31.3119 30.3684C31.2238 30.3789 30.7635 30.5694 30.8274 30.338C30.8315 30.3234 30.831 30.3079 30.8261 30.2936C30.8211 30.2792 30.812 30.2667 30.7999 30.2578C30.7877 30.2488 30.7732 30.2438 30.7581 30.2434C30.7431 30.2429 30.7283 30.2472 30.7158 30.2555C30.5706 30.3498 30.4118 30.3961 30.2393 30.3944C30.2116 30.394 30.1984 30.3799 30.1996 30.3522L30.2083 30.1798C30.2095 30.1595 30.219 30.1448 30.2368 30.1357C30.2794 30.1134 30.308 30.0805 30.3224 30.0371C30.3256 30.0274 30.3259 30.017 30.3234 30.0071C30.3209 29.9972 30.3157 29.9882 30.3083 29.9812C30.301 29.9742 30.2918 29.9694 30.2819 29.9674C30.272 29.9655 30.2617 29.9664 30.2523 29.9701L29.4973 30.2623C29.4142 30.2945 29.3625 30.2672 29.3423 30.1804L29.3081 30.0327C29.3068 30.0269 29.3043 30.0213 29.3006 30.0165C29.297 30.0117 29.2924 30.0077 29.2872 30.0047C29.2819 30.0018 29.2761 30 29.2701 29.9995C29.264 29.999 29.258 29.9997 29.2523 30.0017L28.9272 30.1128C28.8965 30.1233 28.8632 30.1232 28.8326 30.1124C28.8021 30.1016 28.7762 30.0807 28.7591 30.0532C28.6232 29.8361 28.9458 29.7865 29.0718 29.753C29.0806 29.7506 29.0886 29.7457 29.0947 29.7388C29.1007 29.732 29.1047 29.7235 29.1059 29.7144C29.1072 29.7053 29.1057 29.6961 29.1017 29.6878C29.0978 29.6795 29.0914 29.6726 29.0836 29.668C28.9322 29.5774 28.8118 29.591 28.6419 29.6605C28.3683 29.7716 28.1356 29.887 27.8341 29.8944C27.8294 29.8945 27.8248 29.8936 27.8204 29.8919C27.816 29.8902 27.8121 29.8876 27.8087 29.8843C27.8054 29.881 27.8027 29.877 27.8009 29.8727C27.7991 29.8684 27.7982 29.8637 27.7982 29.859V29.766C27.7982 29.7494 27.7939 29.7332 27.7858 29.7187C27.7777 29.7043 27.7659 29.6923 27.7517 29.6838C27.7375 29.6753 27.7214 29.6706 27.7048 29.6702C27.6883 29.6698 27.6719 29.6738 27.6573 29.6816C27.5382 29.7449 27.4112 29.7751 27.2764 29.7722C27.252 29.7718 27.2398 29.7594 27.2398 29.735V29.6537Z" fill="#CDA558"/>
<path d="M21.9555 30.7058L21.9331 30.1028C21.9329 30.0976 21.9339 30.0925 21.936 30.0877C21.9381 30.083 21.9412 30.0787 21.9451 30.0753C21.9491 30.072 21.9537 30.0695 21.9587 30.0681C21.9637 30.0668 21.969 30.0665 21.9741 30.0675L49.6227 35.3505C49.6306 35.3521 49.6377 35.3564 49.6428 35.3626C49.6479 35.3688 49.6507 35.3766 49.6507 35.3847V36.1192C49.6507 36.1243 49.6495 36.1294 49.6473 36.1341C49.6451 36.1387 49.6419 36.1428 49.638 36.1461C49.634 36.1493 49.6293 36.1517 49.6243 36.1529C49.6193 36.1542 49.6141 36.1543 49.6091 36.1533L21.984 30.7387C21.9762 30.7373 21.9691 30.7333 21.9639 30.7273C21.9587 30.7213 21.9558 30.7137 21.9555 30.7058Z" fill="#CDA558"/>
<path d="M50.1424 33.2239C50.1374 33.2234 50.1328 33.2214 50.1291 33.218C50.1254 33.2146 50.1229 33.2101 50.122 33.2052C50.1211 33.2003 50.1218 33.1952 50.124 33.1908C50.1262 33.1863 50.1299 33.1827 50.1343 33.1805L53.8076 31.253C53.8287 31.2422 53.8506 31.2393 53.8733 31.2443L54.7511 31.4397C54.7572 31.4411 54.7626 31.4443 54.7667 31.4489C54.7708 31.4535 54.7733 31.4593 54.774 31.4654C54.7747 31.4716 54.7735 31.4777 54.7705 31.4831C54.7675 31.4885 54.7629 31.4929 54.7574 31.4955C53.4947 32.0985 52.2382 32.698 50.988 33.294C50.8075 33.3802 50.38 33.2475 50.1424 33.2239Z" fill="#CDA558"/>
<path d="M22.016 32.9485C21.9109 32.9539 21.8088 32.9353 21.7095 32.8927C21.7509 32.6346 21.7623 32.366 21.7436 32.0868C21.742 32.0624 21.7292 32.0471 21.7052 32.0409L21.0532 31.8753C21.0333 31.8703 21.0232 31.8579 21.0228 31.8381L21.0191 31.6216C21.0186 31.5976 21.0302 31.5878 21.0538 31.5924C22.3131 31.8356 23.2983 32.0308 24.0092 32.178C24.0551 32.1871 24.1023 32.2097 24.1507 32.2456C24.1668 32.2581 24.1738 32.2744 24.1718 32.2947L24.1544 32.4628C24.1534 32.4713 24.1507 32.4796 24.1464 32.4871C24.1422 32.4945 24.1364 32.501 24.1295 32.5061C24.1227 32.5113 24.1148 32.5149 24.1065 32.5168C24.0982 32.5188 24.0896 32.5189 24.0812 32.5174L22.0576 32.134C22.0385 32.1303 22.0288 32.1381 22.0284 32.1576L22.016 32.9485Z" fill="black"/>
<path d="M24.9893 43.8993L24.9887 44.1679L23.3913 44.98C23.3592 44.9962 23.3322 45.021 23.3134 45.0517C23.2945 45.0823 23.2846 45.1177 23.2846 45.1537V46.2269C23.2845 46.2369 23.2818 46.2466 23.2767 46.255C23.2715 46.2634 23.2642 46.2703 23.2554 46.2747C23.2194 46.2925 23.1979 46.3181 23.1909 46.3516C23.1388 46.3678 23.0805 46.3616 23.0159 46.333L23.0166 45.1245C23.0166 45.1104 23.0127 45.0964 23.0054 45.0843C22.9981 45.0722 22.9876 45.0623 22.975 45.0557L22.475 44.7957C22.4584 44.7871 22.4502 44.7736 22.4502 44.7554L22.4458 44.5563C22.4456 44.5455 22.4481 44.5349 22.4531 44.5254C22.4581 44.5158 22.4655 44.5077 22.4745 44.5018C22.4835 44.4958 22.4939 44.4923 22.5048 44.4914C22.5156 44.4905 22.5265 44.4923 22.5364 44.4967L23.1623 44.7802C23.1705 44.784 23.1794 44.7856 23.1883 44.7849C23.1972 44.7843 23.2058 44.7814 23.2133 44.7765C23.2208 44.7716 23.227 44.7649 23.2314 44.757C23.2357 44.7491 23.238 44.7402 23.238 44.7312V32.982C23.238 32.978 23.2371 32.9739 23.2354 32.9703C23.2336 32.9666 23.2312 32.9633 23.2281 32.9607C23.225 32.9581 23.2214 32.9562 23.2176 32.9552C23.2137 32.9542 23.2097 32.954 23.2058 32.9547C23.0135 32.9891 22.8222 33.0215 22.6319 33.0521C22.5252 33.0689 22.4545 33.0261 22.4483 32.9169C22.4471 32.8954 22.4564 32.8803 22.4762 32.8716C22.5358 32.8449 22.604 32.8102 22.6692 32.799C23.1394 32.7171 23.6096 32.6048 24.0867 32.5707C24.109 32.5691 24.1204 32.5794 24.1208 32.6017L24.1227 32.7116C24.1231 32.7405 24.1092 32.7581 24.0811 32.7643L23.542 32.8865C23.5217 32.891 23.5116 32.9037 23.5116 32.9243L23.4732 44.5625C23.4727 44.5952 23.488 44.6061 23.5191 44.5954C23.7045 44.5321 23.9384 44.4837 23.9341 44.2411C23.9295 44.0004 23.9401 43.7606 23.9657 43.5215C23.969 43.4926 23.9843 43.4828 24.0116 43.4923L24.1239 43.5314C24.1491 43.5401 24.1595 43.5575 24.1549 43.5835C24.1152 43.8131 24.1111 44.0428 24.1425 44.2728C24.1458 44.2943 24.1572 44.3003 24.1767 44.2908L24.9893 43.8993Z" fill="black"/>
<path d="M25.2167 32.7778C25.2757 32.7971 25.3104 32.8281 25.3687 32.8399C33.3343 34.435 41.3006 36.0284 49.2679 37.6198C49.2923 37.6248 49.3047 37.6399 49.3051 37.6651L49.3113 38.8686C49.3115 38.908 49.3246 38.9461 49.3487 38.9773C49.3728 39.0085 49.4065 39.0309 49.4447 39.0411L50.5005 39.3252C50.522 39.331 50.533 39.3451 50.5334 39.3674L50.7915 52.0974C50.7915 52.1152 50.7847 52.1295 50.771 52.1402L50.6134 52.2686C50.6246 52.1719 50.6289 52.1228 50.5235 52.0937C46.8037 51.0726 43.084 50.0506 39.3643 49.0278C39.339 49.0212 39.3256 49.0309 39.3239 49.057C39.319 49.1356 39.2764 49.1864 39.1961 49.2096C39.1749 49.2161 39.1556 49.2274 39.1397 49.2425C39.0061 49.3719 38.8601 49.485 38.7017 49.5818C38.5795 49.6575 38.5032 49.7785 38.3605 49.8424C38.3419 49.851 38.3318 49.8653 38.3301 49.8852C38.322 49.977 37.4355 50.3777 37.3847 50.3982C37.1274 50.5045 36.8799 50.4776 36.6421 50.3176C36.6243 50.3056 36.6152 50.289 36.6148 50.2679C36.6135 50.1852 36.5904 50.1093 36.5453 50.0403C36.5298 50.0166 36.5234 49.9882 36.5272 49.9603C36.5309 49.9324 36.5446 49.9068 36.5658 49.8883C36.6005 49.8585 36.6187 49.8188 36.6204 49.7692C36.6212 49.7497 36.627 49.7319 36.6377 49.7158C36.9212 49.2902 37.3754 49.3945 37.8047 49.2971C38.1161 49.2267 38.3986 49.1072 38.6521 48.9385C38.661 48.9325 38.6681 48.924 38.6723 48.9141C38.6766 48.9042 38.6778 48.8932 38.676 48.8826C38.6742 48.872 38.6693 48.8621 38.662 48.8542C38.6546 48.8463 38.6452 48.8406 38.6347 48.838L37.7321 48.6122C37.7055 48.6055 37.6776 48.6054 37.6509 48.6119C37.6242 48.6184 37.5995 48.6312 37.5788 48.6494C37.1334 49.0394 36.6549 49.382 36.1433 49.6773C36.1243 49.6881 36.1038 49.6951 36.0819 49.6984C36.06 49.7022 36.0405 49.6982 36.0236 49.6866C36.0148 49.6806 36.004 49.6781 35.9935 49.6796C35.9829 49.6811 35.9733 49.6865 35.9665 49.6947C35.8077 49.8914 35.4355 49.8436 35.1768 49.807C35.1662 49.8055 35.1563 49.8008 35.1483 49.7935C35.1403 49.7862 35.1347 49.7767 35.1321 49.7661L35.0341 49.3659C35.0287 49.3448 35.0318 49.325 35.0434 49.3064C35.2065 49.0458 35.6389 48.8963 35.9299 48.8622C36.1092 48.8411 36.7537 48.7288 36.8251 48.5427C36.8766 48.4105 36.7699 48.351 36.6557 48.3206C36.4237 48.2586 36.1532 48.1444 35.9156 48.1481C35.8954 48.1485 35.8774 48.1554 35.8617 48.1686C35.5126 48.4581 35.1486 48.7271 34.7698 48.9757C34.7516 48.9877 34.7396 49.0042 34.7338 49.0253C34.6879 49.2015 34.0005 49.3988 33.9416 49.4031C33.3771 49.449 33.1233 48.9844 33.4521 48.5607C33.6444 48.3131 33.869 48.271 34.2121 48.2455C34.4578 48.2277 34.6941 48.1688 34.9212 48.0687C34.9359 48.0623 34.9483 48.0515 34.9566 48.0378C34.9648 48.024 34.9686 48.008 34.9674 47.992C34.9662 47.9759 34.96 47.9606 34.9497 47.9481C34.9394 47.9356 34.9256 47.9266 34.91 47.9223L34.3976 47.7827C34.3794 47.7778 34.3668 47.784 34.3597 47.8013C34.3535 47.8175 34.3436 47.8257 34.33 47.8262C34.3142 47.827 34.3025 47.8204 34.2946 47.8063C34.1891 47.6171 33.6339 47.5532 33.4614 47.5563C33.4408 47.5563 33.4215 47.5511 33.4037 47.5408C33.2685 47.4618 33.1248 47.4204 32.9726 47.4167C32.868 47.4146 32.783 47.402 32.7176 47.3789C32.2445 47.2101 31.7629 47.0695 31.2728 46.957C30.591 46.8007 29.9458 46.6022 29.2696 46.4564C28.9615 46.3898 28.6792 46.2907 28.4228 46.1592C28.2909 46.0918 28.1624 46.0622 28.0375 46.0705C28.016 46.0722 27.9968 46.0664 27.9798 46.0531C27.9507 46.0302 27.9476 46.0203 27.911 46.0085C27.5495 45.8869 27.1796 45.8019 26.8011 45.7535C26.7937 45.7526 26.7869 45.749 26.782 45.7434C26.7771 45.7378 26.7744 45.7306 26.7745 45.7231V45.6989C26.7745 45.6832 26.7691 45.6809 26.7583 45.6921C26.6585 45.7944 25.8514 45.5035 25.5269 45.398C25.5021 45.3898 25.4975 45.3751 25.5133 45.354C25.5186 45.347 25.5197 45.3374 25.5164 45.3254C25.511 45.306 25.5013 45.3035 25.4872 45.318L25.4686 45.336C25.4525 45.3521 25.4334 45.3571 25.4115 45.3509C25.2775 45.3128 25.2097 45.2218 25.208 45.0779C25.2018 44.5214 25.2397 43.8942 25.2316 43.3396C25.1816 39.8197 25.1766 36.2991 25.2167 32.7778Z" fill="#CDA558"/>
<path d="M49.9017 36.2396C49.8777 36.235 49.8657 36.2207 49.8657 36.1967L49.8688 33.5521C49.8692 33.4789 49.9056 33.4483 49.978 33.4603L50.5959 33.562C50.6134 33.565 50.6293 33.574 50.6407 33.5875C50.6522 33.601 50.6585 33.6181 50.6586 33.6359V36.3463C50.6586 36.3698 50.647 36.3793 50.6238 36.3748L49.9017 36.2396Z" fill="#CDA558"/>
<path d="M54.2472 50.4807L53.0623 51.3939C53.0594 51.3961 53.056 51.3975 53.0524 51.3978C53.0488 51.3982 53.0451 51.3975 53.0419 51.3959C53.0386 51.3943 53.0359 51.3918 53.034 51.3887C53.0322 51.3856 53.0312 51.382 53.0313 51.3784V38.2501C53.0312 38.2465 53.0322 38.243 53.034 38.2399C53.0359 38.2368 53.0386 38.2343 53.0418 38.2327L54.2323 37.6471C54.2352 37.6456 54.2385 37.6449 54.2418 37.645C54.2451 37.6452 54.2483 37.6462 54.2511 37.6479C54.2539 37.6497 54.2563 37.6521 54.2578 37.655C54.2594 37.6579 54.2602 37.6612 54.2602 37.6645L54.2546 50.4658C54.2546 50.4687 54.2539 50.4715 54.2526 50.4741C54.2513 50.4767 54.2495 50.4789 54.2472 50.4807Z" fill="#CDA558"/>
<path d="M49.648 38.7347L49.5928 37.7582C49.5926 37.7544 49.5933 37.7505 49.5949 37.747C49.5964 37.7435 49.5987 37.7403 49.6017 37.7378C49.6046 37.7353 49.608 37.7335 49.6118 37.7325C49.6155 37.7315 49.6194 37.7314 49.6232 37.7322L50.5451 37.9065C50.5508 37.9077 50.556 37.9107 50.5597 37.9153C50.5635 37.9198 50.5655 37.9255 50.5655 37.9313V38.9673C50.5656 38.9713 50.5647 38.9752 50.563 38.9788C50.5613 38.9823 50.5587 38.9854 50.5556 38.9878C50.5525 38.9902 50.5488 38.9919 50.545 38.9926C50.5411 38.9934 50.5371 38.9932 50.5333 38.9922L49.6672 38.7583C49.6619 38.7569 49.6572 38.7539 49.6537 38.7497C49.6502 38.7454 49.6482 38.7402 49.648 38.7347Z" fill="#CDA558"/>
<path d="M52.3231 38.6161L52.7319 38.3891C52.7559 38.3754 52.7677 38.3825 52.7673 38.4102C52.747 42.7056 52.732 47.0011 52.722 51.2965C52.722 51.4359 52.7119 51.5746 52.6916 51.7128C52.6887 51.7318 52.6794 51.7469 52.6637 51.7581L52.2778 52.0298C52.273 52.0333 52.2673 52.0354 52.2613 52.0358C52.2553 52.0362 52.2493 52.0349 52.2441 52.032C52.2388 52.0292 52.2345 52.0249 52.2316 52.0197C52.2286 52.0144 52.2273 52.0085 52.2276 52.0025C52.2313 51.8722 52.2518 51.7252 52.2524 51.6154C52.2706 47.2951 52.2865 42.9751 52.3002 38.6552C52.3002 38.6378 52.3078 38.6248 52.3231 38.6161Z" fill="#CDA558"/>
<path d="M51.0738 52.268C51.0625 52.2642 51.0528 52.257 51.0459 52.2473C51.039 52.2376 51.0353 52.226 51.0353 52.214L51.0117 39.2874C51.0117 39.2786 51.0143 39.2701 51.019 39.2627C51.0237 39.2553 51.0304 39.2495 51.0384 39.2458L51.9559 38.8072C51.9774 38.7969 51.988 38.8035 51.9876 38.8271C51.9607 41.1332 51.9417 43.4389 51.9305 45.7442C51.9199 47.9856 51.8771 50.2301 51.9032 52.4721C51.9034 52.4809 51.9014 52.4895 51.8975 52.4973C51.8936 52.5052 51.8879 52.512 51.8808 52.5171C51.8737 52.5223 51.8654 52.5257 51.8567 52.527C51.8479 52.5284 51.839 52.5276 51.8306 52.5248L51.0738 52.268Z" fill="#CDA558"/>
<path d="M24.9888 44.168C25.0293 44.6006 25.0328 45.0264 24.9993 45.4453C24.9972 45.4676 24.9885 45.4869 24.9732 45.503C24.8024 45.6837 24.5708 45.825 24.2784 45.9267C24.2271 45.9445 24.1312 46.0094 23.9906 46.1215C23.7532 46.3109 23.4866 46.3877 23.1909 46.3517C23.1979 46.3182 23.2195 46.2925 23.2554 46.2747C23.2642 46.2703 23.2715 46.2635 23.2767 46.255C23.2818 46.2466 23.2846 46.2369 23.2846 46.227V45.1537C23.2846 45.1177 23.2946 45.0824 23.3134 45.0517C23.3322 45.021 23.3592 44.9962 23.3913 44.98L24.9888 44.168Z" fill="#CDA558"/>
<path d="M58.2493 48.6904L58.32 48.7437C58.3239 48.7466 58.3269 48.7506 58.3284 48.7553C58.3299 48.7599 58.3299 48.7649 58.3284 48.7695C58.3268 48.7741 58.3239 48.7782 58.3199 48.781C58.316 48.7838 58.3112 48.7854 58.3063 48.7853C58.2534 48.7857 58.2271 48.7576 58.2275 48.7009C58.2276 48.6984 58.2284 48.696 58.2297 48.694C58.2311 48.6919 58.233 48.6902 58.2352 48.6891C58.2375 48.688 58.2399 48.6876 58.2424 48.6878C58.2449 48.688 58.2473 48.6889 58.2493 48.6904Z" fill="#CDA558"/>
<path d="M50.6133 52.4436L51.5947 52.7817C51.6116 52.7875 51.6262 52.7983 51.6367 52.8128C51.6471 52.8272 51.6528 52.8445 51.653 52.8624L51.6605 54.4089L50.6443 54.0504C50.624 54.0433 50.6139 54.0291 50.6139 54.0076L50.6133 52.4436Z" fill="#CDA558"/>
<path d="M26.7514 62.06V72.36C26.7514 73.5067 26.3981 74.4267 25.6914 75.12C24.9847 75.8 24.0514 76.14 22.8914 76.14C21.7181 76.14 20.7781 75.7933 20.0714 75.1C19.3647 74.3933 19.0114 73.4333 19.0114 72.22H20.8314C20.8447 72.9 21.0181 73.4533 21.3514 73.88C21.6981 74.3067 22.2114 74.52 22.8914 74.52C23.5714 74.52 24.0781 74.32 24.4114 73.92C24.7447 73.5067 24.9114 72.9867 24.9114 72.36V62.06H26.7514ZM36.0369 69.04L40.3169 76H38.2569L34.9169 70.56L31.7369 76H29.7169L33.9769 69.04L29.6969 62.06H31.7369L35.0969 67.52L38.2969 62.06H40.3369L36.0369 69.04ZM41.9788 63.2V61.54H45.7388V76H43.8988V63.2H41.9788ZM48.385 63.2V61.54H52.145V76H50.305V63.2H48.385ZM55.2313 65.18C55.3246 63.9533 55.7979 62.9933 56.6513 62.3C57.5046 61.6067 58.6113 61.26 59.9713 61.26C60.8779 61.26 61.6579 61.4267 62.3113 61.76C62.9779 62.08 63.4779 62.52 63.8113 63.08C64.1579 63.64 64.3313 64.2733 64.3313 64.98C64.3313 65.8067 64.0913 66.52 63.6113 67.12C63.1446 67.72 62.5313 68.1067 61.7713 68.28V68.38C62.6379 68.5933 63.3246 69.0133 63.8313 69.64C64.3379 70.2667 64.5912 71.0867 64.5912 72.1C64.5912 72.86 64.4179 73.5467 64.0713 74.16C63.7246 74.76 63.2046 75.2333 62.5113 75.58C61.8179 75.9267 60.9846 76.1 60.0113 76.1C58.5979 76.1 57.4379 75.7333 56.5312 75C55.6246 74.2533 55.1179 73.2 55.0113 71.84H56.7713C56.8646 72.64 57.1913 73.2933 57.7513 73.8C58.3113 74.3067 59.0579 74.56 59.9913 74.56C60.9246 74.56 61.6313 74.32 62.1113 73.84C62.6046 73.3467 62.8513 72.7133 62.8513 71.94C62.8513 70.94 62.5179 70.22 61.8513 69.78C61.1846 69.34 60.1779 69.12 58.8313 69.12H58.3713V67.6H58.8513C60.0779 67.5867 61.0046 67.3867 61.6313 67C62.2579 66.6 62.5713 65.9867 62.5713 65.16C62.5713 64.4533 62.3379 63.8867 61.8713 63.46C61.4179 63.0333 60.7646 62.82 59.9112 62.82C59.0846 62.82 58.4179 63.0333 57.9113 63.46C57.4046 63.8867 57.1046 64.46 57.0113 65.18H55.2313Z" fill="#CDA558"/>
<rect x="0.5" y="89.5" width="89" height="79" rx="13.5" transform="rotate(-90 0.5 89.5)" stroke="#CDA558"/>
</svg>
