<svg width="220" height="236" viewBox="0 0 220 236" fill="none" xmlns="http://www.w3.org/2000/svg">
<g id="Vector">
<mask id="path-1-inside-1_43_102" fill="white">
<path d="M187.242 101.621L158.354 17.8775L173.674 7.71571L168.526 0L15.3258 101.621H0V161.198H12.3703L15.0252 167.156L20.123 230.208H23.9506V234.014H27.9325V230.208H32.4958L34.5689 161.198H76.0145L78.9661 195.227H81.4363V197.956H85.4182V195.227H88.4146L89.6047 161.198H95.7378V213.136C92.3886 214.08 89.9243 217.148 89.9243 220.787V232.691H97.8881V234.014C97.8881 235.111 98.7795 236 99.879 236C100.979 236 101.87 235.111 101.87 234.014V232.691H107.179V234.014C107.179 235.111 108.071 236 109.17 236C110.27 236 111.161 235.111 111.161 234.014V232.691H116.471V234.014C116.471 235.111 117.362 236 118.462 236C119.561 236 120.452 235.111 120.452 234.014V232.691H128.416V220.787C128.416 217.149 125.952 214.08 122.603 213.136V161.198H185.431L187.504 230.208H192.067V234.014H196.049V230.208H199.877L204.975 167.156L207.63 161.198H220V101.621H187.242ZM216.018 142.829H210.294V105.593H216.018V142.829ZM206.312 105.593V108.324H13.6878V105.593H206.312ZM69.7868 89.2601C69.7231 88.5511 69.9794 87.8596 70.4896 87.3626C71.0003 86.8656 71.6991 86.6228 72.4084 86.7072C77.1359 87.2439 81.8724 86.9336 86.4869 85.7833C102.629 81.7574 119.693 81.7574 135.836 85.7833C140.45 86.9331 145.187 87.2434 149.913 86.7072C150.626 86.6298 151.322 86.8651 151.832 87.3626C152.343 87.8596 152.599 88.5516 152.535 89.2601C152.141 93.6579 153.964 97.938 157.411 100.708L158.547 101.621H63.7746L64.9105 100.708C68.3583 97.938 70.181 93.6579 69.7868 89.2601ZM13.6878 136.623V112.296H206.312V136.623H13.6878ZM13.6878 140.595H17.8976V142.829H13.6878V140.595ZM21.8795 140.595H26.0894V142.829H21.8795V140.595ZM30.0718 140.595H34.2817V142.829H30.0718V140.595ZM38.2636 140.595H42.4734V142.829H38.2636V140.595ZM46.4553 140.595H50.6652V142.829H46.4553V140.595ZM54.6476 140.595H58.8575V142.829H54.6476V140.595ZM62.8394 140.595H67.0492V142.829H62.8394V140.595ZM71.0311 140.595H75.241V142.829H71.0311V140.595ZM79.2234 140.595H83.4333V142.829H79.2234V140.595ZM87.4152 140.595H91.625V142.829H87.4152V140.595ZM95.6069 140.595H99.8168V142.829H95.6069V140.595ZM103.799 140.595H108.009V142.829H103.799V140.595ZM111.991 140.595H116.201V142.829H111.991V140.595ZM120.183 140.595H124.393V142.829H120.183V140.595ZM128.375 140.595H132.585V142.829H128.375V140.595ZM136.567 140.595H140.777V142.829H136.567V140.595ZM144.759 140.595H148.968V142.829H144.759V140.595ZM152.951 140.595H157.161V142.829H152.951V140.595ZM161.143 140.595H165.352V142.829H161.143V140.595ZM169.334 140.595H173.544V142.829H169.334V140.595ZM177.527 140.595H181.736V142.829H177.527V140.595ZM185.718 140.595H189.928V142.829H185.718V140.595ZM193.91 140.595H198.12V142.829H193.91V140.595ZM202.102 140.595H206.312V142.829H202.102V140.595ZM183.031 101.621H164.895L159.91 97.6153C157.5 95.6795 156.226 92.6883 156.502 89.6146C156.672 87.7121 155.984 85.8553 154.614 84.5208C153.243 83.1857 151.367 82.5463 149.462 82.7608C145.211 83.2453 140.951 82.9643 136.801 81.9297C120.027 77.7469 102.295 77.7469 85.5213 81.9297C81.3696 82.9643 77.1095 83.2443 72.8593 82.7608C70.9605 82.5433 69.079 83.1857 67.7082 84.5208C66.3375 85.8553 65.6496 87.7121 65.8203 89.6146C66.0966 92.6883 64.8223 95.6795 62.4123 97.6153L57.427 101.621H32.1036L154.927 20.1509L183.031 101.621ZM167.417 5.5059L168.152 6.60857L24.9123 101.621H22.5171L167.417 5.5059ZM9.70588 105.593V142.829H3.9819V105.593H9.70588ZM19.1405 168.645H30.5208L28.9424 217.009H23.0507L19.1405 168.645ZM23.7963 226.236L23.3718 220.981H28.813L28.6413 226.236H23.7963ZM30.587 164.674H18.2764L16.728 161.198H30.5875L30.587 164.674ZM82.6185 191.255L82.4328 189.117H84.6433L84.5686 191.255H82.6185ZM84.7821 185.145H82.0884L80.0113 161.198H85.6193L84.7821 185.145ZM105.016 161.198H113.324V212.832H105.016V161.198ZM101.034 212.832H99.7192V161.198H101.034V212.832ZM124.434 220.787V228.719H120.452V224.747C120.452 223.65 119.561 222.761 118.462 222.761C117.362 222.761 116.471 223.65 116.471 224.747V228.719H111.161V224.747C111.161 223.65 110.27 222.761 109.17 222.761C108.071 222.761 107.179 223.65 107.179 224.747V228.719H101.87V224.747C101.87 223.65 100.979 222.761 99.879 222.761C98.7795 222.761 97.8881 223.65 97.8881 224.747V228.719H93.9062V220.787C93.9062 218.59 95.6985 216.803 97.9005 216.803H105.016H113.324H120.44C122.642 216.803 124.434 218.59 124.434 220.787ZM118.621 212.832H117.306V161.198H118.621V212.832ZM191.358 226.236L191.186 220.981H196.628L196.203 226.236H191.358ZM196.949 217.009H191.057L189.479 168.645H200.86L196.949 217.009ZM201.724 164.674H189.413V161.198H203.273L201.724 164.674ZM3.9819 157.226V146.8H216.018V157.226H3.9819Z"/>
</mask>
<path d="M187.242 101.621L158.354 17.8775L173.674 7.71571L168.526 0L15.3258 101.621H0V161.198H12.3703L15.0252 167.156L20.123 230.208H23.9506V234.014H27.9325V230.208H32.4958L34.5689 161.198H76.0145L78.9661 195.227H81.4363V197.956H85.4182V195.227H88.4146L89.6047 161.198H95.7378V213.136C92.3886 214.08 89.9243 217.148 89.9243 220.787V232.691H97.8881V234.014C97.8881 235.111 98.7795 236 99.879 236C100.979 236 101.87 235.111 101.87 234.014V232.691H107.179V234.014C107.179 235.111 108.071 236 109.17 236C110.27 236 111.161 235.111 111.161 234.014V232.691H116.471V234.014C116.471 235.111 117.362 236 118.462 236C119.561 236 120.452 235.111 120.452 234.014V232.691H128.416V220.787C128.416 217.149 125.952 214.08 122.603 213.136V161.198H185.431L187.504 230.208H192.067V234.014H196.049V230.208H199.877L204.975 167.156L207.63 161.198H220V101.621H187.242ZM216.018 142.829H210.294V105.593H216.018V142.829ZM206.312 105.593V108.324H13.6878V105.593H206.312ZM69.7868 89.2601C69.7231 88.5511 69.9794 87.8596 70.4896 87.3626C71.0003 86.8656 71.6991 86.6228 72.4084 86.7072C77.1359 87.2439 81.8724 86.9336 86.4869 85.7833C102.629 81.7574 119.693 81.7574 135.836 85.7833C140.45 86.9331 145.187 87.2434 149.913 86.7072C150.626 86.6298 151.322 86.8651 151.832 87.3626C152.343 87.8596 152.599 88.5516 152.535 89.2601C152.141 93.6579 153.964 97.938 157.411 100.708L158.547 101.621H63.7746L64.9105 100.708C68.3583 97.938 70.181 93.6579 69.7868 89.2601ZM13.6878 136.623V112.296H206.312V136.623H13.6878ZM13.6878 140.595H17.8976V142.829H13.6878V140.595ZM21.8795 140.595H26.0894V142.829H21.8795V140.595ZM30.0718 140.595H34.2817V142.829H30.0718V140.595ZM38.2636 140.595H42.4734V142.829H38.2636V140.595ZM46.4553 140.595H50.6652V142.829H46.4553V140.595ZM54.6476 140.595H58.8575V142.829H54.6476V140.595ZM62.8394 140.595H67.0492V142.829H62.8394V140.595ZM71.0311 140.595H75.241V142.829H71.0311V140.595ZM79.2234 140.595H83.4333V142.829H79.2234V140.595ZM87.4152 140.595H91.625V142.829H87.4152V140.595ZM95.6069 140.595H99.8168V142.829H95.6069V140.595ZM103.799 140.595H108.009V142.829H103.799V140.595ZM111.991 140.595H116.201V142.829H111.991V140.595ZM120.183 140.595H124.393V142.829H120.183V140.595ZM128.375 140.595H132.585V142.829H128.375V140.595ZM136.567 140.595H140.777V142.829H136.567V140.595ZM144.759 140.595H148.968V142.829H144.759V140.595ZM152.951 140.595H157.161V142.829H152.951V140.595ZM161.143 140.595H165.352V142.829H161.143V140.595ZM169.334 140.595H173.544V142.829H169.334V140.595ZM177.527 140.595H181.736V142.829H177.527V140.595ZM185.718 140.595H189.928V142.829H185.718V140.595ZM193.91 140.595H198.12V142.829H193.91V140.595ZM202.102 140.595H206.312V142.829H202.102V140.595ZM183.031 101.621H164.895L159.91 97.6153C157.5 95.6795 156.226 92.6883 156.502 89.6146C156.672 87.7121 155.984 85.8553 154.614 84.5208C153.243 83.1857 151.367 82.5463 149.462 82.7608C145.211 83.2453 140.951 82.9643 136.801 81.9297C120.027 77.7469 102.295 77.7469 85.5213 81.9297C81.3696 82.9643 77.1095 83.2443 72.8593 82.7608C70.9605 82.5433 69.079 83.1857 67.7082 84.5208C66.3375 85.8553 65.6496 87.7121 65.8203 89.6146C66.0966 92.6883 64.8223 95.6795 62.4123 97.6153L57.427 101.621H32.1036L154.927 20.1509L183.031 101.621ZM167.417 5.5059L168.152 6.60857L24.9123 101.621H22.5171L167.417 5.5059ZM9.70588 105.593V142.829H3.9819V105.593H9.70588ZM19.1405 168.645H30.5208L28.9424 217.009H23.0507L19.1405 168.645ZM23.7963 226.236L23.3718 220.981H28.813L28.6413 226.236H23.7963ZM30.587 164.674H18.2764L16.728 161.198H30.5875L30.587 164.674ZM82.6185 191.255L82.4328 189.117H84.6433L84.5686 191.255H82.6185ZM84.7821 185.145H82.0884L80.0113 161.198H85.6193L84.7821 185.145ZM105.016 161.198H113.324V212.832H105.016V161.198ZM101.034 212.832H99.7192V161.198H101.034V212.832ZM124.434 220.787V228.719H120.452V224.747C120.452 223.65 119.561 222.761 118.462 222.761C117.362 222.761 116.471 223.65 116.471 224.747V228.719H111.161V224.747C111.161 223.65 110.27 222.761 109.17 222.761C108.071 222.761 107.179 223.65 107.179 224.747V228.719H101.87V224.747C101.87 223.65 100.979 222.761 99.879 222.761C98.7795 222.761 97.8881 223.65 97.8881 224.747V228.719H93.9062V220.787C93.9062 218.59 95.6985 216.803 97.9005 216.803H105.016H113.324H120.44C122.642 216.803 124.434 218.59 124.434 220.787ZM118.621 212.832H117.306V161.198H118.621V212.832ZM191.358 226.236L191.186 220.981H196.628L196.203 226.236H191.358ZM196.949 217.009H191.057L189.479 168.645H200.86L196.949 217.009ZM201.724 164.674H189.413V161.198H203.273L201.724 164.674ZM3.9819 157.226V146.8H216.018V157.226H3.9819Z" stroke="url(#paint0_linear_43_102)" stroke-width="2" mask="url(#path-1-inside-1_43_102)"/>
</g>
<defs>
<linearGradient id="paint0_linear_43_102" x1="54.1212" y1="27.2308" x2="145.671" y2="269.595" gradientUnits="userSpaceOnUse">
<stop stop-color="#CEA571"/>
<stop offset="0.409508" stop-color="#EFAF5F"/>
<stop offset="0.741158" stop-color="#CEA571" stop-opacity="0.49"/>
</linearGradient>
</defs>
</svg>
