<svg width="244" height="242" viewBox="0 0 244 242" fill="none" xmlns="http://www.w3.org/2000/svg">
<path d="M36.1213 115.733C38.4741 108.323 40.8523 100.923 43.256 93.5315C43.5564 92.6082 43.2751 91.4091 42.7452 90.4722C37.946 81.9964 35.8619 72.54 35.4685 62.8761C34.955 50.2785 38.4131 38.3009 45.545 28.0005C53.5427 16.4545 64.3703 7.49801 76.6538 0.800413C77.2274 0.486293 77.8611 0.270506 78.4784 0.00828333C78.4972 0.000526002 78.5177 -0.00184508 78.5378 0.00143337C78.5578 0.00471183 78.5766 0.0135098 78.5919 0.026843C78.6072 0.0401763 78.6185 0.0575156 78.6245 0.0769142C78.6305 0.0963129 78.631 0.117004 78.6259 0.136663C78.3227 1.25111 78.0468 2.40379 77.7027 3.48546C68.6378 31.9147 59.5793 60.3458 50.5272 88.7787C49.6777 91.4501 49.5111 92.753 51.1909 94.9027C55.1261 99.9377 58.9583 105.049 62.6877 110.237C70.7483 121.455 76.1211 134.733 72.0786 148.448C65.7688 169.868 46.0475 180.761 24.4661 175.233C23.1195 174.889 22.8627 175.847 22.5076 176.965C19.452 186.581 16.4519 196.213 13.5074 205.861C12.3493 209.661 11.5289 213.269 11.0463 216.683C9.49759 227.666 15.7636 237.844 27.6292 237.885C33.1741 237.903 37.6728 235.737 41.1254 231.387C45.4302 225.959 44.6627 217.511 39.0003 213.329C35.6133 210.824 30.5027 210.51 26.919 213.023C23.7559 215.244 21.9996 219.294 25.0288 222.572C26.6731 224.35 29.2844 224.845 31.2183 223.165C32.33 222.198 33.0949 220.764 33.7286 219.472C33.7777 219.374 33.8469 219.357 33.9362 219.423C35.535 220.612 37.111 221.848 38.6644 223.132C39.3773 223.719 39.4701 224.727 38.9621 225.407C36.3617 228.889 33.0584 230.434 29.0523 230.043C24.2148 229.57 20.205 226.702 19.1042 221.775C17.0611 212.613 23.5292 205.765 32.3546 205.011C37.5854 204.566 42.5157 207.317 45.8345 211.368C52.2316 219.177 49.3281 230.939 42.3081 237.224C35.7307 243.116 25.5915 242.684 18.1673 238.885C5.09991 232.201 4.05375 217.429 7.93245 204.878C11.1119 194.587 14.3341 184.278 17.5992 173.949C17.6792 173.698 17.6689 173.427 17.5702 173.182C17.4715 172.937 17.2905 172.734 17.0583 172.608C15.9566 172.011 14.8258 171.338 13.6658 170.589C-0.693564 161.338 -3.60532 144.146 4.31051 129.385C8.54704 121.483 16.9054 115.465 26.1241 115.621C29.3946 115.677 32.6651 115.758 35.9356 115.864C36.0321 115.868 36.094 115.824 36.1213 115.733ZM48.6343 40.8631C41.6553 55.0312 39.593 69.7949 45.6078 84.5504C45.627 84.597 45.6601 84.6366 45.7026 84.6638C45.745 84.691 45.7949 84.7045 45.8453 84.7024C45.8957 84.7003 45.9442 84.6828 45.9843 84.6522C46.0244 84.6215 46.0541 84.5793 46.0694 84.5312L66.6183 19.9262C66.6327 19.8797 66.6321 19.8298 66.6166 19.7837C66.6011 19.7375 66.5714 19.6974 66.5319 19.669C66.4923 19.6406 66.4448 19.6254 66.3961 19.6255C66.3474 19.6256 66.3 19.641 66.2605 19.6695C58.6561 25.2608 52.7888 32.4282 48.6343 40.8631ZM45.1953 166.238C58.1835 161.056 66.9024 148.735 66.4872 134.586C66.266 127 64.1545 120.527 59.8087 114.315C55.9938 108.867 52.0067 103.585 47.8476 98.47C47.8233 98.4401 47.7913 98.4173 47.7551 98.4042C47.7189 98.391 47.6798 98.3879 47.642 98.3952C47.6041 98.4025 47.569 98.4199 47.5402 98.4456C47.5115 98.4712 47.4903 98.5042 47.4788 98.541L41.3904 117.653C41.3271 117.851 41.3339 118.064 41.4095 118.257C41.4851 118.45 41.625 118.611 41.8056 118.713C42.95 119.355 44.2366 120.024 45.2418 120.764C54.4742 127.547 57.009 140.445 50.5299 149.978C48.1007 153.552 44.8912 156.234 40.9014 158.024C40.2404 158.322 39.4537 158.47 39.1669 157.661C38.4404 155.618 37.518 152.584 36.4 148.56C36.3726 148.463 36.4063 148.401 36.501 148.371C42.7452 146.421 47.1101 142.807 47.4515 135.916C47.63 132.332 46.5565 129.13 44.2311 126.309C42.961 124.771 41.7755 123.6 40.0164 122.887C39.9857 122.874 39.9527 122.868 39.9196 122.869C39.8864 122.87 39.8538 122.878 39.8238 122.892C39.7937 122.906 39.767 122.926 39.7451 122.951C39.7233 122.976 39.7069 123.005 39.6969 123.037C35.2281 137.015 30.7531 150.988 26.2716 164.957C26.0722 165.588 25.9739 166.429 26.6841 166.661C32.371 168.511 39.451 168.53 45.1953 166.238ZM7.09662 142.286C6.66231 152.256 11.8275 159.819 20.5546 164.217C20.6275 164.253 20.6757 164.233 20.6994 164.157C25.2683 149.938 29.8262 135.716 34.3732 121.491C34.6573 120.599 34.3659 120.074 33.4991 119.918C31.8657 119.62 30.1722 119.213 28.5551 119.317C16.3591 120.092 7.62106 130.305 7.09662 142.286Z" fill="#CDA558"/>
<path d="M211.436 92.051C211.159 92.0473 210.933 91.9881 210.759 91.8734C210.722 91.8493 210.693 91.8146 210.676 91.7738C210.659 91.7331 210.655 91.6881 210.664 91.645C210.673 91.6018 210.695 91.5625 210.727 91.5321C210.759 91.5016 210.8 91.4816 210.843 91.4746L223.862 89.3577C224.005 89.3341 224.062 89.3932 224.031 89.5353C223.636 91.4364 223.218 93.3184 222.777 95.1812C216.649 121.101 210.548 147.027 204.473 172.96C203.837 175.675 205.771 176.189 207.874 176.533C207.932 176.543 207.984 176.573 208.02 176.62C208.056 176.666 208.073 176.723 208.069 176.781C208.064 176.839 208.038 176.893 207.995 176.932C207.953 176.971 207.897 176.993 207.839 176.992H192.056C192.017 176.991 191.98 176.977 191.95 176.952C191.921 176.927 191.901 176.893 191.894 176.854C191.887 176.816 191.894 176.777 191.913 176.743C191.932 176.709 191.963 176.683 191.999 176.67C192.889 176.342 193.998 176.238 194.703 175.938C196.719 175.077 197.129 173.329 197.598 171.324C203.442 146.38 209.251 121.427 215.025 96.465C215.779 93.2009 214.76 92.081 211.436 92.051Z" fill="#CDA558"/>
<path d="M97.566 108.65C94.3483 110.71 89.1285 109.858 88.7816 105.274C88.5977 102.83 89.377 100.828 91.1197 99.2676C94.698 96.0608 101.155 97.3227 100.942 102.988C100.853 105.379 99.7275 107.266 97.566 108.65Z" fill="#CDA558"/>
<path d="M239.513 110.117C236.342 111.816 231.736 110.92 231.179 106.749C230.817 104.034 231.696 101.849 233.818 100.194C237.112 97.6205 242.736 98.6066 243.263 103.387C243.566 106.167 241.947 108.814 239.513 110.117Z" fill="#CDA558"/>
<path d="M196.162 109.108C198.863 106.677 199.343 102.808 197.236 100.467C195.128 98.1261 191.23 98.1998 188.529 100.631C185.829 103.063 185.348 106.932 187.456 109.273C189.563 111.614 193.461 111.54 196.162 109.108Z" fill="#CDA558"/>
<path d="M86.3861 127.782C87.4923 123.04 82.0649 125.023 81.6579 124.028C81.6414 123.988 81.634 123.944 81.6364 123.9C81.6388 123.856 81.6509 123.813 81.6718 123.775C81.6927 123.736 81.7219 123.703 81.7572 123.677C81.7926 123.651 81.8333 123.633 81.8764 123.624C85.7296 122.896 89.6111 122.245 93.5207 121.671C94.0251 121.597 94.4367 121.614 94.7554 121.723C94.802 121.739 94.8439 121.766 94.8769 121.803C94.9099 121.84 94.9329 121.885 94.9438 121.933C95.0312 122.343 95.0176 122.783 94.9028 123.253C91.3264 137.833 88.4966 149.759 86.4134 159.03C85.6613 162.375 85.0786 166.183 84.6653 170.453C84.444 172.717 84.6161 174.932 87.3831 175.222C87.7436 175.26 89.347 175.236 89.4535 175.618C89.4669 175.668 89.4618 175.721 89.4392 175.767C89.4166 175.814 89.378 175.85 89.3306 175.869C86.4079 177.098 83.5654 177.021 80.8029 175.637C76.2741 173.37 77.3695 166.047 78.3009 162.119C81.0178 150.68 83.7129 139.234 86.3861 127.782Z" fill="#CDA558"/>
<path d="M141.327 135.148C141.327 135.163 141.333 135.177 141.342 135.188C141.351 135.199 141.363 135.207 141.377 135.21C141.391 135.214 141.406 135.212 141.419 135.207C141.432 135.201 141.443 135.191 141.45 135.178C145.394 128.109 148.751 122.349 157.844 121.906C169.994 121.313 170.568 131.895 168.385 140.816C166.3 149.335 164.275 157.869 162.31 166.418C162.039 167.596 161.866 168.737 161.791 169.841C161.576 173.091 161.229 177.38 166.126 176.489C166.305 176.458 166.519 176.547 166.768 176.754C166.834 176.809 166.837 176.867 166.779 176.929C165.916 177.811 164.545 177.825 163.403 177.885C159.812 178.074 157.062 176.812 155.154 174.099C154.162 172.687 153.881 170.917 154.242 169.292C155.662 162.915 157.8 153.736 160.655 141.756C161.565 137.94 162.633 133.184 161.854 128.94C160.898 123.725 156.47 122.832 152.152 124.517C149.994 125.361 148.17 126.745 146.681 128.672C142.431 134.176 140.409 140.01 138.779 146.735C136.632 155.578 134.537 164.433 132.493 173.299C131.876 175.984 134.444 176.295 136.277 176.582C136.364 176.595 136.408 176.646 136.408 176.735V176.858C136.408 176.947 136.363 176.992 136.274 176.992C130.785 176.992 125.298 176.992 119.811 176.992C119.792 176.992 119.773 176.988 119.756 176.98C119.738 176.973 119.722 176.961 119.709 176.947C119.697 176.933 119.687 176.916 119.681 176.898C119.675 176.88 119.673 176.861 119.675 176.842C119.71 176.473 121.242 176.243 121.565 176.181C123.245 175.853 124.43 175.14 124.854 173.425C127.263 163.66 129.622 153.884 131.931 144.097C133.264 138.456 138.06 122.4 126.329 123.895C123.741 124.222 121.479 125.442 119.544 127.552C115.752 131.685 114.108 135.411 112.808 140.854C111.147 147.8 108.646 158.518 105.304 173.009C104.605 176.044 106.856 176.009 108.932 176.609C108.968 176.621 108.998 176.645 109.018 176.677C109.038 176.709 109.046 176.747 109.041 176.785C109.036 176.822 109.018 176.857 108.99 176.882C108.962 176.907 108.926 176.922 108.888 176.924H92.4226C92.3941 176.924 92.3665 176.914 92.3449 176.895C92.3233 176.877 92.3092 176.851 92.3052 176.823L92.2943 176.738C92.2833 176.665 92.3143 176.621 92.3871 176.607C93.1556 176.439 93.9231 176.269 94.6898 176.096C97.3639 175.49 97.6944 173.293 98.268 170.849C101.522 157.033 104.744 143.21 107.935 129.379C108.781 125.708 106.635 125.684 103.758 125.449C103.715 125.446 103.674 125.43 103.64 125.403C103.606 125.376 103.58 125.339 103.567 125.298C103.554 125.256 103.553 125.211 103.566 125.169C103.578 125.127 103.602 125.089 103.635 125.061C103.932 124.811 104.311 124.649 104.772 124.575C108.281 124.005 111.792 123.447 115.307 122.9C115.757 122.829 116.15 122.838 116.487 122.928C116.58 122.951 116.648 123.006 116.692 123.092C117.17 124.037 115.457 129.816 115.14 131.174C115.102 131.332 115.138 131.351 115.247 131.229C117.063 129.202 118.743 127.104 120.724 125.187C123.602 122.395 128.213 121.671 132.237 121.999C136.558 122.351 139.642 124.859 140.816 128.934C141.423 131.046 141.327 133.081 141.327 135.148Z" fill="#CDA558"/>
<path d="M227.554 125.867C227.107 125.681 224.801 125.32 224.266 125.457C224.246 125.462 224.225 125.463 224.205 125.459C224.185 125.456 224.166 125.447 224.149 125.435C224.133 125.422 224.12 125.406 224.111 125.388C224.101 125.369 224.097 125.349 224.096 125.329L224.086 124.987C224.084 124.878 224.136 124.814 224.244 124.796L237.276 122.695C237.298 122.692 237.32 122.693 237.342 122.7C237.363 122.707 237.382 122.719 237.398 122.735C237.414 122.751 237.426 122.771 237.432 122.792C237.439 122.814 237.441 122.837 237.437 122.859C237.218 124.067 236.964 125.281 236.675 126.503C234.105 137.343 231.549 148.187 229.005 159.032C228.054 163.084 227.349 166.874 226.888 170.404C226.648 172.253 226.771 175.642 228.964 176.407C229.756 176.68 230.827 176.538 231.758 176.533C231.808 176.532 231.856 176.549 231.896 176.579C231.935 176.61 231.963 176.653 231.974 176.701C231.985 176.749 231.98 176.8 231.959 176.845C231.937 176.89 231.901 176.926 231.857 176.948C225.872 179.956 218.53 176.35 219.794 168.929C220.195 166.581 220.655 164.24 221.174 161.906C223.641 150.807 226.163 139.721 228.74 128.647C229.064 127.256 228.669 126.329 227.554 125.867Z" fill="#CDA558"/>
<path d="M182.761 125.897C181.876 125.471 180.475 125.495 179.494 125.506C179.381 125.508 179.32 125.452 179.311 125.34L179.286 125.015C179.277 124.902 179.328 124.836 179.439 124.818L191.491 122.788C191.637 122.763 191.788 122.775 191.929 122.823C192.07 122.87 192.197 122.952 192.299 123.061C192.4 123.17 192.473 123.303 192.511 123.447C192.549 123.591 192.55 123.742 192.515 123.886C188.907 138.748 185.121 153.507 182.299 168.62C181.909 170.715 181.447 175.208 183.903 176.282C184.692 176.629 185.766 176.519 186.675 176.514C186.77 176.512 186.814 176.559 186.806 176.656C186.775 177.013 186.612 177.242 186.317 177.344C183.07 178.462 180.118 178.16 177.459 176.437C175.323 175.053 175.025 171.261 175.055 168.942C175.091 166.465 175.883 163.496 176.44 161.065C178.848 150.583 181.261 140.102 183.681 129.623C184.006 128.221 184.383 126.683 182.761 125.897Z" fill="#CDA558"/>
<path d="M113.746 187.124C113.088 187.837 113.027 188.851 113.611 189.389C114.194 189.927 115.2 189.785 115.858 189.072C116.515 188.36 116.576 187.345 115.993 186.807C115.41 186.269 114.404 186.411 113.746 187.124Z" fill="black"/>
<path d="M82.1687 188.246C82.0375 188.218 81.9702 188.137 81.9665 188.002C81.9529 187.615 82.4527 187.844 82.6712 187.844C84.8655 187.851 87.0607 187.852 89.2568 187.847C92.3817 187.841 94.6242 189.781 93.7447 193.116C92.6466 197.27 87.5824 198.814 83.7502 198.617C83.6919 198.614 83.6345 198.631 83.5874 198.665C83.5402 198.698 83.5061 198.747 83.4907 198.803C83.0081 200.538 82.5529 202.304 82.1249 204.102C81.8791 205.14 82.8488 205.418 83.6245 205.323C83.6695 205.318 83.715 205.327 83.7548 205.348C83.7946 205.37 83.8268 205.403 83.847 205.444C83.8673 205.484 83.8746 205.53 83.868 205.575C83.8615 205.62 83.8413 205.661 83.8103 205.694C83.5071 206.011 83.3541 205.825 83.04 205.82C81.1535 205.787 79.2797 205.797 77.4186 205.85C77.3494 205.852 77.3039 205.821 77.282 205.757C77.2056 205.535 77.3066 205.394 77.5852 205.334C77.6635 205.317 77.7418 205.309 77.8201 205.309C78.8599 205.325 79.52 204.833 79.8005 203.831C80.5179 201.264 81.7107 196.77 83.3787 190.351C83.7584 188.898 83.6355 188.546 82.1687 188.246ZM91.412 191.764C91.6687 189.109 89.4836 187.705 87.1263 188.461C86.2549 188.74 85.9627 189.524 85.7551 190.327C85.0995 192.851 84.423 195.38 83.7256 197.915C83.7037 197.995 83.7347 198.038 83.8185 198.043C88.442 198.408 90.9731 196.314 91.412 191.764Z" fill="white"/>
<path d="M112.114 193.329C110.953 193.405 110.188 195.451 109.833 196.601C109.759 196.833 109.625 196.943 109.382 196.842C109.345 196.827 109.315 196.797 109.299 196.76C109.283 196.723 109.281 196.681 109.295 196.642C110 194.738 110.472 192.58 112.928 192.417C115.236 192.261 114.843 194.301 114.362 195.752C113.898 197.148 112.938 199.931 111.483 204.099C111.321 204.56 111.383 204.93 111.669 205.208C111.706 205.245 111.751 205.272 111.8 205.288C111.85 205.304 111.902 205.309 111.953 205.301C113.646 205.061 114.05 201.523 114.681 201.717C114.774 201.745 114.806 201.805 114.777 201.898C114.113 203.987 113.447 206.314 110.74 206.241C108.787 206.189 109.221 204.096 109.669 202.821C110.662 199.989 111.653 197.158 112.644 194.326C112.775 193.953 112.671 193.641 112.332 193.392C112.267 193.344 112.194 193.323 112.114 193.329Z" fill="white"/>
<path d="M141.169 193.837L141.368 192.944C141.392 192.845 141.454 192.789 141.554 192.774L143.665 192.471C143.738 192.462 143.765 192.493 143.744 192.564C142.137 198.169 141.03 202.081 140.426 204.301C140.342 204.616 140.386 204.892 140.557 205.129C140.61 205.202 140.681 205.241 140.77 205.246C142.313 205.353 142.832 202.925 143.226 201.835C143.256 201.753 143.315 201.712 143.4 201.712H143.51C143.619 201.712 143.66 201.765 143.633 201.87C143.198 203.616 142.188 206.721 139.677 206.191C137.651 205.765 138.964 202.597 139.218 201.338C139.22 201.332 139.221 201.326 139.22 201.32C139.22 201.315 139.218 201.309 139.216 201.304C139.213 201.298 139.209 201.294 139.205 201.29C139.2 201.286 139.195 201.283 139.19 201.282C139.184 201.28 139.178 201.279 139.173 201.28C139.167 201.28 139.161 201.282 139.156 201.284C139.151 201.287 139.146 201.291 139.142 201.295C139.138 201.3 139.136 201.305 139.134 201.31C138.391 203.086 137.126 205.312 135.422 205.984C133.922 206.574 132.526 206.107 132.048 204.441C131.398 202.165 132.526 199.333 133.665 197.191C134.695 195.252 137.227 191.917 139.686 192.428C140.27 192.548 140.709 193.02 141.002 193.845C141.069 194.031 141.125 194.028 141.169 193.837ZM134.531 205.148C135.332 206.003 136.67 204.408 137.112 203.79C138.768 201.494 139.914 198.972 140.551 196.224C141.297 193.015 139.109 191.534 137.091 194.471C135.146 197.299 134.142 200.435 134.078 203.881C134.069 204.392 134.22 204.815 134.531 205.148Z" fill="white"/>
<path d="M165.154 199.185C165.163 199.185 165.172 199.184 165.181 199.182C165.189 199.181 165.196 199.176 165.203 199.17C165.21 199.163 165.215 199.154 165.219 199.144C166.23 196.456 168.178 192.408 171.657 192.422C173.87 192.43 173.627 194.531 173.163 195.959C172.141 199.098 170.207 204.481 170.576 205.118C170.619 205.191 170.683 205.233 170.767 205.244C172.277 205.416 172.939 203.138 173.277 201.876C173.288 201.833 173.313 201.795 173.348 201.767C173.383 201.739 173.426 201.722 173.471 201.72L173.671 201.709C173.689 201.708 173.708 201.712 173.726 201.72C173.743 201.728 173.758 201.74 173.769 201.755C173.781 201.77 173.789 201.787 173.792 201.806C173.795 201.825 173.794 201.844 173.788 201.862C173.081 204.126 172.354 206.574 169.669 206.216C168.306 206.033 168.134 204.782 168.486 203.621C169.393 200.642 170.355 197.68 171.371 194.736C171.573 194.148 171.494 193.088 170.48 193.236C167.063 193.736 164.151 202.758 163.49 205.683C163.478 205.738 163.447 205.788 163.403 205.823C163.359 205.858 163.304 205.877 163.247 205.877H161.398C161.263 205.877 161.214 205.813 161.251 205.683C162.358 201.79 163.437 197.919 164.487 194.069C164.562 193.798 164.488 193.586 164.266 193.435C162.96 192.548 161.881 195.97 161.652 196.746C161.637 196.797 161.604 196.84 161.559 196.869C161.515 196.897 161.461 196.909 161.409 196.902L161.3 196.885C161.196 196.872 161.159 196.816 161.188 196.716C161.543 195.472 161.87 194.572 162.168 194.014C162.777 192.873 164.214 192.059 165.501 192.531C167.118 193.124 165.512 197.759 165.118 199.122C165.107 199.162 165.119 199.183 165.154 199.185Z" fill="white"/>
<path d="M192.25 205.552C191.152 204.725 190.865 203.435 190.92 202.026C191.065 198.328 193.373 192.927 197.574 192.444C199.882 192.176 201.728 193.408 201.761 195.845C201.794 198.328 201.072 200.746 199.595 203.097C198.153 205.388 194.706 207.404 192.25 205.552ZM194.547 205.694C195.083 205.74 195.591 205.537 196.071 205.085C198.489 202.804 199.467 198.617 199.587 195.429C199.71 192.168 197.303 192.316 195.801 194.389C194.088 196.751 193.261 199.983 193.116 202.854C193.056 204.02 192.974 205.555 194.547 205.694Z" fill="white"/>
<path d="M218.677 205.484C217.8 204.91 217.175 202.55 218.765 202.572C220.1 202.589 220.035 204.487 219.718 205.315C219.709 205.339 219.705 205.364 219.706 205.39C219.707 205.415 219.714 205.44 219.725 205.463C219.736 205.486 219.752 205.507 219.772 205.524C219.791 205.54 219.814 205.553 219.838 205.56C221.633 206.126 223.274 205.32 223.446 203.364C223.7 200.515 221.065 199.363 220.57 196.79C219.579 191.624 228.008 191.01 227.555 194.859C227.301 196.995 224.006 195.615 225.924 193.386C225.951 193.354 225.969 193.316 225.978 193.276C225.986 193.235 225.984 193.193 225.972 193.153C225.96 193.113 225.937 193.078 225.908 193.049C225.878 193.021 225.841 193 225.801 192.99C224.536 192.657 223.329 192.903 222.796 194.167C221.835 196.451 224.58 198.59 225.326 200.731C226.814 205.02 221.922 207.617 218.677 205.484Z" fill="white"/>
</svg>
