<svg width="260" height="259" viewBox="0 0 260 259" fill="none" xmlns="http://www.w3.org/2000/svg">
<path d="M38.6007 123.677C41.1149 115.759 43.6564 107.85 46.225 99.9515C46.5461 98.9649 46.2455 97.6834 45.6792 96.6822C40.5506 87.6246 38.3234 77.5192 37.9031 67.1919C37.3543 53.7296 41.0497 40.9299 48.6711 29.9225C57.2179 17.584 68.7887 8.01267 81.9153 0.855354C82.5283 0.519672 83.2055 0.289073 83.8652 0.0088519C83.8852 0.000562106 83.9072 -0.00197172 83.9286 0.00153176C83.95 0.00503525 83.97 0.0144371 83.9864 0.0286855C84.0028 0.042934 84.0149 0.0614634 84.0213 0.0821936C84.0277 0.102924 84.0282 0.125035 84.0228 0.146044C83.6988 1.33698 83.404 2.56879 83.0362 3.7247C73.3491 34.1053 63.6688 64.4879 53.9953 94.8724C53.0875 97.7272 52.9095 99.1196 54.7047 101.417C58.9099 106.797 63.0052 112.26 66.9906 117.804C75.6045 129.792 81.3461 143.981 77.026 158.637C70.2832 181.528 49.2082 193.169 26.1455 187.261C24.7064 186.893 24.432 187.918 24.0526 189.111C20.7872 199.388 17.5812 209.681 14.4346 219.991C13.1969 224.052 12.3202 227.907 11.8046 231.556C10.1495 243.293 16.8456 254.169 29.5256 254.213C35.4511 254.233 40.2587 251.918 43.9483 247.269C48.5485 241.469 47.7283 232.441 41.6773 227.972C38.0578 225.295 32.5964 224.959 28.7667 227.645C25.3865 230.018 23.5096 234.347 26.7468 237.849C28.504 239.75 31.2945 240.278 33.3611 238.483C34.5492 237.45 35.3665 235.917 36.0437 234.536C36.0962 234.431 36.1702 234.414 36.2655 234.484C37.9741 235.755 39.6583 237.076 41.3183 238.448C42.0801 239.075 42.1794 240.152 41.6364 240.879C38.8576 244.6 35.3276 246.251 31.0464 245.833C25.8769 245.328 21.5919 242.263 20.4155 236.997C18.2321 227.207 25.1442 219.889 34.5754 219.083C40.1653 218.608 45.434 221.547 48.9806 225.876C55.8168 234.221 52.7139 246.79 45.2122 253.507C38.1833 259.803 27.3481 259.342 19.4143 255.282C5.44996 248.139 4.332 232.353 8.47694 218.94C11.8746 207.944 15.318 196.926 18.8072 185.889C18.8927 185.62 18.8817 185.33 18.7763 185.069C18.6708 184.807 18.4773 184.59 18.2292 184.456C17.0519 183.817 15.8434 183.098 14.6039 182.299C-0.74117 172.412 -3.85279 154.04 4.60638 138.266C9.1337 129.821 18.0657 123.391 27.9173 123.557C31.4122 123.617 34.9072 123.704 38.4022 123.817C38.5053 123.821 38.5715 123.774 38.6007 123.677ZM51.9725 43.6679C44.5145 58.8086 42.3107 74.5856 48.7383 90.3539C48.7588 90.4037 48.7942 90.4461 48.8396 90.4751C48.885 90.5042 48.9382 90.5186 48.9921 90.5164C49.046 90.5141 49.0978 90.4954 49.1407 90.4627C49.1835 90.4299 49.2153 90.3848 49.2316 90.3335L71.191 21.294C71.2064 21.2443 71.2057 21.191 71.1891 21.1416C71.1726 21.0923 71.1409 21.0494 71.0986 21.0191C71.0563 20.9888 71.0056 20.9725 70.9535 20.9726C70.9015 20.9727 70.8508 20.9891 70.8086 21.0196C62.6822 26.9947 56.4123 34.6541 51.9725 43.6679ZM48.2975 177.649C62.1772 172.111 71.4946 158.944 71.0509 143.824C70.8144 135.718 68.5581 128.8 63.914 122.162C59.8372 116.34 55.5765 110.695 51.1318 105.229C51.1059 105.197 51.0717 105.173 51.033 105.159C50.9943 105.145 50.9525 105.141 50.9121 105.149C50.8717 105.157 50.8341 105.175 50.8034 105.203C50.7727 105.23 50.75 105.266 50.7378 105.305L44.2314 125.729C44.1638 125.94 44.171 126.168 44.2519 126.374C44.3327 126.58 44.4821 126.752 44.6751 126.861C45.8981 127.547 47.273 128.263 48.3471 129.054C58.2133 136.301 60.9221 150.085 53.9983 160.272C51.4023 164.092 47.9725 166.958 43.7089 168.871C43.0025 169.189 42.1618 169.347 41.8554 168.483C41.0789 166.3 40.0933 163.058 38.8984 158.757C38.8692 158.654 38.9052 158.587 39.0064 158.556C45.6792 156.471 50.3437 152.61 50.7086 145.245C50.8993 141.415 49.7521 137.993 47.2671 134.979C45.9098 133.336 44.643 132.083 42.7632 131.322C42.7303 131.308 42.6951 131.302 42.6596 131.303C42.6242 131.304 42.5893 131.312 42.5573 131.327C42.5252 131.342 42.4966 131.364 42.4732 131.39C42.4499 131.417 42.4323 131.448 42.4216 131.482C37.6462 146.42 32.8639 161.352 28.0749 176.28C27.8618 176.954 27.7567 177.853 28.5157 178.101C34.593 180.077 42.1589 180.098 48.2975 177.649ZM7.58373 152.052C7.11961 162.706 12.6394 170.789 21.9655 175.489C22.0433 175.527 22.0949 175.506 22.1202 175.424C27.0027 160.23 31.8734 145.032 36.7326 129.83C37.0361 128.877 36.7248 128.316 35.7985 128.149C34.0529 127.831 32.2432 127.396 30.5152 127.507C17.482 128.336 8.14417 139.25 7.58373 152.052Z" fill="#F9F4F1"/>
<path d="M225.948 98.3689C225.652 98.365 225.411 98.3017 225.224 98.1791C225.185 98.1534 225.154 98.1163 225.136 98.0727C225.118 98.0291 225.113 97.9811 225.123 97.935C225.133 97.8889 225.157 97.8468 225.191 97.8143C225.225 97.7818 225.268 97.7605 225.315 97.753L239.226 95.4908C239.38 95.4655 239.441 95.5287 239.407 95.6805C238.985 97.7121 238.539 99.7233 238.068 101.714C231.519 129.413 224.999 157.119 218.508 184.832C217.827 187.733 219.894 188.282 222.142 188.65C222.203 188.66 222.259 188.693 222.297 188.742C222.336 188.791 222.355 188.853 222.35 188.915C222.345 188.977 222.317 189.035 222.271 189.076C222.226 189.118 222.166 189.141 222.104 189.14H205.238C205.197 189.14 205.157 189.125 205.125 189.098C205.093 189.071 205.072 189.034 205.065 188.993C205.058 188.952 205.065 188.91 205.085 188.874C205.106 188.838 205.138 188.81 205.177 188.796C206.128 188.445 207.313 188.334 208.066 188.013C210.221 187.094 210.659 185.226 211.161 183.083C217.405 156.427 223.613 129.761 229.784 103.086C230.589 99.5978 229.5 98.401 225.948 98.3689Z" fill="#F9F4F1"/>
<path d="M104.263 116.108C100.824 118.309 95.246 117.398 94.8753 112.5C94.6788 109.889 95.5116 107.749 97.3739 106.081C101.198 102.655 108.098 104.003 107.871 110.057C107.775 112.612 106.573 114.629 104.263 116.108Z" fill="#F9F4F1"/>
<path d="M255.953 117.676C252.564 119.491 247.643 118.534 247.048 114.077C246.66 111.175 247.6 108.84 249.867 107.071C253.388 104.321 259.398 105.375 259.961 110.483C260.285 113.455 258.554 116.283 255.953 117.676Z" fill="#F9F4F1"/>
<path d="M209.626 116.597C212.512 113.999 213.026 109.864 210.773 107.363C208.521 104.861 204.355 104.94 201.469 107.538C198.583 110.137 198.07 114.272 200.322 116.773C202.574 119.274 206.74 119.196 209.626 116.597Z" fill="#F9F4F1"/>
<path d="M92.3152 136.552C93.4974 131.485 87.6974 133.604 87.2625 132.541C87.2448 132.498 87.237 132.451 87.2395 132.404C87.2421 132.357 87.255 132.312 87.2773 132.27C87.2996 132.229 87.3308 132.193 87.3686 132.165C87.4064 132.137 87.4499 132.118 87.496 132.109C91.6137 131.331 95.7615 130.635 99.9395 130.022C100.479 129.942 100.918 129.961 101.259 130.078C101.309 130.095 101.354 130.124 101.389 130.163C101.424 130.203 101.449 130.251 101.46 130.302C101.554 130.74 101.539 131.21 101.417 131.712C97.5946 147.294 94.5706 160.038 92.3444 169.945C91.5407 173.52 90.918 177.589 90.4762 182.152C90.2398 184.572 90.4237 186.939 93.3806 187.249C93.7659 187.289 95.4794 187.263 95.5932 187.672C95.6075 187.725 95.6021 187.782 95.5779 187.832C95.5537 187.881 95.5125 187.92 95.4618 187.94C92.3385 189.254 89.3009 189.171 86.3488 187.692C81.5092 185.27 82.6797 177.444 83.675 173.246C86.5784 161.022 89.4585 148.79 92.3152 136.552Z" fill="#F9F4F1"/>
<path d="M151.028 144.425C151.029 144.44 151.034 144.455 151.044 144.467C151.053 144.479 151.067 144.487 151.082 144.491C151.096 144.495 151.112 144.493 151.126 144.487C151.14 144.481 151.152 144.47 151.16 144.457C155.374 136.902 158.962 130.746 168.679 130.274C181.663 129.64 182.276 140.948 179.943 150.482C177.715 159.585 175.551 168.705 173.452 177.841C173.162 179.1 172.977 180.319 172.897 181.498C172.666 184.972 172.296 189.555 177.529 188.603C177.72 188.57 177.949 188.665 178.215 188.886C178.285 188.945 178.289 189.007 178.227 189.073C177.305 190.016 175.839 190.031 174.619 190.095C170.782 190.297 167.843 188.949 165.804 186.049C164.744 184.54 164.444 182.649 164.829 180.912C166.347 174.097 168.631 164.288 171.683 151.486C172.655 147.408 173.796 142.326 172.964 137.79C171.943 132.218 167.211 131.263 162.596 133.064C160.29 133.965 158.341 135.445 156.749 137.504C152.207 143.386 150.047 149.62 148.305 156.807C146.01 166.257 143.772 175.719 141.588 185.194C140.929 188.063 143.672 188.396 145.631 188.703C145.724 188.716 145.771 188.771 145.771 188.866V188.997C145.771 189.093 145.723 189.14 145.628 189.14C139.763 189.14 133.899 189.14 128.035 189.14C128.015 189.14 127.995 189.136 127.976 189.128C127.957 189.12 127.94 189.108 127.927 189.093C127.913 189.077 127.903 189.06 127.896 189.04C127.89 189.021 127.887 189 127.889 188.98C127.927 188.586 129.565 188.341 129.909 188.273C131.705 187.923 132.971 187.161 133.424 185.328C135.998 174.894 138.519 164.447 140.987 153.987C142.411 147.96 147.537 130.802 135 132.399C132.235 132.749 129.818 134.052 127.749 136.307C123.698 140.723 121.941 144.705 120.551 150.522C118.776 157.944 116.104 169.398 112.533 184.884C111.786 188.127 114.191 188.09 116.409 188.732C116.447 188.744 116.48 188.77 116.502 188.804C116.523 188.838 116.532 188.879 116.526 188.919C116.52 188.959 116.501 188.996 116.471 189.023C116.441 189.05 116.403 189.066 116.362 189.067H98.7669C98.7365 189.068 98.7069 189.057 98.6838 189.037C98.6607 189.017 98.6457 188.99 98.6414 188.959L98.6297 188.869C98.618 188.791 98.6511 188.744 98.729 188.729C99.5502 188.55 100.37 188.368 101.19 188.183C104.047 187.535 104.401 185.188 105.014 182.576C108.491 167.811 111.934 153.04 115.344 138.26C116.249 134.337 113.954 134.31 110.881 134.059C110.834 134.056 110.79 134.039 110.754 134.01C110.717 133.981 110.691 133.942 110.676 133.898C110.662 133.854 110.662 133.806 110.675 133.761C110.688 133.716 110.714 133.675 110.749 133.645C111.066 133.378 111.471 133.205 111.964 133.125C115.713 132.516 119.466 131.92 123.222 131.336C123.703 131.26 124.123 131.27 124.483 131.365C124.582 131.39 124.655 131.449 124.702 131.54C125.213 132.55 123.383 138.727 123.044 140.178C123.003 140.347 123.041 140.366 123.158 140.236C125.099 138.07 126.894 135.828 129.01 133.779C132.087 130.796 137.014 130.022 141.314 130.373C145.932 130.749 149.227 133.429 150.482 137.784C151.13 140.04 151.028 142.215 151.028 144.425Z" fill="#F9F4F1"/>
<path d="M243.174 134.506C242.695 134.307 240.231 133.922 239.659 134.068C239.638 134.074 239.616 134.075 239.594 134.071C239.573 134.066 239.552 134.057 239.535 134.044C239.517 134.031 239.503 134.014 239.493 133.994C239.484 133.974 239.478 133.953 239.478 133.931L239.467 133.566C239.465 133.449 239.521 133.381 239.636 133.362L253.562 131.117C253.586 131.113 253.61 131.114 253.633 131.122C253.655 131.129 253.676 131.142 253.693 131.159C253.71 131.176 253.722 131.197 253.73 131.22C253.737 131.244 253.739 131.268 253.735 131.292C253.501 132.582 253.23 133.88 252.92 135.186C250.174 146.77 247.442 158.358 244.724 169.948C243.708 174.278 242.954 178.328 242.462 182.1C242.205 184.076 242.336 187.698 244.68 188.516C245.526 188.808 246.671 188.656 247.666 188.65C247.719 188.649 247.771 188.667 247.813 188.699C247.855 188.732 247.884 188.778 247.897 188.83C247.909 188.881 247.903 188.936 247.88 188.984C247.857 189.032 247.819 189.07 247.771 189.094C241.376 192.307 233.53 188.454 234.881 180.523C235.309 178.015 235.8 175.514 236.355 173.019C238.992 161.158 241.687 149.311 244.441 137.477C244.787 135.991 244.365 135 243.174 134.506Z" fill="#F9F4F1"/>
<path d="M195.306 134.539C194.36 134.083 192.863 134.109 191.815 134.121C191.694 134.123 191.629 134.064 191.619 133.943L191.593 133.596C191.583 133.475 191.638 133.405 191.756 133.386L204.635 131.217C204.792 131.19 204.953 131.203 205.103 131.254C205.254 131.304 205.39 131.392 205.499 131.508C205.607 131.625 205.685 131.766 205.725 131.92C205.766 132.074 205.767 132.236 205.729 132.39C201.873 148.272 197.828 164.044 194.813 180.194C194.395 182.433 193.902 187.235 196.526 188.382C197.37 188.753 198.517 188.636 199.489 188.63C199.59 188.628 199.637 188.679 199.629 188.782C199.596 189.163 199.422 189.408 199.106 189.517C195.637 190.712 192.481 190.389 189.64 188.548C187.357 187.068 187.039 183.017 187.071 180.539C187.109 177.891 187.956 174.718 188.551 172.12C191.124 160.919 193.703 149.719 196.29 138.52C196.637 137.023 197.04 135.379 195.306 134.539Z" fill="#F9F4F1"/>
<path d="M121.553 199.968C120.85 200.73 120.786 201.814 121.409 202.389C122.032 202.964 123.107 202.813 123.81 202.051C124.513 201.289 124.578 200.205 123.955 199.63C123.331 199.055 122.256 199.206 121.553 199.968Z" fill="white"/>
<path d="M87.8085 201.167C87.6684 201.138 87.5964 201.051 87.5925 200.907C87.5779 200.493 88.1121 200.738 88.3456 200.738C90.6905 200.746 93.0364 200.747 95.3832 200.741C98.7225 200.735 101.119 202.808 100.179 206.372C99.0057 210.811 93.5939 212.461 89.4986 212.25C89.4364 212.247 89.375 212.265 89.3246 212.301C89.2742 212.337 89.2378 212.39 89.2213 212.449C88.7056 214.303 88.2191 216.191 87.7618 218.112C87.4991 219.221 88.5353 219.519 89.3643 219.417C89.4124 219.411 89.461 219.421 89.5035 219.444C89.546 219.467 89.5804 219.502 89.6021 219.546C89.6237 219.589 89.6315 219.638 89.6245 219.686C89.6175 219.734 89.596 219.778 89.5628 219.814C89.2388 220.152 89.0753 219.954 88.7396 219.948C86.7236 219.913 84.7212 219.923 82.7324 219.98C82.6585 219.982 82.6098 219.949 82.5865 219.881C82.5047 219.643 82.6127 219.492 82.9105 219.428C82.9941 219.411 83.0778 219.402 83.1615 219.402C84.2727 219.419 84.9781 218.893 85.2778 217.823C86.0445 215.079 87.3191 210.277 89.1016 203.418C89.5073 201.865 89.376 201.488 87.8085 201.167ZM97.6863 204.927C97.9607 202.09 95.6255 200.589 93.1064 201.398C92.1753 201.695 91.8629 202.533 91.6411 203.391C90.9406 206.089 90.2176 208.791 89.4723 211.5C89.449 211.586 89.482 211.632 89.5716 211.637C94.5124 212.027 97.2173 209.79 97.6863 204.927Z" fill="white"/>
<path d="M119.809 206.598C118.569 206.68 117.751 208.866 117.372 210.095C117.293 210.343 117.15 210.46 116.89 210.352C116.85 210.336 116.818 210.305 116.801 210.265C116.783 210.225 116.782 210.18 116.797 210.139C117.55 208.104 118.055 205.798 120.679 205.623C123.145 205.457 122.725 207.637 122.211 209.187C121.715 210.68 120.69 213.653 119.135 218.108C118.962 218.6 119.028 218.995 119.333 219.293C119.373 219.332 119.421 219.361 119.474 219.378C119.527 219.395 119.582 219.4 119.637 219.392C121.447 219.135 121.879 215.355 122.553 215.562C122.652 215.592 122.686 215.656 122.655 215.755C121.946 217.988 121.234 220.475 118.341 220.396C116.254 220.341 116.718 218.105 117.197 216.742C118.257 213.716 119.317 210.69 120.375 207.664C120.515 207.265 120.405 206.932 120.043 206.665C119.973 206.615 119.895 206.592 119.809 206.598Z" fill="white"/>
<path d="M150.859 207.141L151.072 206.186C151.097 206.081 151.163 206.021 151.27 206.005L153.527 205.681C153.604 205.672 153.633 205.705 153.611 205.781C151.893 211.77 150.711 215.951 150.065 218.323C149.975 218.66 150.022 218.955 150.205 219.208C150.261 219.286 150.337 219.328 150.432 219.333C152.082 219.447 152.636 216.852 153.057 215.688C153.09 215.6 153.152 215.556 153.243 215.556H153.36C153.477 215.556 153.521 215.613 153.492 215.726C153.027 217.591 151.947 220.91 149.265 220.343C147.099 219.888 148.503 216.502 148.774 215.156C148.776 215.15 148.777 215.144 148.777 215.138C148.776 215.132 148.774 215.126 148.772 215.12C148.769 215.115 148.765 215.11 148.76 215.106C148.755 215.102 148.75 215.098 148.744 215.097C148.738 215.095 148.732 215.094 148.725 215.094C148.719 215.095 148.713 215.097 148.708 215.1C148.702 215.102 148.697 215.106 148.693 215.111C148.689 215.116 148.686 215.121 148.684 215.127C147.89 217.025 146.539 219.404 144.717 220.122C143.115 220.752 141.623 220.253 141.112 218.472C140.417 216.041 141.623 213.014 142.84 210.725C143.941 208.653 146.647 205.089 149.274 205.635C149.898 205.763 150.367 206.268 150.681 207.15C150.753 207.348 150.812 207.345 150.859 207.141ZM143.766 219.228C144.621 220.142 146.051 218.437 146.524 217.778C148.293 215.324 149.518 212.629 150.199 209.692C150.996 206.262 148.658 204.68 146.501 207.818C144.422 210.84 143.349 214.192 143.281 217.874C143.271 218.421 143.433 218.872 143.766 219.228Z" fill="white"/>
<path d="M176.49 212.857C176.5 212.857 176.509 212.856 176.519 212.854C176.527 212.852 176.535 212.848 176.542 212.84C176.549 212.833 176.555 212.824 176.56 212.813C177.64 209.941 179.721 205.615 183.44 205.63C185.804 205.638 185.544 207.883 185.048 209.41C183.957 212.764 181.89 218.517 182.284 219.197C182.331 219.275 182.399 219.32 182.488 219.331C184.102 219.515 184.809 217.081 185.171 215.732C185.183 215.686 185.209 215.646 185.246 215.616C185.284 215.586 185.33 215.568 185.378 215.566L185.591 215.554C185.611 215.553 185.632 215.557 185.65 215.566C185.668 215.574 185.684 215.587 185.697 215.603C185.709 215.619 185.717 215.638 185.721 215.658C185.724 215.678 185.723 215.698 185.717 215.718C184.961 218.137 184.184 220.753 181.315 220.37C179.858 220.175 179.674 218.838 180.051 217.597C181.02 214.414 182.048 211.249 183.133 208.102C183.349 207.474 183.265 206.342 182.182 206.499C178.53 207.034 175.419 216.675 174.712 219.801C174.699 219.86 174.666 219.913 174.619 219.95C174.571 219.988 174.513 220.009 174.452 220.008H172.476C172.332 220.008 172.28 219.939 172.319 219.801C173.502 215.641 174.655 211.503 175.778 207.39C175.857 207.1 175.779 206.874 175.541 206.712C174.146 205.764 172.993 209.421 172.748 210.25C172.731 210.305 172.696 210.351 172.649 210.382C172.601 210.412 172.544 210.425 172.488 210.417L172.371 210.399C172.26 210.386 172.22 210.325 172.251 210.218C172.631 208.889 172.98 207.927 173.299 207.331C173.95 206.111 175.486 205.241 176.861 205.746C178.589 206.38 176.872 211.333 176.452 212.79C176.44 212.833 176.453 212.855 176.49 212.857Z" fill="white"/>
<path d="M205.446 219.661C204.272 218.776 203.966 217.399 204.024 215.893C204.179 211.94 206.646 206.169 211.135 205.653C213.601 205.367 215.575 206.683 215.61 209.287C215.645 211.941 214.873 214.525 213.295 217.037C211.754 219.486 208.07 221.64 205.446 219.661ZM207.901 219.813C208.473 219.861 209.016 219.644 209.53 219.162C212.113 216.724 213.158 212.25 213.286 208.843C213.418 205.358 210.846 205.516 209.241 207.731C207.41 210.256 206.526 213.709 206.371 216.777C206.307 218.023 206.219 219.664 207.901 219.813Z" fill="white"/>
<path d="M233.687 219.588C232.75 218.975 232.082 216.453 233.78 216.476C235.208 216.494 235.138 218.522 234.799 219.407C234.79 219.432 234.785 219.46 234.787 219.487C234.788 219.514 234.795 219.541 234.807 219.566C234.819 219.59 234.836 219.612 234.857 219.63C234.877 219.648 234.902 219.661 234.928 219.67C236.845 220.274 238.6 219.413 238.784 217.323C239.055 214.278 236.238 213.046 235.71 210.297C234.65 204.777 243.658 204.12 243.174 208.233C242.902 210.516 239.382 209.042 241.431 206.66C241.46 206.626 241.48 206.585 241.489 206.541C241.498 206.498 241.495 206.453 241.482 206.41C241.469 206.368 241.446 206.33 241.414 206.299C241.382 206.269 241.342 206.247 241.3 206.236C239.948 205.88 238.658 206.143 238.089 207.495C237.061 209.935 239.995 212.22 240.792 214.509C242.383 219.092 237.155 221.868 233.687 219.588Z" fill="white"/>
</svg>
