<svg width="102" height="104" viewBox="0 0 102 104" fill="none" xmlns="http://www.w3.org/2000/svg">
<path d="M15.4281 49.4317C16.433 46.2669 17.4488 43.106 18.4754 39.949C18.6038 39.5547 18.4836 39.0425 18.2573 38.6424C16.2074 35.0222 15.3173 30.9832 15.1493 26.8555C14.9299 21.4749 16.4069 16.359 19.4531 11.9595C22.8691 7.02804 27.4938 3.20254 32.7403 0.341871C32.9853 0.207705 33.2559 0.115538 33.5196 0.00353797C33.5276 0.000224665 33.5364 -0.000788067 33.545 0.000612221C33.5535 0.00201251 33.5615 0.00577027 33.5681 0.0114652C33.5746 0.0171601 33.5794 0.024566 33.582 0.0328515C33.5846 0.041137 33.5848 0.0499744 33.5826 0.0583714C33.4531 0.534371 33.3353 1.02671 33.1883 1.48871C29.3165 13.6314 25.4474 25.7748 21.5811 37.919C21.2183 39.06 21.1471 39.6165 21.8646 40.5347C23.5454 42.6853 25.1822 44.8685 26.7751 47.0844C30.2179 51.8759 32.5128 57.547 30.7861 63.4049C28.0911 72.5539 19.6678 77.2065 10.4499 74.8452C9.87476 74.6982 9.7651 75.1077 9.61343 75.5849C8.30832 79.6923 7.02693 83.8064 5.76927 87.927C5.2746 89.5503 4.92421 91.091 4.7181 92.5494C4.0566 97.2405 6.73293 101.588 11.8009 101.605C14.1693 101.613 16.0908 100.688 17.5654 98.8295C19.4041 96.5114 19.0763 92.9029 16.6578 91.1167C15.2111 90.0469 13.0283 89.9127 11.4976 90.986C10.1466 91.9345 9.39643 93.6647 10.6903 95.0647C11.3926 95.8242 12.5079 96.0354 13.3339 95.3179C13.8088 94.9049 14.1354 94.2924 14.4061 93.7405C14.4271 93.6985 14.4567 93.6915 14.4948 93.7195C15.1777 94.2274 15.8508 94.7555 16.5143 95.3039C16.8188 95.5547 16.8584 95.9852 16.6414 96.2757C15.5308 97.7628 14.1199 98.4228 12.4088 98.2555C10.3426 98.0537 8.62993 96.8287 8.15977 94.724C7.2871 90.811 10.0498 87.8862 13.8193 87.5642C16.0534 87.374 18.1593 88.5489 19.5768 90.279C22.3091 93.6145 21.0689 98.6382 18.0706 101.323C15.2613 103.839 10.9306 103.655 7.7596 102.032C2.17826 99.1772 1.73143 92.8679 3.3881 87.507C4.7461 83.1118 6.12238 78.7084 7.51693 74.2969C7.55111 74.1896 7.54674 74.0737 7.50458 73.9692C7.46242 73.8646 7.3851 73.7779 7.28593 73.724C6.81538 73.4689 6.33238 73.1815 5.83693 72.8619C-0.296234 68.9104 -1.5399 61.5674 1.8411 55.2627C3.6506 51.8875 7.2206 49.3174 11.1581 49.3839C12.555 49.408 13.9519 49.4426 15.3488 49.4877C15.39 49.4893 15.4164 49.4706 15.4281 49.4317ZM20.7726 17.4534C17.7918 23.5049 16.9109 29.8107 19.4799 36.113C19.4881 36.133 19.5023 36.1499 19.5204 36.1615C19.5386 36.1731 19.5598 36.1789 19.5814 36.178C19.6029 36.1771 19.6236 36.1696 19.6408 36.1565C19.6579 36.1434 19.6706 36.1254 19.6771 36.1049L28.4539 8.51087C28.4601 8.491 28.4598 8.4697 28.4532 8.44998C28.4466 8.43026 28.4339 8.41313 28.417 8.401C28.4001 8.38888 28.3798 8.38237 28.359 8.38241C28.3382 8.38244 28.318 8.38902 28.3011 8.4012C25.0531 10.7894 22.5471 13.8507 20.7726 17.4534ZM19.3038 71.0034C24.8513 68.7902 28.5753 63.5274 28.3979 57.484C28.3034 54.2442 27.4016 51.4792 25.5454 48.8262C23.916 46.4991 22.213 44.2432 20.4366 42.0584C20.4262 42.0456 20.4126 42.0359 20.3971 42.0303C20.3816 42.0246 20.3649 42.0233 20.3488 42.0264C20.3326 42.0295 20.3176 42.037 20.3053 42.0479C20.2931 42.0589 20.284 42.073 20.2791 42.0887L17.6786 50.2519C17.6516 50.3362 17.6545 50.4273 17.6868 50.5097C17.7191 50.5922 17.7788 50.661 17.8559 50.7045C18.3448 50.9787 18.8943 51.2645 19.3236 51.5807C23.2669 54.4775 24.3496 59.9865 21.5823 64.0582C20.5447 65.585 19.1739 66.7307 17.4698 67.4952C17.1874 67.6224 16.8514 67.6854 16.7289 67.34C16.4186 66.4674 16.0247 65.1716 15.5471 63.4527C15.5354 63.4115 15.5498 63.3846 15.5903 63.3722C18.2573 62.5392 20.1216 60.9957 20.2674 58.0522C20.3437 56.5215 19.8852 55.1538 18.8919 53.949C18.3494 53.2922 17.8431 52.7917 17.0918 52.4872C17.0786 52.4819 17.0646 52.4793 17.0504 52.4797C17.0362 52.4801 17.0223 52.4834 17.0095 52.4894C16.9967 52.4954 16.9852 52.5041 16.9759 52.5147C16.9666 52.5254 16.9595 52.5379 16.9553 52.5514C15.0466 58.5216 13.1352 64.4899 11.2211 70.4562C11.1359 70.7257 11.0939 71.085 11.3973 71.1842C13.8263 71.974 16.8503 71.9822 19.3038 71.0034ZM3.0311 60.7729C2.8456 65.0312 5.05177 68.2617 8.77926 70.14C8.81038 70.1556 8.83099 70.147 8.8411 70.1144C10.7925 64.0415 12.7393 57.967 14.6814 51.891C14.8028 51.5099 14.6783 51.2859 14.3081 51.219C13.6104 51.0919 12.8871 50.918 12.1964 50.9624C6.98726 51.2937 3.2551 55.6559 3.0311 60.7729Z" fill="#CDA558"/>
<path d="M90.3083 39.3166C90.1901 39.315 90.0936 39.2897 90.0189 39.2407C90.0032 39.2304 89.9909 39.2156 89.9837 39.1982C89.9765 39.1808 89.9747 39.1616 89.9786 39.1432C89.9825 39.1247 89.9919 39.1079 90.0056 39.0949C90.0192 39.0819 90.0365 39.0734 90.0551 39.0704L95.6154 38.1662C95.6769 38.1561 95.701 38.1814 95.6878 38.2421C95.519 39.0541 95.3405 39.8579 95.1523 40.6536C92.5351 51.7244 89.9291 62.7981 87.3344 73.8744C87.0626 75.0341 87.8886 75.2534 88.7869 75.4004C88.8115 75.4045 88.8337 75.4177 88.8491 75.4374C88.8645 75.457 88.872 75.4817 88.8701 75.5065C88.8682 75.5313 88.857 75.5543 88.8387 75.571C88.8205 75.5876 88.7966 75.5967 88.7718 75.5964H82.0308C82.0142 75.5962 81.9982 75.5902 81.9856 75.5795C81.973 75.5688 81.9645 75.554 81.9616 75.5377C81.9586 75.5214 81.9615 75.5046 81.9697 75.4902C81.9779 75.4757 81.9908 75.4646 82.0063 75.4587C82.3866 75.3187 82.8603 75.2744 83.1613 75.1461C84.0223 74.7786 84.1973 74.0319 84.3979 73.1756C86.8938 62.5216 89.3749 51.8637 91.8413 41.2019C92.1633 39.8077 91.7281 39.3294 90.3083 39.3166Z" fill="#CDA558"/>
<path d="M36.8972 54.578C37.3697 52.5527 35.0515 53.3996 34.8777 52.975C34.8706 52.9576 34.8675 52.9389 34.8685 52.9201C34.8696 52.9014 34.8747 52.8831 34.8836 52.8666C34.8926 52.8501 34.905 52.8358 34.9201 52.8247C34.9352 52.8136 34.9526 52.8059 34.971 52.8023C36.6168 52.4912 38.2746 52.2131 39.9445 51.9681C40.16 51.9363 40.3357 51.9436 40.4719 51.9903C40.4918 51.997 40.5097 52.0089 40.5238 52.0246C40.5379 52.0403 40.5477 52.0595 40.5524 52.0802C40.5897 52.2552 40.5839 52.443 40.5349 52.6437C39.0073 58.8713 37.7986 63.965 36.9089 67.9247C36.5876 69.3534 36.3387 70.9798 36.1622 72.8037C36.0677 73.7708 36.1412 74.717 37.323 74.8407C37.477 74.857 38.1619 74.8465 38.2074 75.0098C38.2131 75.0312 38.2109 75.0539 38.2012 75.0737C38.1916 75.0934 38.1751 75.1089 38.1549 75.1172C36.9065 75.6422 35.6924 75.6091 34.5125 75.018C32.5782 74.0496 33.046 70.9218 33.4439 69.2442C34.6043 64.3581 35.7554 59.4694 36.8972 54.578Z" fill="#CDA558"/>
<path d="M60.3632 57.7248C60.3633 57.7309 60.3655 57.7368 60.3694 57.7416C60.3732 57.7464 60.3786 57.7498 60.3845 57.7513C60.3905 57.7527 60.3968 57.7522 60.4024 57.7497C60.408 57.7472 60.4127 57.743 60.4157 57.7376C62.1004 54.7183 63.5342 52.2578 67.418 52.0688C72.6073 51.8156 72.8523 56.3353 71.9202 60.1456C71.0296 63.784 70.1647 67.4291 69.3255 71.0808C69.2096 71.584 69.1357 72.0713 69.1038 72.5426C69.0117 73.9309 68.8635 75.7626 70.9553 75.3823C71.0316 75.369 71.123 75.4068 71.2295 75.4954C71.2575 75.5188 71.2591 75.5437 71.2342 75.5701C70.8655 75.9469 70.2798 75.9528 69.7922 75.9784C68.2584 76.0593 67.084 75.5203 66.2688 74.3614C65.8453 73.7583 65.7252 73.0023 65.8792 72.3081C66.4858 69.5843 67.399 65.6639 68.6185 60.5469C69.007 58.9171 69.4632 56.8859 69.1307 55.0729C68.7223 52.8458 66.8312 52.4643 64.9867 53.1841C64.065 53.5442 63.2861 54.1357 62.6498 54.9586C60.8345 57.3094 59.9712 59.8014 59.2747 62.6738C58.3577 66.4507 57.4628 70.2326 56.5902 74.0196C56.3265 75.1664 57.4232 75.2994 58.206 75.4219C58.2434 75.4274 58.262 75.4492 58.262 75.4873V75.5398C58.262 75.5779 58.243 75.5969 58.2048 75.5969C55.8606 75.5969 53.5168 75.5969 51.1733 75.5969C51.1652 75.597 51.1571 75.5953 51.1496 75.592C51.1421 75.5887 51.1354 75.5839 51.1299 75.5778C51.1244 75.5718 51.1202 75.5647 51.1177 75.5569C51.1151 75.5491 51.1142 75.5409 51.115 75.5328C51.1302 75.3753 51.7847 75.2773 51.9223 75.2504C52.6398 75.1104 53.1462 74.8059 53.327 74.0733C54.356 69.9028 55.3636 65.7273 56.3498 61.5468C56.9192 59.1376 58.9678 52.2799 53.957 52.9181C52.8518 53.0581 51.8858 53.5788 51.059 54.4803C49.4397 56.2454 48.7373 57.8368 48.182 60.1619C47.4727 63.1284 46.4044 67.7064 44.9772 73.8959C44.6785 75.1921 45.6398 75.1769 46.5265 75.4336C46.5418 75.4386 46.5549 75.4489 46.5634 75.4626C46.572 75.4763 46.5754 75.4925 46.5732 75.5085C46.571 75.5245 46.5632 75.5391 46.5513 75.55C46.5393 75.5608 46.524 75.5671 46.5078 75.5678H39.4752C39.463 75.5679 39.4512 75.5636 39.442 75.5556C39.4327 75.5477 39.4267 75.5367 39.425 75.5246L39.4203 75.4884C39.4157 75.4573 39.4289 75.4387 39.46 75.4324C39.7882 75.3609 40.1161 75.2882 40.4435 75.2143C41.5857 74.9553 41.7268 74.0173 41.9718 72.9731C43.3617 67.0721 44.738 61.168 46.1007 55.2608C46.4623 53.6928 45.5453 53.6823 44.3168 53.5819C44.2983 53.5806 44.2807 53.5738 44.2662 53.5623C44.2516 53.5508 44.2409 53.5352 44.2352 53.5174C44.2296 53.4996 44.2294 53.4805 44.2346 53.4625C44.2397 53.4445 44.2501 53.4284 44.2643 53.4163C44.3911 53.3097 44.5529 53.2405 44.7497 53.2086C46.2485 52.9652 47.7484 52.7268 49.2495 52.4934C49.4416 52.4631 49.6096 52.467 49.7535 52.5051C49.7932 52.5152 49.8223 52.5385 49.841 52.5751C50.0452 52.9788 49.3137 55.4474 49.1783 56.0273C49.162 56.0949 49.1772 56.1027 49.2239 56.0506C49.9997 55.1849 50.7172 54.2889 51.563 53.4699C52.7927 52.2776 54.762 51.9684 56.4805 52.1084C58.3262 52.2589 59.6433 53.3299 60.145 55.0706C60.404 55.9724 60.3632 56.8416 60.3632 57.7248Z" fill="#CDA558"/>
<path d="M97.1927 53.7602C97.0014 53.6809 96.0167 53.5269 95.7881 53.5852C95.7796 53.5875 95.7707 53.5879 95.7621 53.5862C95.7535 53.5845 95.7454 53.5809 95.7384 53.5756C95.7314 53.5703 95.7257 53.5635 95.7218 53.5556C95.7178 53.5478 95.7158 53.5391 95.7157 53.5304L95.7111 53.3845C95.7103 53.3379 95.7328 53.3106 95.7787 53.3028L101.345 52.4057C101.354 52.404 101.364 52.4047 101.373 52.4076C101.382 52.4105 101.39 52.4156 101.397 52.4225C101.404 52.4294 101.409 52.4378 101.412 52.447C101.415 52.4563 101.415 52.4661 101.414 52.4757C101.32 52.9914 101.212 53.5101 101.088 54.032C99.9908 58.6621 98.8988 63.2934 97.8122 67.9259C97.4062 69.6564 97.1048 71.2754 96.9081 72.7827C96.8054 73.5725 96.8579 75.0204 97.7947 75.347C98.1331 75.4637 98.5904 75.403 98.9882 75.4007C99.0095 75.4004 99.0302 75.4073 99.0469 75.4204C99.0637 75.4334 99.0755 75.4518 99.0804 75.4725C99.0853 75.4932 99.083 75.5149 99.0739 75.5341C99.0647 75.5533 99.0493 75.5688 99.0302 75.578C96.4741 76.8625 93.3381 75.3225 93.8782 72.1527C94.0493 71.1501 94.2457 70.1503 94.4674 69.1532C95.5213 64.4126 96.5985 59.6775 97.6991 54.9479C97.8375 54.3536 97.6687 53.9577 97.1927 53.7602Z" fill="#CDA558"/>
<path d="M78.0606 53.7731C77.6826 53.5911 77.084 53.6016 76.6652 53.6062C76.617 53.607 76.5909 53.5833 76.5871 53.5351L76.5765 53.3962C76.5727 53.348 76.5944 53.32 76.6419 53.3122L81.7892 52.4454C81.8519 52.4347 81.9163 52.4398 81.9765 52.4601C82.0368 52.4805 82.091 52.5155 82.1344 52.562C82.1778 52.6085 82.2089 52.665 82.225 52.7265C82.2412 52.788 82.2417 52.8526 82.2267 52.9144C80.6855 59.2622 79.0686 65.5657 77.8634 72.0209C77.6966 72.9157 77.4994 74.8349 78.5482 75.2934C78.8854 75.4416 79.3439 75.3949 79.7324 75.3926C79.7728 75.3918 79.7915 75.412 79.7884 75.4532C79.7752 75.6057 79.7055 75.7037 79.5795 75.7472C78.1928 76.2248 76.9316 76.0957 75.796 75.3599C74.8837 74.7684 74.7565 73.1491 74.7694 72.1586C74.7845 71.1004 75.1229 69.8322 75.3609 68.7939C76.3891 64.317 77.4201 59.8405 78.4537 55.3644C78.5926 54.7659 78.7536 54.1091 78.0606 53.7731Z" fill="#CDA558"/>
<path d="M35.0958 80.4034C35.0398 80.3917 35.011 80.3571 35.0094 80.2996C35.0036 80.1339 35.2171 80.2319 35.3104 80.2319C36.2477 80.235 37.1853 80.2354 38.1233 80.2331C39.4579 80.2307 40.4158 81.0591 40.0401 82.4836C39.5711 84.2581 37.4081 84.9172 35.7713 84.8332C35.7464 84.832 35.7219 84.8392 35.7017 84.8536C35.6816 84.868 35.667 84.8888 35.6604 84.9126C35.4543 85.6538 35.2599 86.4082 35.0771 87.1759C34.9721 87.6192 35.3863 87.7382 35.7176 87.6974C35.7368 87.6953 35.7562 87.6991 35.7732 87.7083C35.7902 87.7175 35.804 87.7318 35.8126 87.7491C35.8213 87.7664 35.8244 87.7859 35.8216 87.805C35.8188 87.8242 35.8102 87.842 35.7969 87.8561C35.6674 87.9914 35.6021 87.9121 35.4679 87.9097C34.6622 87.8957 33.8618 87.9 33.0669 87.9226C33.0374 87.9234 33.0179 87.9101 33.0086 87.8829C32.9759 87.788 33.0191 87.7277 33.1381 87.7021C33.1715 87.6951 33.205 87.6916 33.2384 87.6916C33.6825 87.6986 33.9645 87.4882 34.0843 87.0604C34.3907 85.9637 34.9002 84.0446 35.6126 81.3029C35.7748 80.6822 35.7223 80.5317 35.0958 80.4034ZM39.0438 81.9061C39.1534 80.7721 38.2201 80.1724 37.2133 80.4956C36.8411 80.6146 36.7163 80.9494 36.6276 81.2924C36.3476 82.3704 36.0587 83.4507 35.7608 84.5334C35.7514 84.5676 35.7647 84.5859 35.8004 84.5882C37.7752 84.7438 38.8563 83.8497 39.0438 81.9061Z" fill="white"/>
<path d="M47.8858 82.5749C47.3899 82.6076 47.0633 83.4814 46.9116 83.9726C46.8801 84.0717 46.8229 84.1184 46.7191 84.0752C46.7032 84.0688 46.6904 84.0563 46.6834 84.0405C46.6765 84.0246 46.6759 84.0065 46.6818 83.9901C46.9828 83.1769 47.1846 82.2552 48.2334 82.1852C49.2193 82.1187 49.0513 82.9902 48.8459 83.6097C48.6476 84.2063 48.2377 85.3947 47.6163 87.1751C47.5471 87.3718 47.5735 87.5297 47.6956 87.6487C47.7116 87.6643 47.7308 87.676 47.7519 87.6829C47.7729 87.6898 47.7952 87.6917 47.8169 87.6884C48.5403 87.5857 48.7129 86.0749 48.9824 86.1577C49.0221 86.1694 49.0357 86.1951 49.0233 86.2347C48.7398 87.1272 48.4551 88.1212 47.2989 88.0897C46.4648 88.0676 46.6503 87.1739 46.8416 86.6291C47.2655 85.4196 47.689 84.2102 48.1121 83.0007C48.1681 82.8413 48.1238 82.7083 47.9791 82.6017C47.9511 82.5815 47.92 82.5726 47.8858 82.5749Z" fill="white"/>
<path d="M60.2959 82.7914L60.381 82.4099C60.3911 82.3679 60.4176 82.3438 60.4604 82.3376L61.3622 82.2081C61.3933 82.2042 61.4046 82.2174 61.396 82.2478C60.7093 84.6418 60.2368 86.3128 59.9785 87.2609C59.9428 87.3955 59.9614 87.5133 60.0345 87.6144C60.0571 87.6455 60.0874 87.6623 60.1255 87.6646C60.7847 87.7101 61.0064 86.6729 61.1744 86.2074C61.1876 86.1724 61.2125 86.1549 61.249 86.1549H61.2957C61.3424 86.1549 61.3599 86.1775 61.3482 86.2226C61.1627 86.9681 60.731 88.2946 59.6589 88.0683C58.7932 87.8863 59.3544 86.5329 59.4629 85.9951C59.4636 85.9927 59.4639 85.9902 59.4637 85.9877C59.4635 85.9852 59.4628 85.9828 59.4617 85.9806C59.4606 85.9784 59.459 85.9764 59.4571 85.9748C59.4552 85.9732 59.453 85.9719 59.4506 85.9712C59.4482 85.9704 59.4457 85.9701 59.4433 85.9703C59.4408 85.9705 59.4383 85.9712 59.4361 85.9724C59.4339 85.9735 59.4319 85.975 59.4303 85.977C59.4287 85.9789 59.4275 85.9811 59.4267 85.9834C59.1094 86.7418 58.5692 87.6926 57.8412 87.9796C57.2007 88.2316 56.6045 88.0321 56.4004 87.3204C56.1227 86.3486 56.6045 85.1388 57.091 84.2241C57.5309 83.3958 58.6124 81.9713 59.6624 82.1894C59.912 82.2408 60.0995 82.4426 60.2247 82.7949C60.2535 82.8743 60.2772 82.8731 60.2959 82.7914ZM57.4609 87.6226C57.8027 87.9878 58.3744 87.3064 58.5634 87.0428C59.2704 86.062 59.76 84.9848 60.0322 83.8111C60.3507 82.4403 59.4162 81.8079 58.554 83.0621C57.7234 84.27 57.2944 85.6097 57.2672 87.0813C57.2633 87.2998 57.3279 87.4803 57.4609 87.6226Z" fill="white"/>
<path d="M70.5404 85.0762C70.5443 85.0762 70.5482 85.0758 70.552 85.0751C70.5553 85.0744 70.5585 85.0725 70.5613 85.0696C70.5642 85.0668 70.5666 85.063 70.5684 85.0587C71 83.9107 71.8319 82.1817 73.3182 82.1876C74.2632 82.1911 74.1594 83.0882 73.961 83.6984C73.5247 85.0389 72.6987 87.3384 72.8562 87.6102C72.8749 87.6413 72.9021 87.6592 72.9379 87.6639C73.583 87.7374 73.8654 86.7644 74.01 86.2254C74.0148 86.2071 74.0253 86.1908 74.0402 86.1789C74.0551 86.1669 74.0736 86.1599 74.0929 86.1589L74.178 86.1542C74.1861 86.1538 74.1942 86.1554 74.2015 86.1588C74.2089 86.1622 74.2153 86.1674 74.2202 86.1738C74.2251 86.1802 74.2284 86.1877 74.2298 86.1957C74.2312 86.2037 74.2307 86.2118 74.2282 86.2196C73.926 87.1867 73.6157 88.2321 72.4689 88.0792C71.8867 88.0011 71.8132 87.4667 71.9637 86.9709C72.351 85.6984 72.7617 84.4334 73.1957 83.1757C73.282 82.9249 73.2482 82.4722 72.8154 82.5352C71.3559 82.7487 70.1122 86.6022 69.8299 87.8517C69.8246 87.8753 69.8114 87.8963 69.7925 87.9114C69.7736 87.9264 69.7502 87.9346 69.726 87.9346H68.9362C68.8787 87.9346 68.8577 87.9069 68.8732 87.8517C69.3461 86.1888 69.8069 84.5353 70.2557 82.8911C70.2876 82.7752 70.2561 82.6849 70.1612 82.6204C69.6035 82.2412 69.1427 83.7031 69.0447 84.0344C69.0382 84.0561 69.0242 84.0747 69.0051 84.0869C68.9861 84.0991 68.9633 84.1041 68.9409 84.1009L68.8942 84.0939C68.8499 84.0884 68.8339 84.0643 68.8464 84.0216C68.998 83.4903 69.1377 83.1057 69.2652 82.8677C69.5254 82.3801 70.139 82.0324 70.6885 82.2342C71.3792 82.4874 70.6932 84.4672 70.5252 85.0494C70.5205 85.0665 70.5256 85.0754 70.5404 85.0762Z" fill="white"/>
<path d="M82.1134 87.7954C81.6444 87.4419 81.5219 86.8912 81.5452 86.2892C81.607 84.7096 82.5929 82.4031 84.3872 82.1966C85.373 82.0822 86.1617 82.6084 86.1757 83.6491C86.1897 84.7099 85.8813 85.7424 85.2505 86.7466C84.6345 87.7254 83.1622 88.5864 82.1134 87.7954ZM83.0945 87.8561C83.3232 87.8755 83.5402 87.7888 83.7455 87.5959C84.778 86.6217 85.1957 84.8332 85.247 83.4717C85.2995 82.0787 84.2717 82.1417 83.63 83.0272C82.8985 84.0364 82.545 85.4165 82.4832 86.6427C82.4575 87.1409 82.4225 87.7966 83.0945 87.8561Z" fill="white"/>
<path d="M93.401 87.7664C93.0265 87.5214 92.7593 86.5134 93.4383 86.5228C94.0088 86.5298 93.9808 87.3406 93.8455 87.6941C93.8417 87.7044 93.84 87.7153 93.8405 87.7262C93.841 87.7371 93.8438 87.7478 93.8486 87.7576C93.8534 87.7675 93.8601 87.7762 93.8684 87.7833C93.8767 87.7905 93.8864 87.7958 93.8968 87.7991C94.6633 88.0406 95.3645 87.6964 95.438 86.8611C95.5465 85.6443 94.4207 85.1519 94.2095 84.0529C93.786 81.8468 97.3863 81.5843 97.1927 83.2281C97.0842 84.1404 95.6772 83.5513 96.4962 82.5993C96.5077 82.5857 96.5156 82.5694 96.5192 82.552C96.5228 82.5346 96.5219 82.5165 96.5166 82.4996C96.5114 82.4827 96.5019 82.4674 96.4892 82.4553C96.4764 82.4431 96.4607 82.4345 96.4437 82.4301C95.9035 82.2878 95.3878 82.3928 95.1603 82.9329C94.7497 83.9083 95.9222 84.8218 96.2407 85.7364C96.8765 87.5681 94.787 88.6776 93.401 87.7664Z" fill="white"/>
</svg>
