<svg width="35" height="35" viewBox="0 0 35 35" fill="none" xmlns="http://www.w3.org/2000/svg">
<path id="Vector" fill-rule="evenodd" clip-rule="evenodd" d="M4.0698 17.5C4.0698 9.67595 10.2649 3.33333 17.907 3.33333C25.549 3.33333 31.7442 9.67595 31.7442 17.5C31.7442 25.3239 25.549 31.6666 17.907 31.6666C15.1848 31.6666 12.6509 30.8636 10.513 29.4768C10.1151 29.2188 9.62757 29.1498 9.17625 29.2876L4.48926 30.7198L6.25398 26.4921C6.46256 25.9924 6.42013 25.4201 6.14026 24.9584C4.82789 22.7933 4.0698 20.2398 4.0698 17.5ZM17.907 0C8.46679 0 0.813988 7.835 0.813988 17.5C0.813988 20.5635 1.58422 23.4471 2.9378 25.9544L0.131 32.6783C-0.117129 33.2728 -0.00714418 33.9604 0.413198 34.4428C0.833539 34.9253 1.48843 35.1153 2.09347 34.9303L9.41811 32.6924C11.9203 34.1608 14.82 34.9999 17.907 34.9999C27.3472 34.9999 35 27.1649 35 17.5C35 7.835 27.3472 0 17.907 0ZM21.639 21.1373L19.4996 22.6801C18.4976 22.0958 17.3898 21.2801 16.2786 20.1425C15.1234 18.9598 14.267 17.7388 13.6355 16.6188L14.9951 15.4373C15.5786 14.9303 15.7383 14.0755 15.3788 13.3838L13.6465 10.0504C13.4132 9.6016 12.9926 9.28631 12.5042 9.19421C12.0158 9.10213 11.5131 9.24331 11.1389 9.57763L10.6253 10.0366C9.39014 11.1402 8.65965 12.9538 9.26509 14.7901C9.89276 16.6938 11.2323 19.69 13.9764 22.4995C16.9288 25.5221 19.9277 26.7124 21.6814 27.1748C23.0945 27.5471 24.4316 27.0479 25.3739 26.2619L26.3368 25.4586C26.7486 25.1151 26.9708 24.5873 26.9321 24.0448C26.8932 23.5023 26.5982 23.0133 26.1417 22.7348L23.4096 21.0681C22.8578 20.7316 22.1643 20.7586 21.639 21.1373Z" fill="#023F42"/>
</svg>
