<svg width="35" height="35" viewBox="0 0 35 35" fill="none" xmlns="http://www.w3.org/2000/svg">
<path d="M28.593 10.7305H30.011L29.213 9.55837C28.7145 8.82624 28.1442 8.13529 27.5045 7.49554C26.5582 6.54917 25.5 5.75365 24.36 5.1199L22.3796 4.01893L23.312 6.08404C23.855 7.28664 24.3162 8.65587 24.6733 10.1543L24.8106 10.7305H25.4029H28.593ZM30.46 21.668H31.0388L31.1855 21.108C31.4904 19.9439 31.6484 18.7337 31.6484 17.5C31.6484 16.2663 31.4904 15.0561 31.1855 13.892L31.0388 13.332H30.46H26.0827H25.2547L25.3363 14.1559C25.4433 15.2369 25.5 16.3549 25.5 17.5C25.5 18.6451 25.4433 19.7631 25.3363 20.8441L25.2547 21.668H26.0827H30.46ZM14.3105 28.3755L14.3105 28.3755L20.0186 28.0401L20.6894 28.3756C20.6894 28.3755 20.6894 28.3755 20.6894 28.3755C21.1612 27.4319 21.5608 26.3678 21.8852 25.2242L22.1561 24.2695H21.1637H13.8362H12.8438L13.1147 25.2242C13.4392 26.368 13.8388 27.432 14.3105 28.3755ZM12.2987 21.0027L12.3743 21.668H13.0439H21.9561H22.6257L22.7013 21.0027C22.8308 19.8639 22.8984 18.6884 22.8984 17.5C22.8984 16.3116 22.8308 15.1361 22.7013 13.9973L22.6257 13.332H21.9561H13.0439H12.3743L12.2987 13.9973C12.1692 15.1361 12.1016 16.3116 12.1016 17.5C12.1016 18.6884 12.1692 19.8639 12.2987 21.0027ZM4.54002 13.332H3.96116L3.81449 13.892C3.50959 15.0561 3.35156 16.2663 3.35156 17.5C3.35156 18.7337 3.50959 19.9439 3.81449 21.108L3.96116 21.668H4.54002H8.91734H9.74526L9.66369 20.8441C9.55668 19.7631 9.5 18.6451 9.5 17.5C9.5 16.3549 9.55668 15.2369 9.66369 14.1559L9.74526 13.332H8.91734H4.54002ZM20.6895 6.62448L20.6895 6.62446C20.1204 5.48633 19.5344 4.70042 19.0147 4.18721C18.7555 3.93129 18.5048 3.73526 18.2724 3.59832C18.0643 3.47569 17.7895 3.35156 17.5 3.35156C17.2105 3.35156 16.9357 3.47569 16.7276 3.59832C16.4952 3.73526 16.2445 3.93129 15.9853 4.18721C15.4656 4.70042 14.8796 5.48632 14.3106 6.62444C13.8387 7.56804 13.4392 8.63215 13.1147 9.77576L12.8438 10.7305H13.8362H21.1638H22.1562L21.8853 9.77577C21.5608 8.63204 21.1612 7.56803 20.6895 6.62448ZM11.688 6.08407L12.6205 4.01885L10.64 5.1199C9.50001 5.75366 8.44189 6.54919 7.49554 7.49554C6.85577 8.13531 6.28558 8.82625 5.78706 9.55833L4.98889 10.7305H6.40698H9.59711H10.1894L10.3267 10.1543C10.6838 8.65578 11.1449 7.28663 11.688 6.08407ZM6.40698 24.2695H4.989L5.78704 25.4416C6.28552 26.1738 6.85579 26.8647 7.49554 27.5045C8.44184 28.4508 9.50003 29.2464 10.64 29.8801L12.6204 30.9811L11.688 28.916C11.145 27.7134 10.6838 26.3441 10.3267 24.8457L10.1894 24.2695H9.59711H6.40698ZM23.312 28.9159L22.3795 30.9812L24.36 29.8801C25.5 29.2463 26.5581 28.4508 27.5045 27.5045C28.1442 26.8647 28.7144 26.1737 29.2129 25.4417L30.0111 24.2695H28.593H25.4029H24.8106L24.6733 24.8457C24.3162 26.3442 23.8551 27.7134 23.312 28.9159ZM0.75 17.5C0.75 8.24922 8.24922 0.75 17.5 0.75C26.7508 0.75 34.25 8.24922 34.25 17.5C34.25 26.7508 26.7508 34.25 17.5 34.25C8.24922 34.25 0.75 26.7508 0.75 17.5Z" stroke="#023F42" stroke-width="1.5"/>
</svg>
